<?xml version="1.0" encoding="utf-8"?>
<!-- Generator: Adobe Illustrator 16.0.0, SVG Export Plug-In . SVG Version: 6.00 Build 0)  -->
<!DOCTYPE svg PUBLIC "-//W3C//DTD SVG 1.1//EN" "http://www.w3.org/Graphics/SVG/1.1/DTD/svg11.dtd">
<svg version="1.1" id="Layer_1" xmlns="http://www.w3.org/2000/svg" xmlns:xlink="http://www.w3.org/1999/xlink" x="0px" y="0px"
	 width="512px" height="512px" viewBox="0 0 512 512" enable-background="new 0 0 512 512" xml:space="preserve">
<rect fill="#B83345" width="512" height="514"/>
<g>
	<path fill="#FFFFFF" d="M429.004,168.415c-0.287,2.468-0.559,4.945-0.853,7.419c-1.291,10.866-3.749,21.522-6.65,32.107
		c-7.395,26.966-17.314,53.175-28.174,79.077c-3.178,7.575-6.538,15.105-9.896,22.614c-1.594,3.569-5.182,5.542-9.343,5.381
		c-3.842-0.15-7.213-2.509-8.498-5.933c-0.885-2.34-0.586-4.606,0.432-6.856c9.469-20.904,18.101-42.104,25.793-63.618
		c5.962-16.696,11.312-33.544,15.063-50.81c2.437-11.218,3.859-22.557,2.733-33.931c-1.96-19.997-12.89-34.826-31.943-44.438
		c-8.42-4.244-17.564-6.18-27.15-6.209c-12.646-0.035-24.183,3.331-34.484,10.073c-7.982,5.221-15.792,10.659-22.932,16.873
		c-11.945,10.408-22.551,21.861-32.028,34.222c-1.091,1.419-2.221,2.814-3.34,4.208c-0.051,0.072-0.151,0.111-0.372,0.258
		c-0.769-0.972-1.569-1.922-2.32-2.912c-8.574-11.265-17.979-21.893-28.565-31.598c-6.813-6.241-14.093-11.958-21.825-17.218
		c-4.104-2.787-8.088-5.687-12.617-7.91c-21.688-10.614-50.291-6.805-67.952,8.986c-10.178,9.103-16.463,20.035-18.234,33.004
		c-1.161,8.568-0.997,17.168,0.32,25.743c2.935,19.16,8.674,37.67,15.034,56.039c8.137,23.511,17.546,46.594,27.827,69.376
		c1.887,4.163,0.684,8.518-3.009,10.965c-3.727,2.477-8.708,2.293-12.078-0.642c-1.11-0.965-2.006-2.279-2.604-3.58
		c-8.44-18.452-16.13-37.167-23.148-56.111c-6.273-16.943-12-34.039-16.37-51.5c-2.875-11.463-5.23-23.011-5.75-34.811
		c-0.037-0.936-0.138-1.863-0.225-2.788v-1.414c0.067-0.509,0.14-1.02,0.193-1.529c0.539-5.566,0.551-11.224,1.694-16.675
		c9.328-44.252,59.886-70.719,106.798-53.388c7.969,2.942,14.879,7.415,21.752,12.115c14.503,9.934,27.334,21.399,38.961,34.083
		c0.712,0.774,1.422,1.549,2.175,2.378c0.331-0.338,0.552-0.527,0.738-0.744c6.754-7.555,13.983-14.699,21.722-21.4
		c6.81-5.896,14.272-11.042,21.693-16.264c14.218-10,30.13-15.204,47.955-15.485c5.626-0.087,11.178,0.441,16.698,1.466
		c30.758,5.732,55.26,28.521,61.267,57.082c0.644,3.086,1.007,6.218,1.509,9.325V168.415z"/>
	<path fill="#FFFFFF" d="M324.959,350.643c-3.518,5.548-7.478,10.534-12.145,14.938c-13.104,12.377-28.738,19.818-47.031,21.597
		c-24.869,2.412-46.411-4.912-64.159-21.778c-14.109-13.407-21.784-29.903-22.87-48.981c-1.231-21.818,6.042-40.785,21.652-56.654
		c12.599-12.802,28.119-20.525,46.278-22.758c24.393-2.98,45.929,3.539,64.074,19.553c13.834,12.189,21.978,27.446,24.471,45.338
		c0.672,4.823,0.585,9.76,0.566,14.658c-0.063,16.193,5.642,29.802,19.258,39.835c8.347,6.136,18.018,9.396,28.213,11.339
		c9.831,1.883,19.784,2.494,29.793,2.163c3.161-0.105,6.222,0.029,8.781,2.182c2.967,2.485,4.104,6.446,2.834,10.026
		c-1.257,3.549-4.576,6.147-8.655,6.141c-7.483-0.018-14.979-0.063-22.444-0.574c-10.696-0.748-21.157-2.862-31.204-6.603
		c-15.816-5.899-28.498-15.396-36.946-29.759C325.347,351.142,325.218,350.997,324.959,350.643 M316.725,313.205
		c1.158-28.357-21.795-56.141-55.186-58.316c-33.244-2.178-61.638,21.804-63.719,53.362c-2.087,31.619,23.228,59.222,55.978,60.935
		C289.099,371.047,316.65,343.738,316.725,313.205"/>
	<path fill="#FFFFFF" d="M247.039,428.551c-15.978-0.288-36.465-6.034-55.552-16.631c-2.727-1.507-5.413-3.105-8.048-4.771
		c-4.701-2.988-5.945-8.661-2.925-12.992c2.964-4.261,8.831-5.33,13.494-2.374c12.402,7.879,25.726,13.677,40.34,16.545
		c18.646,3.676,36.978,2.219,55.019-3.331c10.915-3.334,21.213-7.965,30.699-14.218c4.382-2.887,10.315-1.764,13.263,2.375
		c2.992,4.198,2.03,9.777-2.369,12.757c-9.553,6.473-19.996,11.294-30.963,15.094C284.85,426.238,269.242,428.899,247.039,428.551"
		/>
</g>
</svg>
