<?xml version="1.0" encoding="utf-8"?>
<!-- Generator: Adobe Illustrator 16.0.0, SVG Export Plug-In . SVG Version: 6.00 Build 0)  -->
<!DOCTYPE svg PUBLIC "-//W3C//DTD SVG 1.1//EN" "http://www.w3.org/Graphics/SVG/1.1/DTD/svg11.dtd">
<svg version="1.1" id="Layer_1" xmlns="http://www.w3.org/2000/svg" xmlns:xlink="http://www.w3.org/1999/xlink" x="0px" y="0px"
	 width="200px" height="80px" viewBox="0 0 200 80" enable-background="new 0 0 200 80" xml:space="preserve">
<rect x="0" fill="#B83345" width="200" height="80"/>
<g>
	<path fill="#FFFFFF" d="M65.476,26.047c-0.043,0.402-0.084,0.805-0.128,1.208c-0.194,1.769-0.564,3.504-1,5.227
		c-1.111,4.39-2.603,8.656-4.235,12.874c-0.478,1.233-0.983,2.458-1.488,3.681c-0.24,0.581-0.779,0.903-1.405,0.876
		c-0.577-0.025-1.084-0.408-1.277-0.965c-0.133-0.381-0.088-0.751,0.065-1.117c1.423-3.404,2.721-6.854,3.877-10.357
		c0.897-2.718,1.701-5.461,2.265-8.272c0.366-1.826,0.58-3.672,0.411-5.524c-0.295-3.255-1.938-5.669-4.802-7.234
		c-1.266-0.691-2.641-1.006-4.082-1.011c-1.901-0.006-3.635,0.542-5.184,1.64c-1.2,0.85-2.374,1.735-3.447,2.747
		c-1.796,1.694-3.39,3.559-4.815,5.571c-0.164,0.231-0.334,0.458-0.502,0.685c-0.008,0.012-0.023,0.018-0.056,0.042
		c-0.116-0.158-0.236-0.313-0.349-0.474c-1.289-1.834-2.703-3.564-4.294-5.144c-1.024-1.016-2.119-1.947-3.281-2.803
		c-0.617-0.454-1.216-0.926-1.897-1.288c-3.26-1.728-7.56-1.108-10.215,1.463c-1.53,1.482-2.475,3.262-2.741,5.373
		c-0.175,1.395-0.15,2.795,0.048,4.191c0.441,3.119,1.304,6.133,2.26,9.123c1.223,3.827,2.638,7.585,4.183,11.294
		c0.284,0.679,0.103,1.388-0.452,1.786c-0.56,0.403-1.309,0.373-1.816-0.105c-0.167-0.157-0.301-0.371-0.391-0.583
		c-1.269-3.004-2.425-6.05-3.48-9.134c-0.943-2.759-1.804-5.542-2.461-8.385c-0.432-1.866-0.786-3.746-0.864-5.667
		c-0.006-0.152-0.021-0.303-0.034-0.454v-0.23c0.01-0.083,0.021-0.166,0.029-0.249c0.081-0.906,0.083-1.827,0.255-2.715
		c1.402-7.204,9.003-11.513,16.055-8.691c1.198,0.479,2.237,1.207,3.27,1.972c2.18,1.617,4.109,3.484,5.857,5.549
		c0.107,0.126,0.214,0.252,0.327,0.387c0.05-0.055,0.083-0.086,0.111-0.121c1.015-1.23,2.102-2.393,3.265-3.484
		c1.024-0.96,2.146-1.798,3.262-2.648c2.137-1.628,4.529-2.475,7.209-2.521c0.845-0.014,1.68,0.072,2.51,0.239
		c4.624,0.933,8.307,4.643,9.21,9.293c0.097,0.502,0.152,1.012,0.227,1.518V26.047z"/>
	<path fill="#FFFFFF" d="M49.835,53.992c-0.529,0.868-1.124,1.646-1.826,2.335c-1.97,1.935-4.32,3.098-7.07,3.376
		c-3.739,0.377-6.977-0.767-9.645-3.404c-2.121-2.096-3.275-4.674-3.438-7.657c-0.185-3.409,0.908-6.375,3.255-8.855
		c1.894-2.001,4.227-3.208,6.957-3.557c3.667-0.466,6.904,0.553,9.632,3.056c2.08,1.905,3.304,4.29,3.679,7.087
		c0.101,0.754,0.088,1.526,0.085,2.291c-0.01,2.531,0.848,4.658,2.895,6.226c1.255,0.96,2.709,1.47,4.241,1.773
		c1.478,0.294,2.974,0.389,4.479,0.338c0.475-0.016,0.935,0.005,1.32,0.341c0.446,0.389,0.617,1.008,0.426,1.567
		c-0.189,0.555-0.688,0.961-1.301,0.96c-1.125-0.003-2.252-0.009-3.374-0.089c-1.608-0.118-3.181-0.448-4.691-1.033
		c-2.378-0.922-4.284-2.406-5.554-4.651C49.893,54.07,49.874,54.048,49.835,53.992 M48.597,48.14
		c0.174-4.432-3.276-8.774-8.296-9.115c-4.998-0.34-9.266,3.409-9.579,8.341c-0.314,4.943,3.492,9.257,8.415,9.525
		C44.444,57.181,48.586,52.913,48.597,48.14"/>
	<path fill="#FFFFFF" d="M38.121,66.17c-2.402-0.045-5.482-0.944-8.351-2.599c-0.41-0.236-0.814-0.486-1.21-0.747
		c-0.707-0.466-0.894-1.353-0.44-2.03c0.446-0.666,1.328-0.833,2.029-0.371c1.864,1.232,3.867,2.138,6.064,2.586
		c2.803,0.574,5.559,0.346,8.271-0.52c1.641-0.522,3.189-1.246,4.615-2.223c0.659-0.451,1.551-0.276,1.994,0.371
		c0.45,0.656,0.305,1.528-0.356,1.994c-1.436,1.012-3.006,1.766-4.655,2.359C43.805,65.809,41.459,66.224,38.121,66.17"/>
	<path fill="#FFFFFF" d="M102.604,37.151c0,5.805-1.95,12.08-3.8,17.678c-0.236,0.703-0.102,1.348-1.446,1.348
		c-0.605,0-2.96-0.292-2.96-1.317c0-0.383,0.201-0.822,0.302-1.115c1.144-3.841,2.522-7.651,3.498-11.551
		c0.572-2.375,1.783-7.329,0-7.329c-3.397,0-7.366,10.261-8.207,12.694c-0.235,0.674-0.1,1.553-1.345,1.553
		c-0.639,0-2.522-0.264-2.422-1.025c0.336-2.316,3.902-9.586,1.379-9.586c-2.085,0-4.002,4.662-4.473,7.241
		c-0.37,2.053-0.841,4.339-0.841,6.303c0,0.147,0.034,0.266,0.034,0.411c0,0.527-1.144,0.527-1.547,0.527
		c-1.11-0.028-3.128-0.498-3.128-1.377c0.269-5.159,1.614-10.584,3.969-17.65c0.236-0.674,0.336-0.997,1.514-0.997
		c0.807,0,3.027,0.352,3.027,1.202c0,0.264-0.202,0.616-1.144,3.489c0.807-0.557,1.715-0.997,2.691-0.997
		c1.614,0,2.421,1.055,2.825,2.199c1.716-2.58,4.541-6.069,7.703-6.069c1.076,0,2.522,0.323,3.295,1.115
		C102.401,34.806,102.604,36.007,102.604,37.151z M119.387,48.028c-0.438,1.523-2.59,5.804-4.507,5.804
		c-3.498,0-3.936-1.993-4.003-3.576c-0.773,0.938-1.815,1.758-3.262,1.758c-2.019,0-3.667-0.879-3.667-2.608
		c0-2.258,1.918-8.091,5.853-8.091c0.941,0,2.019,0.175,2.658,0.674c0.47,0.352,0.738,0.82,0.807,1.437
		c0,0.293,2.254,0.146,2.254,1.377c-0.606,1.32-2.355,6.92-1.01,6.92c1.278,0,3.531-4.046,4.069-5.542
		C119.655,46.18,119.588,47.295,119.387,48.028z M111.853,44.363c0.033-0.088,0.067-0.177,0.067-0.234
		c0-0.089-0.336-0.235-0.336-0.381c0-0.264-0.102-1.262-0.942-1.262c-2.623,0-5.18,7.944-3.229,7.944
		C109.801,50.431,111.314,46.063,111.853,44.363z M124.061,41.049c1.077,0,1.38,0.411,1.581,0.616
		c0.472-0.233,0.64-0.351,1.21-0.351c0.606,0,2.859,0.498,2.691,1.202c-0.505,2.14-0.772,3.986-1.245,6.097
		c0.505-0.381,4.172-3.605,4.238-3.576c0.404,0.234,0.809,0.586,0.505,1.349c-0.47,1.231-4.405,4.28-5.247,4.925
		c-0.604,2.902-1.143,5.805-1.883,8.679c-0.538,2.052-1.749,3.723-4.406,3.723c-1.109,0-2.287-0.264-3.194-0.85l0.066,0.059
		c-1.009-0.558-1.479-1.613-1.479-2.639c0-3.108,3.936-6.156,6.391-8.092c0.134-0.646,0.268-1.261,0.369-1.906
		c-0.941,1.086-1.715,1.965-3.397,1.965c-1.513,0-3.431-0.616-3.431-2.17C116.829,46.767,120.529,41.049,124.061,41.049z
		 M122.582,55.592c-1.547,1.523-4.944,6.097-2.153,6.097C121.807,61.688,122.211,57.262,122.582,55.592z M124.6,42.428
		c-2.927,0-6.054,8.18-4.608,8.326c1.75,0.176,5.213-5.512,5.213-7.682C125.204,42.867,125.204,42.428,124.6,42.428z
		 M140.776,52.835c-3.632,0-0.738-7.123-2.052-7.153c-1.378-0.029-3.296,4.603-4.439,7.095c-0.772,0.294-1.714,0.117-2.59-0.116
		c-0.369-0.147-1.211-0.44-1.177-0.909c0.068-0.587,0.235-1.144,0.37-1.729c0.605-2.522,1.211-5.043,1.85-7.535
		c0.068-0.264,0.068-0.646,0.337-0.791c0.201-0.117,0.438-0.117,0.639-0.146c0.64-0.03,1.312,0.087,1.884,0.292
		c0.538,0.176,1.009,0.41,0.94,0.939c-0.066,0.615-0.2,1.23-0.335,1.816c0.807-0.557,1.682-0.849,2.69-0.791
		c0.807,0.06,1.782,0.323,2.287,0.908c0.571,0.675,0.571,1.613,0.571,2.404c0.035,1.085-0.976,5.102,0.807,3.929
		C142.93,52.19,141.954,52.835,140.776,52.835z M157.828,45.478c0.573,0,1.009,0.702,0.875,1.025
		c-1.211,2.728-4.675,3.693-6.896,3.284c-0.672,1.23-2.152,2.726-3.867,2.726c-3.128,0-5.112-1.847-5.112-4.456
		c0-1.496,0.403-4.309,2.152-4.309c0.639,0,1.278,0.146,1.816,0.381c0.168-1.672,1.144-3.167,3.598-3.167
		c2.322,0,3.533,1.232,3.533,2.932c0,1.671-0.64,3.254-1.48,4.75C155.475,48.877,157.156,46.21,157.828,45.478z M146.999,46.386
		c-0.338,0.322-1.043,4.515,0.135,4.515c1.276,0,2.219-1.172,2.454-1.7C148.445,48.613,147.301,47.499,146.999,46.386z
		 M152.783,37.209c-0.571,0.381-1.144,0.792-1.749,1.173c-0.402,0.292-1.109,0.762-1.682,0.792c-0.571,0.058-0.942,0-1.446-0.206
		c-0.437-0.175-0.74-0.498-0.268-0.821c0.47-0.292,1.007-0.557,1.512-0.85c1.009-0.557,2.02-1.319,3.297-0.938
		C152.952,36.505,153.354,36.829,152.783,37.209z M149.252,45.242c0,0.938,0,1.818,1.009,2.697c1.211-1.789,2.221-6.069,0.841-6.069
		c-0.975,0-1.648,1.584-1.749,2.346C149.285,44.539,149.252,44.891,149.252,45.242z M160.485,32.841
		c0.067-0.322,0.134-0.586,0.941-0.586c1.11,0,2.69,0.264,2.69,1.29c0,0.645-0.167,1.32-0.269,1.964
		c-0.807,4.808-3.767,15.686-2.725,15.597c1.984-0.176,4.575-3.46,5.348-5.072c0.605,0.117,0.808,0.383,0.739,0.938
		c-0.134,1.114-3.127,6.128-5.75,6.128c-1.244,0-4.406-0.059-4.406-3.723C157.055,46.972,159.072,38.528,160.485,32.841z
		 M174.442,47.939c-1.512,2.99-3.362,5.188-4.742,5.188c-1.109,0-2.32-0.352-3.194-0.908c-1.009-0.615-1.109-1.437-1.109-2.521
		c0-0.763,0.065-1.495,0.201-2.228c0.706-4.369,1.613-5.454,2.791-5.454c0.908,0,2.49,0.5,2.32,0.91
		c-0.907,2.285-2.186,8.589-1.243,8.589c0.975,0,3.531-3.518,4.271-4.778C174.376,46.854,174.645,47.499,174.442,47.939z
		 M170.744,36.564c0.438,0,1.815,0.088,1.815,0.645c0,0.646-0.74,2.639-1.58,2.756c-0.505,0.058-2.22-0.176-2.22-0.88
		c0-0.262,0.302-0.968,0.976-2.199C169.902,36.623,170.373,36.564,170.744,36.564z M182.716,53.362
		c-2.118,0-2.723-1.523-2.791-3.106c-0.772,0.938-1.815,1.758-3.261,1.758c-2.02,0-3.667-0.879-3.667-2.608
		c0-2.258,1.918-8.091,5.852-8.091c0.942,0,2.019,0.175,2.658,0.674c0.471,0.352,0.739,0.82,0.807,1.437
		c0,0.293,2.253,0.146,2.253,1.377c-0.673,1.729-3.262,8.59,0.605,5.952C185.508,51.545,185.139,53.362,182.716,53.362z
		 M180.901,44.363c0.032-0.088,0.065-0.177,0.065-0.234c0-0.089-0.335-0.235-0.335-0.381c0-0.264-0.101-1.262-0.942-1.262
		c-2.623,0-5.179,7.944-3.228,7.944C178.849,50.431,180.362,46.063,180.901,44.363z"/>
</g>
</svg>
