<?xml version="1.0" encoding="utf-8"?>
<!-- Generator: Adobe Illustrator 16.0.0, SVG Export Plug-In . SVG Version: 6.00 Build 0)  -->
<!DOCTYPE svg PUBLIC "-//W3C//DTD SVG 1.1//EN" "http://www.w3.org/Graphics/SVG/1.1/DTD/svg11.dtd">
<svg version="1.1" id="Layer_1" xmlns="http://www.w3.org/2000/svg" xmlns:xlink="http://www.w3.org/1999/xlink" x="0px" y="0px"
	 width="300px" height="300px" viewBox="0 0 300 300" enable-background="new 0 0 300 300" xml:space="preserve">
<polygon fill="#C5EFF2" points="152.014,14.467 196.051,103.698 294.521,118.008 223.27,187.465 240.091,285.534 152.014,239.236 
	63.937,285.534 80.757,187.465 9.502,118.008 107.974,103.698 "/>
<g>
	<path fill="#FFFFFF" d="M188.145,276.911c-0.049-1.044-0.039-1.862-0.138-2.67c-0.597-4.884-0.597-9.796-0.272-14.678
		c0.422-6.367,2.078-12.44,5.261-18.039c1.286-2.257,2.563-4.522,3.756-6.834c1.949-3.785,2.253-7.802,1.263-11.903
		c-0.49-2.013-1.107-4-1.785-5.958c-1.236-3.579-2.478-7.153-2.99-10.929c-0.143-1.025-0.772-1.552-1.733-1.771
		c-2.815-0.646-5.625-1.318-8.45-1.938c-4.434-0.975-8.938-1.478-13.451-1.771c-3.994-0.259-8.013-0.321-12.02,0.209
		c-2.352,0.311-4.712,0.548-7.051,0.958c-5.134,0.898-10.1,2.359-14.957,4.224c-6.346,2.43-12.266,5.668-17.903,9.439
		c-0.183,0.124-0.334,0.298-0.578,0.511c-0.213,1.259-0.078,2.579,0.035,3.908c0.282,3.4,0.541,6.808,0.817,10.209
		c0.23,2.89,0.467,5.775,0.708,8.659c0.185,2.217,0.42,4.435,0.554,6.657c0.232,3.854,0.629,7.69,0.597,11.566
		c-0.031,4.173-1.241,7.898-3.598,11.271c-0.974,1.393-2.145,2.652-3.234,3.969c-0.369,0.446-0.761,0.873-1.183,1.357
		c0.771,0.586,1.596,0.674,2.355,0.922c5.442,1.752,10.983,3.105,16.59,4.24c3.421,0.692,6.873,1.148,10.307,1.692
		c3.143,0.49,6.356,0.583,9.54,0.787c4.679,0.304,9.353,0.324,14.021-0.139c2.442-0.238,4.901-0.274,7.326-0.588
		c3.158-0.414,6.297-0.978,9.434-1.547c1.746-0.316,3.474-0.764,5.201-1.188C187.053,277.416,187.503,277.173,188.145,276.911z"/>
	<path fill="#FFFFFF" d="M121.697,105.669c3.667,2.7,7.83,1.662,9.671-1.913c0.506-0.985,0.942-2.022,1.29-3.075
		c0.794-2.403,1.062-4.926,1.45-7.416c0.539-3.456,1.222-6.875,2.562-10.126c2.17-5.271,5.859-8.87,11.473-10.322
		c0.29-0.078,0.565-0.183,0.851-0.268c2.787-0.832,5.525-1.764,7.714-3.813c0.479-0.455,1.065-0.468,1.668-0.408
		c1.183,0.119,2.366,0.262,3.55,0.337c3.536,0.23,6.633,1.588,9.313,3.827c3.389,2.831,5.38,6.666,7.209,10.583
		c0.025,0.056-0.004,0.136-0.008,0.205c-1.25-0.049-2.51-0.205-3.752-0.129c-2.783,0.172-5.195,1.214-7.023,3.39
		c-0.374,0.443-0.693,0.973-0.896,1.516c-0.104,0.285-0.009,0.821,0.203,1.001c0.297,0.252,0.824,0.457,1.178,0.371
		c0.478-0.119,0.863-0.541,1.303-0.814c1.13-0.706,2.221-1.495,3.414-2.072c2.213-1.073,4.496-0.986,6.641,0.167
		c1.1,0.591,2.143,1.361,3.029,2.231c1.605,1.569,3.242,3.057,5.275,4.053c0.189,0.093,0.33,0.282,0.584,0.5
		c-0.133,1.792-0.207,3.645-0.422,5.48c-0.354,3.019-0.795,6.03-1.209,9.044c-0.813,5.892-2.177,11.658-4.252,17.232
		c-1.902,5.114-4.375,9.931-8.089,14.004c-2.81,3.077-6.103,5.423-10.22,6.416c-2.838,0.687-5.659,0.844-8.598,0.387
		c-4.199-0.651-8.035-2.054-11.568-4.361c-3.452-2.258-6.387-5.078-9.041-8.218c-3.129-3.702-5.759-7.751-8.273-11.877
		c-0.968-1.586-1.875-3.209-2.864-4.781c-0.854-1.354-1.893-1.688-3.189-0.841c-0.733,0.48-1.333,0.436-2.079,0.308
		c-2.109-0.359-4.012-1.222-5.579-2.622c-5.45-4.862-7.315-11.021-6.108-18.11c0.41-2.421,1.798-4.419,3.984-5.669
		c1.794-1.028,3.685-1.533,5.708-0.356c-0.058,1.045,0.208,2.092-0.485,2.925c-1.013,0-1.906-0.056-2.788,0.014
		c-1.151,0.096-1.903,0.86-2.037,2.001c-0.054,0.468,0.078,0.889,0.66,0.952c2.191-1.583,2.382-1.571,4.361,0.153
		c0.531,1.916,1.025,3.688,1.545,5.558c-0.572,0.063-1.074,0.143-1.576,0.167c-1.216,0.051-2.108,0.653-2.775,1.62
		c-1.024,1.489-1.03,3.081-0.284,4.659c0.75,1.588,1.979,2.771,3.477,3.676c0.186,0.111,0.419,0.25,0.61,0.225
		c0.342-0.043,0.793-0.113,0.963-0.341c0.177-0.239,0.175-0.721,0.065-1.031c-0.113-0.323-0.442-0.578-0.691-0.845
		c-0.498-0.551-1.035-1.066-1.502-1.641c-0.597-0.733-0.73-1.602-0.584-2.523c0.166-1.035,0.566-1.474,1.58-1.54
		c0.808-0.057,1.621-0.016,2.242-0.016C120.271,104.369,120.924,105.1,121.697,105.669z M143.061,103.942
		c-1.173-0.16-2.331-0.424-3.497-0.631c-0.362-0.063-0.751-0.164-1.095-0.09c-0.325,0.067-0.713,0.277-0.88,0.541
		c-0.254,0.409-0.077,0.854,0.287,1.185c0.167,0.147,0.334,0.304,0.531,0.405c0.724,0.366,1.426,0.837,2.197,1.042
		c3.878,1.032,7.625,0.754,11.139-1.341c1.038-0.619,1.858-1.464,2.481-2.497c0.153-0.252,0.277-0.526,0.377-0.805
		c0.201-0.563-0.228-1.075-0.803-0.95c-0.285,0.063-0.561,0.181-0.842,0.275c-0.275,0.091-0.55,0.182-0.85,0.282
		c-1.512-0.763-2.336-2.047-2.991-3.492c-0.335-0.742-0.638-1.503-1.058-2.197c-0.151-0.25-0.629-0.482-0.904-0.434
		c-0.276,0.054-0.631,0.434-0.702,0.729c-0.326,1.358-0.067,2.672,0.642,3.854c0.601,1.007,1.319,1.944,2.134,3.128
		C147.187,103.93,145.165,104.232,143.061,103.942z M182.23,96.994c-0.299-0.675-0.623-1.345-0.998-1.98
		c-0.228-0.397-0.871-0.291-1.117,0.117c-0.454,0.765-0.428,1.604-0.189,2.378c0.266,0.836,0.695,1.636,1.131,2.402
		c0.324,0.574,0.783,1.069,1.213,1.64c-0.646,0.97-1.631,1.314-2.617,1.599c-1.369,0.393-2.762,0.584-4.17,0.111
		c-0.561-0.192-1.142-0.367-1.723-0.408c-0.404-0.026-0.885,0.101-1.224,0.314c-0.687,0.429-0.688,1.184-0.075,1.66
		c0.178,0.137,0.366,0.263,0.563,0.358c3.601,1.772,7.158,1.782,10.61-0.362c1.511-0.941,2.415-2.384,2.949-4.065
		c0.067-0.208,0.076-0.437,0.08-0.658c0.009-0.623-0.543-1.116-1.188-0.996c-0.424,0.082-0.826,0.292-1.377,0.494
		C183.124,98.868,182.656,97.954,182.23,96.994z M167.115,129.092c0.396-0.336,0.809-0.688,0.703-1.292
		c-0.076-0.429-0.797-0.682-1.543-0.518c-0.721,0.155-1.442,0.335-2.146,0.563c-4.342,1.388-8.169,0.391-11.604-2.47
		c-0.512-0.426-0.967-0.93-1.512-1.302c-0.348-0.234-0.802-0.379-1.223-0.414c-0.729-0.062-1.331,0.718-0.998,1.337
		c0.455,0.838,0.958,1.688,1.608,2.378c2.626,2.794,5.975,3.981,9.039,4.146C162.762,131.548,165.111,130.81,167.115,129.092z
		 M152.883,85.434c-3.692-2.731-7.72-3.169-11.95-1.451c-1.865,0.756-3.154,2.168-3.865,4.065c-0.16,0.422-0.208,0.876,0.138,1.253
		c0.405,0.443,0.938,0.438,1.438,0.277c0.341-0.106,0.646-0.348,0.944-0.563c0.778-0.567,1.512-1.197,2.32-1.719
		c1.188-0.764,2.444-1.353,3.902-1.473c2.2-0.181,4.066,0.563,5.747,1.897c0.637,0.506,1.196,1.117,1.861,1.576
		c0.328,0.227,0.82,0.298,1.236,0.288c0.229-0.004,0.447-0.314,0.68-0.495C154.992,87.489,154.092,86.324,152.883,85.434z
		 M168.299,109.287c0.258,0.615,0.645,1.178,0.889,1.794c0.242,0.612,0.472,1.258,0.551,1.907c0.3,2.542-1.141,4.318-3.684,4.583
		c-0.664,0.069-1.332,0.014-1.996,0.071c-0.178,0.015-0.445,0.225-0.481,0.379c-0.05,0.255-0.031,0.641,0.128,0.8
		c1.428,1.438,3.188,1.555,4.961,0.937c2.004-0.7,3.316-2.115,3.873-4.257c0.309-1.177,0.031-2.234-0.352-3.255
		c-0.643-1.705-1.771-3.057-3.847-4.038C168.311,108.77,168.206,109.071,168.299,109.287z M160.354,136.673
		c-0.662,0.035-1.328,0.197-1.984,0.167c-1.344-0.066-2.627-0.41-3.778-1.144c-0.663-0.416-1.354-0.584-2.104-0.228
		c-0.383,0.181-0.604,0.813-0.393,1.127c1.961,2.884,6.688,3.614,9.525,1.464c0.109-0.08,0.15-0.248,0.229-0.386
		C161.662,136.883,161.09,136.636,160.354,136.673z"/>
	<path fill="#FFFFFF" d="M121.559,174.896c-2.139,0.015-8.378,1.348-10.299,2.224c0.132,0.381,0.214,0.805,0.414,1.162
		c1.52,2.703,2.266,5.625,2.573,8.695c0.212,2.139,0.539,4.271,0.749,6.412c0.245,2.515,0.399,5.041,0.621,7.557
		c0.3,3.4,0.625,6.802,0.949,10.204c0.02,0.194,0.145,0.379,0.287,0.733c1.377-0.85,2.684-1.668,4.008-2.46
		c1.341-0.796,2.699-1.565,4.055-2.338c1.345-0.758,2.818-1.285,4.194-2.168c-2.137-9.98-4.881-19.692-7.189-29.509
		C121.875,175.216,121.672,175.056,121.559,174.896z"/>
	<path fill="#FFFFFF" d="M165.715,148.521c-0.543,0.052-0.854,0.034-1.126,0.116c-2.628,0.739-5.317,0.608-7.983,0.484
		c-3.439-0.166-6.715-1.155-9.876-2.501c-2.886-1.224-5.566-2.813-8.022-4.776c-0.521-0.412-1.071-0.792-1.58-1.168
		c-0.792,0.242-0.576,0.849-0.519,1.313c0.315,2.589,0.334,5.192,0.27,7.792c-0.022,0.819-0.086,1.634-0.108,2.451
		c-0.017,0.729-0.002,1.462-0.002,2.231c3.355,1.841,6.838,3.067,10.456,3.929c4.682,1.117,9.424,1.169,14.163,0.5
		c1.368-0.189,2.805-0.303,4.09-1.038C165.911,154.789,165.822,151.763,165.715,148.521z"/>
	<path fill="#FFFFFF" d="M194.182,181.857c-3.287-2.147-6.693-3.849-10.477-5.36c-0.08,0.738-0.215,1.226-0.176,1.701
		c0.584,6.732,0.387,13.493,0.615,20.24c0.008,0.215,0.086,0.43,0.149,0.729c1.146,0.843,2.619,0.848,3.925,1.307
		c1.239,0.44,2.498,0.846,3.625,1.221c0.661-0.368,0.563-0.842,0.561-1.263c-0.012-1.708-0.012-3.417-0.059-5.123
		c-0.125-4.269,0.506-8.428,1.691-12.515C194.1,182.583,194.107,182.36,194.182,181.857z"/>
	<path fill="#FFFFFF" d="M177.12,178.096c-0.425,0.044-0.854-0.008-1.214,0.135c-2.066,0.817-4.102,1.721-6.176,2.516
		c-2.695,1.038-5.442,1.897-8.312,2.396c-6.45,1.122-12.676,0.412-18.699-2.122c-2.738-1.154-5.367-2.521-7.899-4.085
		c-0.494-0.303-1.05-0.564-1.61-0.686c-0.268-0.057-0.688,0.196-0.899,0.433c-0.105,0.125,0.006,0.603,0.174,0.778
		c1.542,1.631,3.363,2.901,5.316,3.996c6.191,3.453,12.857,4.785,19.906,4.553c4.282-0.143,8.392-1.025,12.323-2.661
		c2.473-1.031,4.759-2.417,6.656-4.358c0.148-0.155,0.274-0.337,0.4-0.518C177.12,178.413,177.104,178.323,177.12,178.096z"/>
	<path fill="#FFFFFF" d="M110.576,269.472c2.857-2.262,4.639-5.082,5.538-8.459c0.384-1.448,0.539-2.907,0.52-4.4
		c-0.039-3.116-0.024-6.228-0.373-9.339c-0.331-2.943-0.419-5.916-0.627-8.874c-0.035-0.482,0.144-1.06-0.619-1.43
		c-0.647,2.693-0.713,5.413-1.129,8.073c-0.425,2.707-0.731,5.435-1.094,8.158c-0.36,2.716-0.72,5.435-1.09,8.151
		C111.333,264.062,110.949,266.765,110.576,269.472z"/>
	<g>
		<path fill="#7B98DB" d="M130.315,146.142c-2.278,0.201-4.337,0.96-6.11,2.438c-0.685,0.572-1.362,1.156-2.084,1.678
			c-2.277,1.646-4.75,2.131-7.35,0.909c-1.267-0.599-2.438-1.414-3.61-2.198c-1.543-1.033-3.01-2.178-4.571-3.183
			c-1.975-1.271-4.065-1.285-6.157-0.273c-0.868,0.421-1.708,0.911-2.559,1.367c-4.135,2.216-8.381,2.244-12.697,0.604
			c-3.84-1.455-6.716-4.057-8.802-7.543c-3.073-5.137-4.202-10.755-3.892-16.671c0.123-2.3,0.702-4.553,1.634-6.676
			c1.507-3.432,4.144-5.755,7.457-7.354c1.807-0.876,3.633-1.712,5.472-2.516c4.388-1.913,7.722-5.006,10.012-9.167
			c1.214-2.206,2.259-4.525,3.18-6.871c1.082-2.768,1.957-5.612,2.901-8.435c1.386-4.149,2.704-8.325,4.138-12.464
			c1.884-5.442,4.49-10.523,8.054-15.068c3.4-4.331,7.47-7.844,12.586-10.044c3.425-1.478,6.97-2.567,10.633-3.223
			c3.25-0.584,6.511-0.533,9.699,0.498c0.771,0.248,1.553,0.475,2.296,0.698c0.463-0.237,0.854-0.449,1.256-0.645
			c8.119-4.038,16.04-3.731,23.745,1.086c3.246,2.025,5.989,4.631,8.396,7.593c2.304,2.831,4.248,5.899,6.105,9.047
			c3.991,6.756,7.033,13.9,9.262,21.409c1.332,4.485,2.654,8.977,4.1,13.425c1.537,4.723,3.912,8.98,7.396,12.579
			c1.963,2.029,3.897,4.088,5.846,6.134c3.646,3.824,6.015,8.224,6.506,13.592c0.396,4.309-0.012,8.476-1.721,12.449
			c-1.295,3.007-3.215,5.499-6.359,6.855c-1.914,0.821-3.906,0.831-5.912,0.795c-1.561-0.026-3.124-0.086-4.678-0.193
			c-2.563-0.171-4.684,0.607-6.243,2.716c-0.138,0.179-0.302,0.332-0.446,0.502c-1.904,2.236-4.339,2.948-7.205,2.597
			c-2.267-0.276-4.294-1.125-6.248-2.234c-1.16-0.661-2.326-1.319-3.496-1.965c-2.615-1.438-5.488-1.777-8.395-1.95
			c-0.428-0.025-0.9-0.047-1.291,0.522c0.133,0.313,0.213,0.768,0.477,1.073c0.477,0.561,1.021,1.084,1.604,1.529
			c0.712,0.537,1.489,0.981,2.239,1.463c0.623,0.405,1.248,0.818,1.879,1.209c1.529,0.944,2.193,2.29,2.164,4.102
			c-0.051,4.315-0.018,8.629-0.012,12.944c0,0.804,0.032,1.616,0.049,2.515c1.084,0.493,2.092,0.944,3.097,1.407
			c3.101,1.438,6.239,2.801,9.29,4.339c3.32,1.677,6.449,3.682,9.275,6.132c3.258,2.83,5.418,6.335,6.274,10.54
			c0.64,3.119,1.06,6.307,1.06,9.51c-0.004,5.796,1.176,11.361,3.221,16.745c1.082,2.847,2.313,5.641,3.529,8.435
			c1.691,3.884,3.332,7.779,4.59,11.834c1.106,3.566,1.84,7.198,1.996,10.927c0.179,4.189-0.516,8.278-1.668,12.309
			c-0.291,1.019-0.781,1.723-1.635,2.257c-1.447,0.905-2.88,1.847-4.352,2.72c-4.936,2.923-10.076,5.44-15.445,7.449
			c-5.217,1.945-10.545,3.579-16.023,4.64c-3.641,0.704-7.289,1.42-10.969,1.857c-3.388,0.404-6.816,0.508-10.228,0.645
			c-7.739,0.304-15.453,0.06-23.127-1.062c-4.843-0.707-9.656-1.596-14.42-2.737c-5.929-1.414-11.784-3.099-17.521-5.152
			c-9.455-3.377-18.665-7.345-27.566-12.008c-2.435-1.274-4.856-2.578-7.3-3.842c-0.876-0.455-1.329-1.153-1.434-2.104
			c-0.049-0.444-0.09-0.892-0.099-1.333c-0.067-3.052-0.125-6.094,0.496-9.109c0.539-2.624,1.22-5.213,2.368-7.635
			c1.209-2.559,2.685-4.968,4.415-7.213c1.86-2.417,3.692-4.852,5.54-7.271c4.963-6.51,8.753-13.617,10.933-21.538
			c0.788-2.857,1.485-5.743,2.246-8.613c0.78-2.945,1.675-5.854,3.012-8.604c2.029-4.188,4.921-7.595,9.033-9.864
			c2.033-1.124,4.271-1.68,6.54-2.122c2.187-0.425,4.364-0.893,6.539-1.367c1.391-0.302,2.676-0.863,3.911-1.667
			c0.086-0.524,0.214-1.03,0.249-1.537c0.342-5.04,0.667-10.079,1-15.123c0.112-1.713,0.75-3.164,2.147-4.229
			c0.414-0.314,0.83-0.627,1.23-0.959c0.627-0.52,1.255-1.048,1.549-2.155C130.874,146.221,130.59,146.118,130.315,146.142z
			 M188.009,274.242c-0.594-4.884-0.594-9.796-0.271-14.678c0.423-6.367,2.076-12.44,5.261-18.039
			c1.284-2.257,2.562-4.522,3.752-6.834c1.951-3.785,2.257-7.802,1.269-11.903c-0.494-2.013-1.109-4-1.785-5.958
			c-1.238-3.579-2.48-7.153-2.994-10.929c-0.139-1.025-0.771-1.552-1.732-1.771c-2.818-0.646-5.623-1.318-8.451-1.938
			c-4.432-0.975-8.94-1.478-13.451-1.771c-3.996-0.26-8.012-0.322-12.018,0.209c-2.354,0.31-4.714,0.547-7.053,0.958
			c-5.134,0.897-10.1,2.358-14.957,4.223c-6.346,2.43-12.265,5.668-17.903,9.439c-0.183,0.124-0.333,0.298-0.578,0.511
			c-0.213,1.259-0.078,2.579,0.035,3.908c0.282,3.4,0.541,6.808,0.817,10.209c0.23,2.89,0.468,5.775,0.707,8.659
			c0.186,2.218,0.42,4.435,0.554,6.657c0.233,3.854,0.63,7.69,0.597,11.566c-0.032,4.173-1.241,7.898-3.598,11.271
			c-0.974,1.393-2.145,2.652-3.234,3.969c-0.368,0.446-0.761,0.873-1.183,1.357c0.771,0.586,1.596,0.674,2.356,0.922
			c5.442,1.752,10.982,3.105,16.59,4.24c3.421,0.693,6.873,1.148,10.307,1.693c3.144,0.489,6.356,0.583,9.542,0.786
			c4.679,0.304,9.353,0.324,14.021-0.139c2.438-0.238,4.899-0.274,7.324-0.588c3.158-0.414,6.299-0.977,9.434-1.547
			c1.748-0.316,3.472-0.763,5.201-1.188c0.488-0.122,0.938-0.365,1.574-0.623C188.096,275.867,188.107,275.049,188.009,274.242z
			 M117.141,103.562c-1.013,0.066-1.414,0.503-1.58,1.54c-0.148,0.922-0.015,1.792,0.584,2.523c0.467,0.574,1.004,1.091,1.502,1.642
			c0.249,0.266,0.578,0.519,0.69,0.844c0.11,0.312,0.112,0.79-0.065,1.031c-0.169,0.228-0.622,0.3-0.963,0.341
			c-0.191,0.028-0.425-0.113-0.61-0.224c-1.496-0.905-2.727-2.087-3.477-3.677c-0.747-1.577-0.74-3.17,0.284-4.658
			c0.667-0.969,1.557-1.57,2.775-1.621c0.504-0.023,1.006-0.104,1.576-0.167c-0.519-1.871-1.013-3.642-1.545-5.558
			c-1.979-1.728-2.169-1.737-4.361-0.153c-0.584-0.064-0.716-0.487-0.66-0.953c0.134-1.139,0.886-1.905,2.037-2
			c0.882-0.069,1.775-0.015,2.788-0.015c0.693-0.836,0.427-1.88,0.485-2.925c-2.022-1.177-3.915-0.673-5.708,0.356
			c-2.187,1.25-3.572,3.249-3.984,5.669c-1.208,7.089,0.658,13.25,6.107,18.111c1.567,1.397,3.472,2.262,5.58,2.621
			c0.746,0.129,1.346,0.174,2.078-0.308c1.296-0.85,2.335-0.513,3.188,0.841c0.99,1.572,1.897,3.193,2.866,4.781
			c2.514,4.126,5.143,8.175,8.271,11.877c2.654,3.139,5.59,5.96,9.042,8.218c3.534,2.309,7.37,3.711,11.568,4.361
			c2.938,0.457,5.76,0.302,8.598-0.386c4.118-0.994,7.411-3.34,10.221-6.416c3.713-4.074,6.186-8.892,8.088-14.003
			c2.076-5.576,3.438-11.344,4.254-17.234c0.41-3.014,0.854-6.025,1.207-9.044c0.217-1.836,0.291-3.689,0.422-5.48
			c-0.252-0.219-0.396-0.406-0.584-0.5c-2.03-0.996-3.668-2.482-5.274-4.053c-0.888-0.871-1.931-1.641-3.03-2.23
			c-2.143-1.155-4.427-1.241-6.64-0.167c-1.194,0.576-2.284,1.365-3.415,2.07c-0.438,0.274-0.825,0.696-1.301,0.815
			c-0.354,0.086-0.883-0.119-1.18-0.371c-0.211-0.179-0.308-0.716-0.203-1.001c0.203-0.543,0.522-1.071,0.897-1.516
			c1.827-2.178,4.24-3.217,7.022-3.39c1.242-0.076,2.502,0.078,3.752,0.127c0.005-0.063,0.033-0.146,0.009-0.203
			c-1.827-3.917-3.819-7.752-7.209-10.583c-2.683-2.237-5.778-3.596-9.313-3.827c-1.184-0.075-2.365-0.22-3.55-0.337
			c-0.603-0.058-1.188-0.045-1.667,0.408c-2.186,2.048-4.925,2.982-7.712,3.813c-0.287,0.084-0.563,0.188-0.852,0.268
			c-5.614,1.453-9.3,5.052-11.474,10.322c-1.337,3.251-2.022,6.672-2.562,10.126c-0.391,2.49-0.656,5.013-1.451,7.416
			c-0.347,1.053-0.783,2.089-1.29,3.075c-1.841,3.574-6.004,4.613-9.671,1.915c-0.771-0.571-1.427-1.301-2.316-2.122
			C118.762,103.547,117.947,103.506,117.141,103.562z M111.259,177.118c0.132,0.381,0.214,0.805,0.414,1.162
			c1.52,2.703,2.266,5.625,2.573,8.695c0.212,2.139,0.539,4.271,0.749,6.412c0.245,2.515,0.399,5.041,0.621,7.557
			c0.3,3.4,0.625,6.802,0.949,10.204c0.02,0.194,0.145,0.379,0.287,0.733c1.377-0.85,2.684-1.668,4.008-2.46
			c1.341-0.796,2.699-1.565,4.055-2.338c1.345-0.758,2.818-1.285,4.194-2.168c-2.137-9.98-4.881-19.692-7.189-29.509
			c-0.046-0.197-0.247-0.356-0.363-0.516C119.42,174.909,113.181,176.242,111.259,177.118z M164.589,148.635
			c-2.628,0.738-5.317,0.607-7.983,0.484c-3.439-0.167-6.715-1.155-9.876-2.501c-2.886-1.225-5.566-2.813-8.022-4.776
			c-0.521-0.412-1.071-0.792-1.58-1.168c-0.792,0.242-0.576,0.85-0.519,1.313c0.315,2.589,0.334,5.191,0.27,7.791
			c-0.022,0.82-0.086,1.635-0.108,2.452c-0.017,0.729-0.002,1.462-0.002,2.231c3.355,1.842,6.838,3.067,10.456,3.93
			c4.682,1.117,9.424,1.169,14.163,0.5c1.368-0.189,2.805-0.303,4.09-1.039c0.436-3.063,0.346-6.089,0.238-9.333
			C165.172,148.573,164.866,148.553,164.589,148.635z M183.705,176.495c-0.08,0.736-0.215,1.226-0.176,1.696
			c0.584,6.737,0.387,13.495,0.615,20.243c0.008,0.217,0.086,0.428,0.149,0.729c1.146,0.845,2.619,0.845,3.925,1.304
			c1.239,0.445,2.498,0.849,3.625,1.224c0.661-0.368,0.563-0.842,0.561-1.264c-0.012-1.707-0.012-3.417-0.059-5.122
			c-0.125-4.267,0.506-8.427,1.691-12.515c0.063-0.211,0.068-0.434,0.145-0.938C190.895,179.708,187.488,178.008,183.705,176.495z
			 M175.906,178.229c-2.066,0.815-4.102,1.72-6.176,2.516c-2.695,1.036-5.442,1.897-8.312,2.393
			c-6.45,1.125-12.676,0.415-18.699-2.12c-2.738-1.153-5.367-2.521-7.899-4.082c-0.494-0.305-1.05-0.568-1.61-0.688
			c-0.268-0.059-0.688,0.196-0.899,0.435c-0.105,0.122,0.006,0.603,0.174,0.778c1.542,1.631,3.363,2.901,5.316,3.994
			c6.191,3.455,12.857,4.785,19.906,4.551c4.282-0.141,8.392-1.023,12.323-2.659c2.473-1.029,4.759-2.417,6.656-4.36
			c0.148-0.151,0.274-0.337,0.4-0.514c0.036-0.056,0.018-0.146,0.036-0.375C176.695,178.138,176.266,178.088,175.906,178.229z
			 M116.112,261.013c0.384-1.448,0.539-2.907,0.52-4.4c-0.039-3.116-0.024-6.228-0.373-9.339c-0.331-2.943-0.419-5.916-0.627-8.874
			c-0.035-0.482,0.144-1.06-0.619-1.43c-0.647,2.693-0.714,5.413-1.129,8.073c-0.425,2.707-0.731,5.435-1.094,8.158
			c-0.36,2.716-0.72,5.435-1.091,8.151c-0.366,2.703-0.75,5.411-1.125,8.118C113.431,267.21,115.213,264.39,116.112,261.013z"/>
		<path fill="#7B98DB" d="M149.224,102.946c-2.037,0.983-4.059,1.286-6.164,0.996c-1.173-0.16-2.331-0.424-3.497-0.631
			c-0.362-0.063-0.751-0.164-1.095-0.09c-0.325,0.067-0.713,0.277-0.88,0.541c-0.254,0.409-0.077,0.854,0.287,1.185
			c0.167,0.147,0.334,0.304,0.531,0.405c0.724,0.366,1.426,0.837,2.197,1.042c3.878,1.032,7.625,0.754,11.139-1.341
			c1.037-0.619,1.857-1.464,2.482-2.497c0.152-0.252,0.276-0.526,0.375-0.805c0.203-0.563-0.227-1.075-0.802-0.95
			c-0.286,0.063-0.56,0.181-0.842,0.275c-0.276,0.091-0.55,0.182-0.849,0.282c-1.512-0.763-2.337-2.047-2.993-3.492
			c-0.335-0.742-0.638-1.503-1.058-2.197c-0.151-0.25-0.629-0.482-0.904-0.434c-0.276,0.054-0.631,0.434-0.702,0.729
			c-0.326,1.358-0.067,2.672,0.642,3.854C147.693,100.824,148.411,101.762,149.224,102.946z"/>
		<path fill="#7B98DB" d="M184.102,99.597c-0.978-0.729-1.449-1.645-1.869-2.603c-0.299-0.675-0.623-1.345-0.998-1.98
			c-0.229-0.397-0.871-0.291-1.118,0.117c-0.454,0.765-0.427,1.604-0.188,2.378c0.266,0.836,0.694,1.636,1.131,2.402
			c0.323,0.574,0.782,1.069,1.213,1.64c-0.646,0.97-1.633,1.314-2.617,1.599c-1.37,0.393-2.762,0.584-4.172,0.111
			c-0.56-0.192-1.141-0.367-1.721-0.408c-0.404-0.026-0.886,0.101-1.227,0.314c-0.686,0.429-0.688,1.184-0.073,1.66
			c0.177,0.137,0.366,0.263,0.562,0.358c3.602,1.772,7.158,1.782,10.611-0.362c1.51-0.941,2.415-2.384,2.949-4.065
			c0.066-0.208,0.076-0.437,0.08-0.658c0.009-0.623-0.543-1.116-1.189-0.996C185.053,99.186,184.652,99.395,184.102,99.597z"/>
		<path fill="#7B98DB" d="M159.441,131.52c3.32,0.028,5.67-0.709,7.674-2.428c0.396-0.336,0.809-0.688,0.703-1.292
			c-0.076-0.429-0.797-0.682-1.543-0.518c-0.721,0.155-1.442,0.335-2.146,0.563c-4.342,1.388-8.169,0.391-11.604-2.47
			c-0.512-0.426-0.967-0.93-1.512-1.302c-0.348-0.234-0.802-0.379-1.223-0.414c-0.729-0.062-1.332,0.718-0.998,1.337
			c0.455,0.838,0.958,1.688,1.608,2.378C153.029,130.167,156.378,131.356,159.441,131.52z"/>
		<path fill="#7B98DB" d="M155.334,89.09c-0.342-1.602-1.242-2.766-2.451-3.656c-3.692-2.731-7.72-3.169-11.95-1.451
			c-1.865,0.756-3.154,2.168-3.865,4.065c-0.16,0.422-0.208,0.876,0.138,1.253c0.405,0.443,0.938,0.438,1.438,0.277
			c0.341-0.106,0.646-0.348,0.944-0.563c0.778-0.567,1.512-1.197,2.32-1.719c1.188-0.764,2.444-1.353,3.902-1.473
			c2.2-0.181,4.066,0.563,5.747,1.897c0.637,0.506,1.196,1.117,1.861,1.576c0.328,0.227,0.82,0.298,1.236,0.288
			C154.883,89.582,155.104,89.271,155.334,89.09z"/>
		<path fill="#7B98DB" d="M168.341,108.209c-0.03,0.563-0.135,0.86-0.042,1.078c0.258,0.615,0.645,1.178,0.889,1.794
			c0.242,0.612,0.472,1.258,0.551,1.907c0.3,2.542-1.141,4.318-3.684,4.583c-0.664,0.069-1.332,0.014-1.996,0.071
			c-0.178,0.015-0.445,0.225-0.481,0.379c-0.05,0.255-0.031,0.641,0.128,0.8c1.428,1.438,3.188,1.555,4.961,0.937
			c2.004-0.7,3.316-2.115,3.873-4.257c0.309-1.177,0.031-2.234-0.352-3.255C171.545,110.542,170.416,109.192,168.341,108.209z"/>
		<path fill="#7B98DB" d="M161.852,137.675c-0.188-0.79-0.762-1.037-1.496-1.002c-0.664,0.035-1.328,0.197-1.985,0.167
			c-1.343-0.066-2.627-0.41-3.778-1.144c-0.662-0.416-1.354-0.584-2.104-0.228c-0.383,0.181-0.604,0.813-0.395,1.127
			c1.963,2.884,6.688,3.614,9.526,1.464C161.729,137.979,161.773,137.81,161.852,137.675z"/>
	</g>
</g>
</svg>
