<?xml version="1.0" encoding="utf-8"?>
<!-- Generator: Adobe Illustrator 16.0.0, SVG Export Plug-In . SVG Version: 6.00 Build 0)  -->
<!DOCTYPE svg PUBLIC "-//W3C//DTD SVG 1.1//EN" "http://www.w3.org/Graphics/SVG/1.1/DTD/svg11.dtd">
<svg version="1.1" id="Layer_1" xmlns="http://www.w3.org/2000/svg" xmlns:xlink="http://www.w3.org/1999/xlink" x="0px" y="0px"
	 width="30px" height="30px" viewBox="0 0 30 30" enable-background="new 0 0 30 30" xml:space="preserve">
<g>
	<path fill-rule="evenodd" clip-rule="evenodd" fill="#0077B7" d="M1.022,15c0-3.762-0.01-7.526,0.007-11.289
		C1.033,2.684,1.431,1.84,2.384,1.33c0.401-0.215,0.845-0.3,1.281-0.3c7.556-0.012,15.112-0.015,22.671,0
		c1.027,0.001,1.889,0.425,2.344,1.4c0.179,0.381,0.286,0.836,0.287,1.258c0.017,7.542,0.018,15.084,0.006,22.625
		c-0.002,1.016-0.413,1.852-1.356,2.359c-0.4,0.215-0.844,0.299-1.28,0.299c-7.558,0.012-15.114,0.014-22.671,0
		c-1.028-0.002-1.866-0.436-2.356-1.396c-0.208-0.406-0.281-0.857-0.282-1.307C1.018,22.512,1.022,18.756,1.022,15z M16.393,12.925
		c0-0.274,0.001-0.563,0-0.851c-0.002-0.523-0.286-0.811-0.804-0.811c-1.01-0.002-2.021,0.021-3.029-0.009
		c-0.57-0.017-0.876,0.407-0.875,0.882c0.008,4.305,0.003,8.611,0.005,12.92c0,0.592,0.308,0.902,0.908,0.906
		c0.97,0.006,1.942,0.006,2.914,0c0.591-0.004,0.881-0.305,0.881-0.896c0-2.211-0.005-4.42,0.007-6.629
		c0.001-0.371,0.06-0.746,0.129-1.111c0.089-0.467,0.268-0.91,0.539-1.304c0.495-0.715,1.198-0.971,2.048-0.93
		c0.96,0.047,1.651,0.577,1.943,1.497c0.179,0.566,0.254,1.148,0.255,1.738c0.006,2.256,0.002,4.512,0.002,6.768
		c0,0.576,0.271,0.861,0.853,0.865c1.023,0.008,2.049,0.008,3.073-0.002c0.155-0.002,0.321-0.041,0.462-0.109
		c0.347-0.164,0.404-0.484,0.402-0.83c-0.011-2.311-0.003-4.621-0.034-6.93c-0.013-0.83-0.085-1.662-0.185-2.486
		c-0.11-0.909-0.409-1.763-0.911-2.542c-0.714-1.106-1.753-1.699-3.019-1.928c-0.854-0.154-1.721-0.142-2.576,0.003
		c-0.785,0.133-1.524,0.399-2.132,0.935C16.948,12.336,16.68,12.636,16.393,12.925z M5.024,18.604c0,2.156,0,4.313,0.001,6.469
		c0,0.531,0.265,0.861,0.786,0.875c1.032,0.025,2.065,0.025,3.097,0.004c0.479-0.01,0.75-0.309,0.801-0.783
		c0.012-0.098,0.01-0.199,0.01-0.299c0-4.18,0-8.361,0-12.544c0-0.1,0.001-0.2-0.011-0.298c-0.058-0.505-0.345-0.763-0.853-0.763
		c-0.978-0.002-1.957-0.001-2.936-0.001c-0.617,0.001-0.894,0.279-0.895,0.896C5.024,14.307,5.024,16.455,5.024,18.604z
		 M4.345,7.075c0.002,1.644,1.356,3.002,3.005,3.018c1.637,0.015,3.029-1.37,3.03-3.018c0.002-1.656-1.361-3.022-3.018-3.026
		C5.711,4.044,4.342,5.418,4.345,7.075z"/>
	<path fill-rule="evenodd" clip-rule="evenodd" fill="#FFFFFF" d="M16.393,12.925c0.287-0.289,0.556-0.588,0.856-0.854
		c0.607-0.536,1.347-0.802,2.132-0.935c0.855-0.145,1.722-0.157,2.576-0.003c1.266,0.229,2.305,0.821,3.019,1.928
		c0.502,0.779,0.801,1.633,0.911,2.542c0.1,0.824,0.172,1.656,0.185,2.486c0.031,2.309,0.023,4.619,0.034,6.93
		c0.002,0.346-0.056,0.666-0.402,0.83c-0.141,0.068-0.307,0.107-0.462,0.109c-1.024,0.01-2.05,0.01-3.073,0.002
		c-0.581-0.004-0.853-0.289-0.853-0.865c0-2.256,0.004-4.512-0.002-6.768c-0.001-0.59-0.076-1.172-0.255-1.738
		c-0.292-0.92-0.983-1.45-1.943-1.497c-0.85-0.041-1.553,0.214-2.048,0.93c-0.271,0.394-0.45,0.837-0.539,1.304
		c-0.069,0.365-0.128,0.74-0.129,1.111c-0.012,2.209-0.007,4.418-0.007,6.629c0,0.592-0.29,0.893-0.881,0.896
		c-0.972,0.006-1.943,0.006-2.914,0c-0.6-0.004-0.908-0.314-0.908-0.906c-0.002-4.309,0.002-8.615-0.005-12.92
		c-0.001-0.475,0.305-0.899,0.875-0.882c1.008,0.03,2.019,0.007,3.029,0.009c0.518,0,0.802,0.288,0.804,0.811
		C16.394,12.362,16.393,12.65,16.393,12.925z"/>
	<path fill-rule="evenodd" clip-rule="evenodd" fill="#FFFFFF" d="M5.024,18.604c0-2.148,0-4.297,0-6.445
		c0.001-0.617,0.278-0.896,0.895-0.896c0.979,0,1.958-0.001,2.936,0.001c0.508,0,0.795,0.258,0.853,0.763
		c0.012,0.098,0.011,0.198,0.011,0.298c0,4.183,0,8.365,0,12.544c0,0.1,0.002,0.201-0.01,0.299
		c-0.052,0.475-0.323,0.773-0.801,0.783c-1.032,0.021-2.064,0.021-3.097-0.004c-0.521-0.014-0.786-0.344-0.786-0.875
		C5.024,22.916,5.024,20.76,5.024,18.604z"/>
	<path fill-rule="evenodd" clip-rule="evenodd" fill="#FFFFFF" d="M4.345,7.075C4.342,5.418,5.711,4.044,7.363,4.049
		c1.657,0.003,3.02,1.37,3.018,3.026c-0.001,1.648-1.394,3.033-3.03,3.018C5.701,10.077,4.347,8.718,4.345,7.075z"/>
</g>
</svg>
