<?xml version="1.0" encoding="utf-8"?>
<!-- Generator: Adobe Illustrator 16.0.0, SVG Export Plug-In . SVG Version: 6.00 Build 0)  -->
<!DOCTYPE svg PUBLIC "-//W3C//DTD SVG 1.1//EN" "http://www.w3.org/Graphics/SVG/1.1/DTD/svg11.dtd">
<svg version="1.1" id="Layer_1" xmlns="http://www.w3.org/2000/svg" xmlns:xlink="http://www.w3.org/1999/xlink" x="0px" y="0px"
	 width="30px" height="30px" viewBox="0 0 30 30" enable-background="new 0 0 30 30" xml:space="preserve">
<path fill="#1877F2" d="M0.502,15.012c0-3.5-0.001-7,0-10.5c0-2.332,1.679-4.011,4.011-4.011c7.014-0.001,14.029-0.001,21.043,0
	c2.311,0,4.006,1.661,4.01,3.972c0.011,7.044,0.01,14.088,0,21.132c-0.003,2.259-1.685,3.943-3.934,3.961
	c-1.884,0.016-3.768-0.005-5.649,0.011c-0.396,0.003-0.547-0.108-0.545-0.527c0.017-3.129,0.018-6.259,0.011-9.387
	c-0.002-0.377,0.134-0.488,0.494-0.481c0.964,0.018,1.928,0.009,2.892,0.004c0.59-0.003,0.803-0.193,0.874-0.774
	c0.117-0.972,0.23-1.942,0.346-2.914c0.077-0.65-0.18-0.956-0.834-0.961c-1.099-0.008-2.195-0.014-3.293,0.002
	c-0.369,0.006-0.495-0.128-0.487-0.492c0.019-0.86-0.006-1.721,0.012-2.58c0.022-1.167,0.586-1.752,1.745-1.807
	c0.621-0.03,1.245-0.009,1.868-0.022c0.641-0.014,0.853-0.229,0.856-0.865c0.005-0.845,0-1.69-0.001-2.536
	c0-0.395-0.172-0.7-0.58-0.702c-1.318-0.003-2.657-0.103-3.952,0.081c-2.741,0.389-4.392,2.366-4.494,5.188
	c-0.039,1.082-0.024,2.166-0.008,3.248c0.005,0.372-0.127,0.498-0.492,0.486c-0.651-0.019-1.305-0.009-1.957-0.003
	c-0.654,0.006-0.906,0.238-0.907,0.879c0,1.023,0.019,2.045,0.043,3.068c0.011,0.478,0.24,0.693,0.729,0.7
	c0.697,0.012,1.394,0.018,2.091-0.001c0.356-0.01,0.502,0.099,0.501,0.477c-0.014,3.159-0.016,6.317-0.01,9.477
	c0,0.33-0.124,0.439-0.446,0.439c-3.411-0.01-6.821,0.019-10.231-0.021c-2.035-0.023-3.699-1.779-3.703-3.818
	C0.496,22.159,0.502,18.586,0.502,15.012z"/>
</svg>
