<?xml version="1.0" encoding="utf-8"?>
<!-- Generator: Adobe Illustrator 16.0.0, SVG Export Plug-In . SVG Version: 6.00 Build 0)  -->
<!DOCTYPE svg PUBLIC "-//W3C//DTD SVG 1.1//EN" "http://www.w3.org/Graphics/SVG/1.1/DTD/svg11.dtd">
<svg version="1.1" id="Layer_1" xmlns="http://www.w3.org/2000/svg" xmlns:xlink="http://www.w3.org/1999/xlink" x="0px" y="0px"
	 width="80px" height="80px" viewBox="0 0 80 80" enable-background="new 0 0 80 80" xml:space="preserve">
<polygon fill="#E67278" points="39.75,5.021 51.319,28.461 77.186,32.219 58.468,50.465 62.887,76.228 39.75,64.063 16.615,76.228 
	21.033,50.465 2.315,32.219 28.182,28.461 "/>
<g id="XMLID_7160_">
	<path id="XMLID_7169_" fill="#B83345" d="M25.969,42.844h0.003c2.941,0,5.707-1.148,7.79-3.233
		c2.085-2.085,3.233-4.853,3.231-7.794c-0.003-6.077-4.949-11.021-11.025-11.021c-2.942,0-5.709,1.149-7.793,3.234
		s-3.232,4.853-3.231,7.795C14.947,37.901,19.893,42.844,25.969,42.844z M20.238,26.093c1.533-1.535,3.569-2.379,5.73-2.379
		c4.468,0,8.106,3.636,8.108,8.104c0,2.161-0.844,4.196-2.379,5.731c-1.531,1.533-3.565,2.377-5.726,2.377h-0.003
		c-4.468,0-8.105-3.635-8.107-8.102C17.862,29.663,18.706,27.627,20.238,26.093z"/>
	<path id="XMLID_7166_" fill="#B83345" d="M52.443,42.844h0.002c2.941,0,5.708-1.148,7.79-3.233
		c2.085-2.085,3.233-4.853,3.232-7.794c-0.004-6.077-4.948-11.021-11.024-11.021c-2.942,0-5.711,1.149-7.795,3.234
		c-2.083,2.085-3.229,4.853-3.229,7.795C41.421,37.901,46.366,42.844,52.443,42.844z M46.713,26.093
		c1.533-1.535,3.567-2.379,5.73-2.379c4.467,0,8.105,3.636,8.106,8.104c0,2.161-0.844,4.196-2.378,5.731
		c-1.531,1.533-3.565,2.377-5.727,2.377h-0.002c-4.47,0-8.105-3.635-8.108-8.102C44.335,29.663,45.18,27.627,46.713,26.093z"/>
	<path id="XMLID_7161_" fill="#B83345" d="M66.406,58.306c0.013-0.394,0.25-9.702-5.604-15.064
		c-0.522-0.479-1.313-0.513-1.874-0.082c-0.052,0.041-4.155,3.118-8.86,1.916c-0.337-2.611-2.492-3.382-3.192-3.562
		c-2.103-0.542-4.961,0.229-6.353,2.753c-0.117,0.212-0.34,0.345-0.57,0.347c-0.246-0.001-0.481-0.133-0.598-0.336
		c-1.072-1.861-2.958-2.972-5.049-2.972c-0.472,0-0.932,0.059-1.365,0.174c-0.638,0.171-2.508,0.859-3.04,3.053
		c-2.451,0.979-6.312,1.646-10.004-1.36c-0.55-0.448-1.342-0.435-1.877,0.029c-0.239,0.208-5.875,5.218-6.016,15.04
		c-0.006,0.39,0.146,0.767,0.42,1.045c0.274,0.278,0.647,0.435,1.039,0.435l0,0l25.013-0.006c0.266,0,0.512-0.075,0.727-0.199
		c0.222,0.129,0.473,0.205,0.734,0.205l0,0l25.014-0.006C65.736,59.715,66.38,59.091,66.406,58.306z M14.99,56.803
		c0.447-5.564,2.865-9.071,4.15-10.569c3.82,2.538,7.837,2.355,10.943,1.352c1.046,3.068,4.384,6.403,6.834,8.543
		c0.022,0.239,0.042,0.467,0.055,0.671L14.99,56.803z M31.48,45.785c0-1.759,1.037-2.405,1.906-2.638
		c0.288-0.077,0.597-0.116,0.918-0.116c1.464,0,2.793,0.787,3.552,2.107c0.425,0.738,1.225,1.198,2.099,1.2
		c0.865-0.007,1.661-0.481,2.079-1.238c0.967-1.754,2.951-2.291,4.408-1.915c0.889,0.229,1.947,0.865,1.947,2.6
		c0,2.811-4.162,7.271-8.452,10.609C36.57,53.749,31.48,48.929,31.48,45.785z M42.177,56.803c2.367-1.977,6.153-5.508,7.471-8.825
		c3.931,0.894,7.663-0.38,9.979-1.774c2.967,3.358,3.66,8.221,3.818,10.596L42.177,56.803z"/>
</g>
</svg>
