<?xml version="1.0" encoding="utf-8"?>
<!-- Generator: Adobe Illustrator 16.0.0, SVG Export Plug-In . SVG Version: 6.00 Build 0)  -->
<!DOCTYPE svg PUBLIC "-//W3C//DTD SVG 1.1//EN" "http://www.w3.org/Graphics/SVG/1.1/DTD/svg11.dtd">
<svg version="1.1" id="Layer_1" xmlns="http://www.w3.org/2000/svg" xmlns:xlink="http://www.w3.org/1999/xlink" x="0px" y="0px"
	 width="80px" height="80px" viewBox="0 0 80 80" enable-background="new 0 0 80 80" xml:space="preserve">
<polygon fill="#C5EFF2" points="40,4.397 51.568,27.837 77.436,31.595 58.718,49.841 63.137,75.604 40,63.439 16.865,75.604 
	21.283,49.841 2.565,31.595 28.432,27.837 "/>
<g id="XMLID_7172_">
	<path id="XMLID_7188_" fill="#7B98DB" d="M27.65,62.941c-1.495-0.646-2.693-1.321-3.433-1.773
		c-0.401-0.246-0.712-0.452-0.918-0.593c-0.102-0.07-0.179-0.125-0.251-0.179l-0.042-0.029c-0.653-0.492-1.561-0.375-2.067,0.265
		c-0.499,0.63-0.403,1.56,0.215,2.075c5.575,4.63,10.667,7.238,15.566,7.973c1.003,0.149,1.999,0.225,2.996,0.225
		c1.412,0,2.829-0.148,4.277-0.452c1.926-0.401,3.887-1.071,5.973-2.041l1.177,1.7c0.314,0.453,0.853,0.697,1.398,0.634
		c0.548-0.063,1.016-0.423,1.217-0.937l3.239-8.229c0.17-0.432,0.128-0.923-0.108-1.313c-0.236-0.396-0.652-0.664-1.111-0.717
		l-8.832-0.996c-0.568-0.066-1.112,0.192-1.422,0.672c-0.307,0.473-0.315,1.092-0.026,1.574l0.92,1.539
		c-2.388,1.436-4.955,2.294-7.646,2.563C34.33,65.338,30.271,64.077,27.65,62.941z M48.295,63.477
		c0.438-0.289,0.568-0.873,0.301-1.322l-0.92-1.536l7.262,0.817l-2.686,6.822L51.105,66.6c-0.278-0.398-0.81-0.537-1.244-0.322
		c-2.228,1.098-4.276,1.832-6.272,2.248c-2.237,0.47-4.391,0.537-6.578,0.209c-2.917-0.438-5.935-1.613-9.124-3.566
		c2.816,1.096,6.764,2.118,11.074,1.691C42.275,66.531,45.415,65.395,48.295,63.477z"/>
	<path id="XMLID_7185_" fill="#7B98DB" d="M53.416,19.77c0.4,0.245,0.712,0.45,0.918,0.592c0.102,0.069,0.178,0.123,0.241,0.169
		l0.052,0.039c0.652,0.491,1.563,0.375,2.068-0.265c0.507-0.64,0.412-1.551-0.215-2.075c-5.576-4.63-10.668-7.238-15.567-7.972
		c-2.421-0.363-4.8-0.289-7.271,0.229c-1.926,0.402-3.888,1.072-5.973,2.042l-1.177-1.701c-0.314-0.455-0.852-0.699-1.397-0.633
		c-0.548,0.062-1.016,0.421-1.218,0.936l-3.239,8.229c-0.17,0.43-0.128,0.923,0.109,1.313c0.238,0.397,0.654,0.665,1.112,0.716
		l8.833,0.998c0.057,0.007,0.114,0.01,0.169,0.01c0.504,0,0.974-0.252,1.25-0.684c0.305-0.473,0.316-1.091,0.028-1.575l-0.92-1.539
		c2.388-1.435,4.955-2.295,7.646-2.561c4.438-0.439,8.495,0.823,11.118,1.958C51.479,18.642,52.676,19.317,53.416,19.77z
		 M38.672,14.078c-3.315,0.327-6.455,1.465-9.335,3.381c-0.437,0.291-0.568,0.874-0.299,1.324l0.919,1.538L22.696,19.5l2.685-6.822
		l1.146,1.658c0.278,0.401,0.808,0.538,1.244,0.323c2.225-1.096,4.276-1.832,6.272-2.248c2.24-0.468,4.39-0.537,6.578-0.208
		c2.917,0.438,5.936,1.614,9.124,3.567C46.93,14.678,42.98,13.653,38.672,14.078z"/>
	<path id="XMLID_7182_" fill="#7B98DB" d="M21.107,42.966h0.003c2.182,0,4.235-0.853,5.781-2.399
		c1.547-1.546,2.399-3.602,2.398-5.782c-0.001-4.51-3.673-8.179-8.182-8.179c-2.183,0-4.238,0.853-5.783,2.399
		c-1.546,1.548-2.398,3.602-2.398,5.785C12.928,39.297,16.599,42.966,21.107,42.966z M16.855,30.534
		c1.137-1.138,2.647-1.765,4.252-1.766c3.316,0,6.015,2.699,6.017,6.015c0,1.604-0.627,3.114-1.765,4.253
		c-1.137,1.138-2.646,1.765-4.25,1.765h-0.003c-3.315,0-6.015-2.698-6.017-6.013C15.091,33.183,15.717,31.673,16.855,30.534z"/>
	<path id="XMLID_7179_" fill="#7B98DB" d="M31.471,54.439c0.009-0.293,0.185-7.199-4.159-11.181
		c-0.388-0.354-0.975-0.381-1.391-0.062c-0.048,0.037-4.853,3.646-9.319,0.01c-0.408-0.332-0.996-0.323-1.394,0.021
		c-0.177,0.153-4.36,3.871-4.463,11.16c-0.005,0.291,0.107,0.568,0.311,0.774c0.204,0.207,0.481,0.323,0.771,0.323l0,0l18.563-0.004
		C30.972,55.486,31.451,55.021,31.471,54.439z M12.959,53.324c0.332-4.129,2.127-6.73,3.081-7.844
		c3.905,2.595,8.095,1.363,10.399-0.021c2.202,2.492,2.716,6.102,2.835,7.861L12.959,53.324z"/>
	<path id="XMLID_7176_" fill="#7B98DB" d="M51.525,29.003c-1.547,1.548-2.397,3.602-2.397,5.785
		c0.002,4.509,3.672,8.177,8.183,8.177h0.002c2.184,0,4.235-0.854,5.779-2.398c1.549-1.547,2.4-3.603,2.399-5.783
		c-0.003-4.51-3.673-8.179-8.183-8.179C55.126,26.604,53.072,27.457,51.525,29.003z M63.326,34.783c0,1.604-0.626,3.114-1.766,4.253
		c-1.138,1.138-2.646,1.765-4.25,1.765l0,0c-3.316,0-6.018-2.698-6.019-6.013c0-1.605,0.626-3.115,1.765-4.254
		c1.139-1.138,2.647-1.765,4.254-1.766C60.625,28.769,63.324,31.467,63.326,34.783z"/>
	<path id="XMLID_7173_" fill="#7B98DB" d="M63.514,43.262c-0.388-0.354-0.975-0.382-1.392-0.062
		c-0.048,0.036-4.853,3.646-9.317,0.009c-0.41-0.332-0.998-0.322-1.395,0.021c-0.18,0.153-4.361,3.871-4.465,11.162
		c-0.004,0.289,0.107,0.566,0.312,0.772c0.203,0.207,0.481,0.321,0.771,0.321l0,0l18.563-0.002c0.583,0,1.062-0.465,1.08-1.049
		C67.682,54.146,67.857,47.24,63.514,43.262z M49.161,53.324c0.331-4.129,2.126-6.73,3.08-7.844
		c3.905,2.595,8.096,1.363,10.399-0.021c2.199,2.492,2.717,6.102,2.834,7.861L49.161,53.324z"/>
</g>
</svg>
