<?xml version="1.0" encoding="utf-8"?>
<!-- Generator: Adobe Illustrator 16.0.0, SVG Export Plug-In . SVG Version: 6.00 Build 0)  -->
<!DOCTYPE svg PUBLIC "-//W3C//DTD SVG 1.1//EN" "http://www.w3.org/Graphics/SVG/1.1/DTD/svg11.dtd">
<svg version="1.1" id="Layer_1" xmlns="http://www.w3.org/2000/svg" xmlns:xlink="http://www.w3.org/1999/xlink" x="0px" y="0px"
	 width="80px" height="80px" viewBox="0 0 80 80" enable-background="new 0 0 80 80" xml:space="preserve">
<polygon fill="#C5EFF2" points="39.75,5.021 51.319,28.461 77.186,32.219 58.468,50.465 62.887,76.228 39.75,64.063 16.615,76.228 
	21.033,50.465 2.315,32.219 28.182,28.461 "/>
<g id="XMLID_7080_">
	<path id="XMLID_7086_" fill="#7B98DB" d="M26.627,60.207c-0.003,0.293,0.111,0.578,0.316,0.787c0.207,0.209,0.49,0.326,0.783,0.326
		l24.345-0.004c0.594,0,1.079-0.471,1.099-1.063c0.005-0.154,0.044-1.709-0.281-3.846l17.774-0.004c0.594,0,1.08-0.471,1.1-1.064
		c0.013-0.377,0.239-9.293-5.352-14.414c-0.393-0.361-0.988-0.386-1.412-0.061c-0.065,0.05-6.566,4.933-12.617,0.005
		c-0.417-0.337-1.013-0.328-1.417,0.023c-0.129,0.112-1.906,1.694-3.451,4.749c-0.357-0.154-0.781-0.111-1.104,0.133
		c-0.267,0.203-6.6,4.912-12.621,0.008c-0.294-0.24-0.681-0.301-1.025-0.191c-0.777-1.67-1.851-3.303-3.339-4.666
		c-0.394-0.361-0.989-0.386-1.412-0.061c-0.065,0.05-6.567,4.933-12.618,0.005c-0.417-0.337-1.013-0.328-1.417,0.023
		c-0.229,0.199-5.61,4.981-5.744,14.399c-0.005,0.295,0.109,0.578,0.316,0.789c0.207,0.209,0.488,0.326,0.783,0.326l17.664-0.002
		C26.788,57.578,26.647,58.838,26.627,60.207z M51.8,43.186c5.752,4.014,11.622,1.225,13.728-0.043
		c3.271,3.512,3.898,8.816,4.014,11.063L52.45,54.209c-0.558-2.248-1.541-4.77-3.269-6.912C50.095,45.301,51.15,43.922,51.8,43.186z
		 M33.207,48.098c5.752,4.014,11.621,1.227,13.727-0.041c3.271,3.51,3.898,8.816,4.015,11.063l-22.077,0.004
		C29.259,53.205,31.971,49.498,33.207,48.098z M10.476,54.209c0.389-5.914,3.1-9.623,4.336-11.023
		c5.753,4.014,11.623,1.225,13.729-0.043c1.128,1.213,1.936,2.637,2.523,4.078c-1.094,1.352-2.615,3.678-3.563,6.986L10.476,54.209z
		"/>
	<path id="XMLID_7081_" fill="#7B98DB" d="M11.097,29.58c0.002,5.737,4.671,10.403,10.409,10.403h0.002
		c2.777,0,5.389-1.084,7.355-3.053c0.272-0.272,0.524-0.56,0.761-0.855c0.769,4.986,5.078,8.821,10.276,8.821h0.002
		c2.776,0,5.39-1.084,7.355-3.053c1.641-1.642,2.656-3.733,2.952-5.991c1.902,2.504,4.902,4.131,8.283,4.131h0.002
		c2.776,0,5.391-1.084,7.356-3.053c1.968-1.969,3.052-4.582,3.051-7.358c-0.003-5.738-4.674-10.406-10.41-10.406
		c-2.776,0-5.391,1.085-7.358,3.054c-1.64,1.641-2.655,3.733-2.95,5.991C46.28,25.707,43.28,24.08,39.9,24.08
		c-2.778,0-5.391,1.085-7.359,3.054c-0.271,0.272-0.522,0.559-0.761,0.855c-0.77-4.986-5.077-8.821-10.275-8.821
		c-2.777,0-5.391,1.085-7.358,3.054C12.179,24.189,11.096,26.803,11.097,29.58z M52.688,23.775c1.554-1.553,3.614-2.409,5.805-2.409
		c4.524,0,8.208,3.682,8.211,8.208c0,2.188-0.855,4.25-2.408,5.803c-1.552,1.554-3.611,2.409-5.801,2.409h-0.002
		c-4.525,0-8.209-3.681-8.211-8.206C50.282,27.39,51.137,25.328,52.688,23.775z M34.096,28.688c1.553-1.553,3.614-2.409,5.804-2.409
		c4.526,0,8.208,3.682,8.21,8.208c0.001,2.188-0.854,4.249-2.408,5.803c-1.551,1.553-3.61,2.408-5.8,2.408H39.9
		c-4.525,0-8.209-3.681-8.21-8.206C31.689,32.302,32.543,30.241,34.096,28.688z M21.505,21.366c4.524,0,8.208,3.682,8.211,8.208
		c0,2.188-0.854,4.25-2.408,5.803c-1.552,1.554-3.612,2.409-5.8,2.409h-0.002c-4.525,0-8.208-3.681-8.211-8.206
		c0-2.189,0.855-4.251,2.407-5.804C17.253,22.222,19.316,21.366,21.505,21.366z"/>
</g>
</svg>
