<?xml version="1.0" encoding="utf-8"?>
<!-- Generator: Adobe Illustrator 16.0.0, SVG Export Plug-In . SVG Version: 6.00 Build 0)  -->
<!DOCTYPE svg PUBLIC "-//W3C//DTD SVG 1.1//EN" "http://www.w3.org/Graphics/SVG/1.1/DTD/svg11.dtd">
<svg version="1.1" id="Layer_1" xmlns="http://www.w3.org/2000/svg" xmlns:xlink="http://www.w3.org/1999/xlink" x="0px" y="0px"
	 width="300px" height="300px" viewBox="0 -75 300 300" enable-background="new 0 -75 300 300" xml:space="preserve">
<ellipse fill="#C5EFF2" cx="149.766" cy="76.573" rx="117.794" ry="119.068"/>
<g>
	<path fill="#FFFFFF" d="M154.034,73.924c1.342,0.828,2.264,2.139,3.12,3.478c1.258,1.978,2.192,4.122,2.827,6.377
		c0.646,2.302,1.235,4.627,1.717,6.971c1.293,6.317,2.533,12.643,3.76,18.973c1.254,6.463,2.468,12.929,3.702,19.397
		c0.977,5.1,1.961,10.192,2.938,15.286c0.021,0.127-0.022,0.261-0.05,0.545c-0.349,0.236-0.754,0.569-1.209,0.8
		c-7.055,3.64-14.354,6.695-21.918,9.105c-1.331,0.422-2.656,0.86-3.994,1.271c-0.307,0.095-0.63,0.116-1.022,0.183
		c-0.172-0.849-0.389-1.618-0.48-2.399c-0.335-2.908-0.625-5.822-0.949-8.73c-0.331-2.976-0.685-5.95-1.022-8.93
		c-0.214-1.917-0.402-3.838-0.619-5.753c-0.188-1.655-0.401-3.309-0.606-4.958c-0.496-3.962-1.002-7.92-1.494-11.886
		c-0.313-2.504-0.585-5.017-0.912-7.522c-0.211-1.592-0.618-3.127-1.461-4.524c-0.476-0.791-1.174-1.276-2.011-1.557
		c-0.86-0.278-1.709-0.209-2.549,0.46c0.145,0.205,0.257,0.433,0.435,0.578c0.203,0.164,0.467,0.252,0.702,0.371
		c2.228,1.138,1.894,0.854,2.361,3.301c0.287,1.498,0.374,3.033,0.514,4.564c0.309,3.242,0.567,6.493,0.896,9.736
		c0.316,3.112,0.717,6.212,1.059,9.327c0.476,4.303,0.922,8.604,1.394,12.908c0.162,1.447,0.36,2.904,0.533,4.355
		c0.378,3.176,0.755,6.347,1.118,9.521c0.067,0.591,0.06,1.185,0.08,1.643c-0.393,0.663-0.945,0.721-1.451,0.861
		c-3.786,1.047-7.626,1.854-11.487,2.56c-4.251,0.775-8.535,1.329-12.842,1.736c-5.777,0.544-11.561,0.83-17.355,0.696
		c-3.459-0.082-6.914-0.361-10.363-0.65c-2.981-0.249-5.96-0.571-8.921-0.979c-2.568-0.354-5.115-0.854-7.663-1.337
		c-1.76-0.333-3.511-0.74-5.263-1.14c-0.57-0.132-1.125-0.344-1.694-0.521c-0.039-0.356-0.111-0.619-0.085-0.872
		c0.224-2.25,0.482-4.5,0.693-6.749c0.199-2.12,0.344-4.241,0.526-6.366c0.202-2.319,0.418-4.639,0.62-6.961
		c0.18-2.057,0.386-4.108,0.522-6.166c0.193-2.859,0.316-5.717,0.492-8.577c0.172-2.791,0.378-5.576,0.567-8.36
		c0.073-1.069,0.182-2.128,0.205-3.193c0.045-2.39,0.161-4.783,0.078-7.182c-0.07-1.935-0.648-3.687-1.818-5.189
		c-1.984-2.538-4.61-4.382-6.959-6.383c-0.681,0.245-0.708,0.607-0.574,1.031c0.313,0.97,0.767,1.843,1.492,2.569
		c0.615,0.608,1.183,1.271,1.837,1.838c2.76,2.387,3.595,5.518,3.391,8.995c-0.277,4.717-0.659,9.427-0.969,14.144
		c-0.194,2.993-0.298,5.989-0.5,8.978c-0.153,2.256-0.412,4.506-0.606,6.757c-0.192,2.189-0.35,4.382-0.562,6.568
		c-0.381,3.903-0.792,7.808-1.186,11.718c-0.058,0.596-0.06,1.192-0.128,1.791c-0.026,0.239-0.143,0.474-0.261,0.851
		c-5.412-1.441-10.623-3.166-15.828-5.19c0-0.387-0.036-0.705,0.007-1.016c0.573-4.418,1.192-8.832,1.726-13.255
		c0.457-3.764,0.865-7.534,1.217-11.309c0.249-2.65,0.298-5.32,0.569-7.967c0.44-4.255,0.319-8.519,0.397-12.782
		c0.067-3.59,0.119-7.196,0.412-10.771c0.431-5.22,1.512-10.29,4.352-14.809c1.996-3.175,4.539-5.727,8.041-7.229
		c1.917-0.824,3.955-1.14,5.97-1.537c0.805-0.158,1.378,0.13,1.929,0.73c1.49,1.612,3,3.21,4.567,4.748
		c3.595,3.528,7.601,6.464,12.301,8.391c5.896,2.421,11.778,2.438,17.687,0.053c4.447-1.792,8.323-4.456,11.943-7.54
		c4.163-3.542,8.073-7.356,11.787-11.362c0.271-0.29,0.586-0.538,0.949-0.87c0.489,0.175,0.997,0.311,1.467,0.528
		c3.167,1.488,6.54,2.218,9.957,2.841c3.073,0.549,6.176,0.999,9.128,2.104c0.935,0.348,1.84,0.736,2.815,1.413
		c-0.568,0.352-0.984,0.642-1.426,0.886c-7.856,4.321-12.834,10.82-14.864,19.563c-0.047,0.197-0.124,0.384-0.155,0.584
		c-0.063,0.375,0.089,0.658,0.461,0.761c0.367,0.1,0.666-0.089,0.825-0.402c0.212-0.415,0.376-0.853,0.534-1.29
		c2.996-8.355,8.573-14.442,16.354-18.591C153.8,73.926,153.876,73.94,154.034,73.924z"/>
	<path fill="#FFFFFF" d="M124.884,14.922c-1.24,1.704-2.311,3.471-2.96,5.45c-0.266,0.816-0.427,1.668-0.632,2.507
		c-0.435,1.767-0.17,3.436,0.743,5.033c-1.004,4.104-1.216,8.269-0.969,12.476c0.15,2.592,0.167,5.188,0.248,7.788
		c0.029,0.93,0.049,1.861,0.098,2.791c0.112,1.997,0.233,3.99,0.358,5.983c0.04,0.667,0.109,1.328,0.17,1.99
		c0.069,0.768,0.402,1.398,0.98,1.908c0.899,0.792,1.8,1.588,2.686,2.391c0.288,0.258,0.546,0.544,0.895,0.895
		c-1.302,1.353-2.49,2.7-3.791,3.93c-3.104,2.925-6.194,5.869-9.41,8.661c-3.236,2.806-6.817,5.104-10.88,6.585
		c-4.986,1.821-9.917,1.596-14.805-0.325c-3.569-1.406-6.743-3.492-9.67-5.928c-2.099-1.746-4.077-3.634-6.104-5.465
		c-0.192-0.173-0.335-0.396-0.596-0.71c0.391-0.232,0.686-0.485,1.029-0.592c5.321-1.658,9.614-4.787,13.104-9.083
		c0.201-0.248,0.44-0.472,0.807-0.857c0.162,0.455,0.32,0.73,0.345,1.016c0.132,1.459,0.268,2.919,0.331,4.379
		c0.08,1.856-1.271,3.775-3.115,4.475c-0.618,0.239-1.283,0.367-1.893,0.621c-0.167,0.069-0.28,0.42-0.297,0.651
		c-0.009,0.126,0.214,0.346,0.371,0.389c0.313,0.079,0.659,0.132,0.979,0.087c2.456-0.331,4.39-1.508,5.68-3.639
		c0.566-0.93,0.76-1.969,0.652-3.07c-0.403-4.046-0.662-8.095-0.627-12.165c0.022-2.526,0-5.06,0.008-7.593
		c0.006-0.591,0.062-1.179,0.092-1.788c1.132-0.525,2.282-0.427,3.384-0.508c4.585-0.314,8.884-1.633,12.978-3.665
		c4.445-2.206,8.509-4.972,11.96-8.575c0.721-0.747,1.545-1.444,1.988-2.605c-0.333-0.085-0.609-0.255-0.783-0.181
		c-0.604,0.267-1.205,0.568-1.746,0.939c-1.818,1.241-3.604,2.52-5.41,3.775c-2.685,1.863-5.444,3.589-8.44,4.937
		c-3.189,1.431-6.521,2.315-9.96,2.778c-1.443,0.191-2.93,0.091-4.393,0.044c-0.434-0.016-0.891-0.253-1.283-0.477
		c-1.28-0.733-2.414-1.663-3.389-2.773c-4.153-4.712-7.935-9.697-10.747-15.348c-2.223-4.47-3.518-9.178-3.419-14.231
		c0.061-3.205,0.399-6.38,0.679-9.563c0.312-3.583,0.594-7.167,0.192-10.762c-0.117-1.052-0.286-2.091-0.416-3.017
		c0.214-0.233,0.282-0.385,0.389-0.42c3.236-1.069,5.638-3.216,7.586-5.922c1.167-1.625,2.221-3.325,3.376-4.954
		c1.003-1.412,2-2.837,3.146-4.129c1.523-1.708,3.321-3.033,5.645-3.576c1.442-0.333,2.791-0.181,4.093,0.382
		c1.214,0.524,2.368,1.206,3.542,1.828c0.646,0.342,1.266,0.736,1.92,1.063c3.704,1.83,7.2,1.464,10.49-1.018
		c0.42-0.32,0.854-0.613,1.353-0.978c0.224,0.218,0.467,0.357,0.567,0.568c1.073,2.333,2.743,4.24,4.389,6.163
		c0.955,1.112,1.926,2.21,2.841,3.355c1.896,2.369,2.793,5.102,2.938,8.119c0.118,2.479-0.207,4.908-0.638,7.341
		c-0.585,3.274-1.127,6.558-1.665,9.836c-0.196,1.197-0.114,2.395,0.202,3.569c0.254,0.957,0.843,1.633,1.778,2.021
		c0.646,0.271,1.261,0.302,1.934,0.061c1.394-0.494,2.411-1.458,3.137-2.67c1.055-1.767,1.974-3.619,2.938-5.442
		c0.215-0.406,0.385-0.838,0.573-1.254c1.109,0.394,2.08,1.154,2.438,1.89c0.488,0.995,0.251,2.375-0.677,3.316
		c-0.508,0.515-1.146,0.899-1.724,1.347c-0.629,0.489-1.28,0.954-1.868,1.489c-0.13,0.116-0.104,0.494-0.034,0.716
		c0.045,0.131,0.314,0.208,0.495,0.264c0.118,0.038,0.263,0.002,0.394-0.02c2.223-0.403,3.954-1.572,5.165-3.456
		c1.276-1.977,1.035-4.1-0.573-5.828c-0.412-0.438-0.854-0.854-1.206-1.334c-0.582-0.794-0.441-1.643,0.297-2.312
		c0.612-0.554,1.364-0.806,2.145-1.018c0.491-0.13,1-0.244,1.289-0.783c-1.158-0.404-1.158-0.404-4.306,0.271
		c-0.487-1.357,0.497-2.583,0.188-3.884c1.986-1.181,3.839-1.025,5.629-0.058c1.57,0.849,2.682,2.153,3.331,3.848
		c0.809,2.116,0.916,4.233,0.404,6.457c-1.321,5.732-4.842,9.522-10.195,11.682c-1.47,0.594-3.049,0.923-4.584,1.35
		c-0.577,0.162-1.171,0.235-1.752,0.381c-1.139,0.283-1.273,0.787-0.506,1.803C124.831,14.591,124.826,14.669,124.884,14.922z
		 M109.57-20.176c-4.569-0.026-7.068,1.28-8.893,3.827c-0.451,0.629-0.704,1.42-0.95,2.169c-0.078,0.237,0.079,0.7,0.284,0.854
		c0.339,0.251,0.788,0.132,1.074-0.197c0.306-0.348,0.531-0.766,0.834-1.114c0.605-0.702,1.167-1.467,1.878-2.053
		c2.85-2.354,6.021-1.559,7.933,0.358c0.702,0.7,1.25,1.548,1.848,2.344c0.322,0.421,0.578,0.894,0.909,1.308
		c0.306,0.38,0.715,0.598,1.229,0.459c0.488-0.135,0.867-0.657,0.79-1.246c-0.152-1.123-0.39-2.216-1.112-3.152
		C113.565-18.993,111.148-20.145,109.57-20.176z M92.604,26.718c0.597-0.088,1.387-0.206,2.177-0.327
		c2.265-0.345,4.144-1.404,5.665-3.098c0.911-1.004,1.532-2.177,1.758-3.52c0.036-0.213-0.092-0.56-0.258-0.674
		c-0.183-0.122-0.575-0.146-0.74-0.029c-0.42,0.304-0.776,0.705-1.143,1.076c-0.885,0.899-1.673,1.921-2.662,2.682
		c-2.65,2.026-5.571,2.36-8.656,1.04c-1.301-0.559-2.444-1.348-3.455-2.333c-0.335-0.327-0.675-0.646-1.044-0.925
		c-0.136-0.102-0.467-0.161-0.537-0.085c-0.156,0.167-0.326,0.469-0.275,0.659c0.254,0.993,0.875,1.783,1.568,2.508
		C87.017,25.8,89.625,26.473,92.604,26.718z M81.244-1.913c-0.028-1.333-0.222-2.699-0.834-3.979
		c-0.346-0.725-0.693-1.483-1.682-1.44c-0.872,0.041-1.238,0.709-1.524,1.384c-1.045,2.482-1.092,5.008-0.208,7.544
		c0.17,0.492,0.436,0.968,0.75,1.386c0.506,0.678,1.528,0.691,2.074,0.036c0.29-0.348,0.539-0.76,0.713-1.178
		C81.028,0.669,81.222-0.573,81.244-1.913z M110.326-1.425c-0.009-1.765-0.327-3.702-0.731-4.43
		c-0.38-0.687-0.727-1.511-1.705-1.468c-0.945,0.041-1.349,0.779-1.637,1.541c-0.993,2.597-0.997,5.203,0.034,7.79
		c0.144,0.363,0.359,0.718,0.619,1.014c0.573,0.653,1.573,0.648,2.076-0.056c0.38-0.532,0.729-1.139,0.89-1.763
		C110.133,0.176,110.238-0.89,110.326-1.425z M79.621-17.39c1.308-0.079,2.503,0.369,3.681,1.454c0.584,0.537,1.049,1.196,1.568,1.8
		c0.26,0.302,0.483,0.66,0.794,0.884c0.239,0.172,0.619,0.284,0.905,0.234c0.458-0.077,0.58-0.512,0.573-0.93
		c-0.025-1.167-0.394-2.222-1.188-3.093c-2.028-2.228-4.583-2.897-7.436-2.242c-2.823,0.651-4.612,2.526-5.451,5.276
		c-0.135,0.428-0.11,0.923-0.056,1.378c0.024,0.213,0.248,0.476,0.449,0.58c0.337,0.169,0.679-0.025,0.848-0.315
		c0.232-0.399,0.414-0.834,0.555-1.271c0.3-0.906,0.821-1.673,1.472-2.346C77.25-16.922,78.344-17.507,79.621-17.39z M88.6,15.648
		c0.3,0,0.499,0.023,0.693-0.002c0.487-0.055,0.899-0.237,1.052-0.76c0.111-0.386-0.126-0.763-0.763-0.978
		c-1.628-0.545-3.261-1.073-4.914-1.529c-0.755-0.207-1.559-0.269-2.349-0.323c-0.399-0.023-0.779,0.182-0.912,0.621
		c-0.139,0.457,0.078,0.757,0.482,0.954C84.044,14.692,86.346,15.262,88.6,15.648z M94.095,32.434
		c0.803-0.075,1.534-0.094,2.243-0.23c0.848-0.156,1.647-0.489,2.271-1.106c0.151-0.152,0.261-0.501,0.194-0.685
		c-0.07-0.197-0.36-0.375-0.588-0.441c-0.237-0.064-0.521-0.011-0.777,0.032c-1.555,0.28-3.078,0.734-4.675,0.728
		c-0.126,0-0.295,0.024-0.374,0.103c-0.212,0.224-0.488,0.454-0.552,0.725c-0.092,0.37,0.223,0.594,0.57,0.653
		C92.988,32.309,93.583,32.367,94.095,32.434z"/>
	<g>
		<path fill="#7B98DB" d="M92.604,26.718c-2.977-0.245-5.585-0.917-7.602-3.026c-0.696-0.725-1.314-1.515-1.568-2.508
			c-0.049-0.19,0.119-0.492,0.275-0.659c0.07-0.076,0.403-0.017,0.537,0.085c0.37,0.279,0.707,0.601,1.044,0.925
			c1.011,0.985,2.154,1.774,3.455,2.333c3.084,1.32,6.008,0.986,8.656-1.04c0.988-0.76,1.776-1.782,2.662-2.682
			c0.367-0.371,0.721-0.774,1.143-1.076c0.165-0.119,0.557-0.093,0.74,0.029c0.166,0.114,0.293,0.461,0.257,0.674
			c-0.229,1.345-0.848,2.516-1.758,3.52c-1.522,1.694-3.402,2.751-5.665,3.098C93.99,26.512,93.199,26.63,92.604,26.718z"/>
		<path fill="#7B98DB" d="M86.111,42.506c-2.176-1.419-4.033-3.141-5.659-5.081c-3.905-4.661-7.467-9.559-10.086-15.078
			c-1.581-3.323-2.731-6.801-3.151-10.474c-0.152-1.322-0.094-2.661-0.121-3.995c-0.014-0.794,0-1.591,0-2.47
			c-0.467-0.226-0.869-0.431-1.279-0.621c-2.065-0.953-3.353-2.575-4.054-4.7c-0.228-0.696-0.394-1.408-0.596-2.115
			c-0.109-0.382-0.194-0.779-0.348-1.146c-0.586-1.364-1.517-1.901-3.024-1.673c-0.586,0.087-1.15,0.32-1.716,0.512
			c-0.945,0.32-1.863,0.751-2.83,0.978c-1.433,0.333-2.862,0.401-4.298-0.214c-1.471-0.631-2.608-2.93-1.814-4.55
			c0.35-0.711,0.748-1.421,1.244-2.027c0.67-0.824,1.432-1.582,2.198-2.318c1.51-1.438,2.344-3.25,2.747-5.225
			c0.305-1.494,0.41-3.038,0.45-4.565c0.066-2.53-0.014-5.068,0.015-7.595c0.056-5.079,1.31-9.865,3.589-14.395
			c0.904-1.805,2.128-3.391,3.554-4.799c2.673-2.642,5.965-3.658,9.665-3.481c1.727,0.081,3.458,0.179,5.184,0.293
			c2.851,0.183,5.203-0.935,7.237-2.813c1.175-1.086,2.255-2.271,3.412-3.377c0.961-0.917,1.957-1.802,2.96-2.672
			c1.342-1.161,2.956-1.784,4.62-2.292c0.318-0.096,0.656-0.134,0.982-0.162c3.044-0.265,5.981,0.224,8.781,1.421
			c1.718,0.728,3.391,1.55,5.087,2.319c1.21,0.55,2.41,1.145,3.652,1.61c2.394,0.893,4.861,1.335,7.439,1.063
			c1.254-0.135,2.529-0.146,3.79-0.132c3.016,0.04,5.427,1.182,6.916,3.925c0.095,0.175,0.214,0.334,0.331,0.497
			c0.041,0.053,0.096,0.094,0.209,0.198c2.004,0.063,4.003,0.478,5.943,1.255c4.527,1.813,7.976,7.213,7.822,11.615
			c-0.052,1.462-0.144,2.929-0.158,4.395c-0.009,0.926,0.004,1.87,0.171,2.774c0.223,1.214,1.126,1.938,2.368,2.066
			c0.66,0.066,1.333,0.044,1.995,0.122c3.166,0.394,4.865,1.964,5.646,5.072c0.492,1.98,0.388,3.966,0.259,5.963
			c-0.048,0.73-0.188,1.453-0.231,2.189c-0.126,2.018,0.463,3.805,1.795,5.344c0.789,0.903,1.604,1.786,2.307,2.751
			c3.041,4.181,4.207,8.818,3.474,13.961c-0.363,2.563-1.145,4.926-2.704,7.002c-2.128,2.832-4.924,4.17-8.5,3.74
			c-1.026-0.126-1.91-0.577-2.77-1.081c-0.693-0.403-1.332-0.89-2.021-1.291c-0.512-0.301-1.054-0.585-1.615-0.773
			c-1.216-0.403-2.108-0.019-2.526,1.226c-0.38,1.126-0.546,2.326-0.809,3.491c-0.174,0.781-0.314,1.568-0.545,2.332
			c-0.354,1.173-1.056,2.131-1.965,2.951c-1.325,1.193-2.823,1.402-4.469,0.915c-0.192-0.058-0.385-0.135-0.553-0.232
			c-1.608-1-2.057-0.213-2.659,1.14c-0.377,0.848-0.772,1.714-1.318,2.452c-1.231,1.657-2.835,2.837-4.953,3.058
			c-1.049,0.109-1.315,0.632-1.454,1.545c-0.425,2.782-0.454,5.578-0.359,8.379c0.12,3.394,0.229,6.789,0.374,10.187
			c0.113,2.592,0.3,5.184,0.41,7.781c0.036,0.883,0.465,1.483,1.053,2.067c3.424,3.404,7.609,5.312,12.283,6.242
			c2.481,0.492,4.994,0.836,7.452,1.417c2.07,0.487,4.125,1.093,6.104,1.859c3.887,1.502,6.69,4.269,8.718,7.875
			c1.18,2.103,2.076,4.335,2.683,6.659c0.782,2.951,1.468,5.934,2.075,8.932c1.336,6.578,2.603,13.177,3.888,19.768
			c0.659,3.399,1.287,6.802,1.938,10.197c0.957,4.97,1.923,9.933,2.875,14.898c0.438,2.285,0.852,4.577,1.266,6.868
			c0.056,0.324,0.045,0.657,0.073,0.99c0.056,0.671-0.206,1.166-0.793,1.482c-0.413,0.221-0.838,0.413-1.252,0.632
			c-7.673,4.072-15.714,7.229-23.948,9.956c-6.904,2.281-13.94,3.974-21.102,5.196c-2.883,0.499-5.788,0.828-8.68,1.251
			c-5.104,0.732-10.218,0.799-15.35,0.775c-2.865-0.016-5.732-0.033-8.597,0.003c-3.874,0.051-7.719-0.259-11.549-0.778
			c-2.109-0.294-4.22-0.541-6.33-0.817c-4.157-0.531-8.248-1.44-12.331-2.376c-7.091-1.625-13.965-3.928-20.758-6.497
			c-0.248-0.095-0.476-0.236-0.727-0.327c-0.763-0.267-0.992-0.838-0.917-1.572c0.112-1.061,0.223-2.122,0.366-3.176
			c0.333-2.437,0.695-4.873,1.035-7.306c0.175-1.256,0.34-2.507,0.476-3.764c0.329-3.042,0.641-6.087,0.954-9.13
			c0.234-2.319,0.514-4.634,0.681-6.956c0.217-2.988,0.399-5.982,0.491-8.979c0.183-5.793,0.152-11.595,0.478-17.382
			c0.273-4.861,1.065-9.67,3.279-14.113c1.997-3.996,4.626-7.464,8.548-9.792c1.443-0.852,2.966-1.525,4.602-1.889
			c1.945-0.435,3.907-0.811,5.858-1.214c5.921-1.214,10.692-4.289,14.484-8.946c0.338-0.416,0.653-0.845,0.969-1.274
			c1.204-1.641,1.98-3.363,1.835-5.529c-0.177-2.721-0.047-5.459-0.064-8.189C86.214,44.008,86.153,43.281,86.111,42.506z
			 M154.034,73.924c-0.158,0.018-0.234,0.002-0.286,0.037c-7.783,4.149-13.36,10.237-16.355,18.592
			c-0.159,0.435-0.325,0.875-0.534,1.288c-0.16,0.312-0.459,0.499-0.826,0.404c-0.371-0.105-0.523-0.386-0.46-0.766
			c0.034-0.197,0.11-0.384,0.154-0.58c2.03-8.743,7.011-15.242,14.865-19.563c0.439-0.242,0.857-0.532,1.426-0.886
			c-0.976-0.678-1.881-1.065-2.815-1.414c-2.951-1.105-6.054-1.555-9.128-2.104c-3.417-0.62-6.79-1.351-9.957-2.84
			c-0.47-0.22-0.98-0.354-1.467-0.529c-0.363,0.329-0.678,0.58-0.949,0.87c-3.712,4.006-7.621,7.819-11.787,11.362
			c-3.62,3.084-7.497,5.746-11.943,7.539c-5.911,2.383-11.791,2.371-17.687-0.05c-4.701-1.927-8.706-4.864-12.301-8.393
			c-1.568-1.54-3.078-3.137-4.568-4.749c-0.551-0.602-1.125-0.889-1.93-0.729c-2.015,0.398-4.052,0.711-5.969,1.537
			c-3.5,1.504-6.045,4.054-8.041,7.231c-2.843,4.519-3.921,9.589-4.352,14.804c-0.292,3.58-0.342,7.182-0.411,10.775
			c-0.08,4.262,0.044,8.524-0.398,12.781c-0.271,2.648-0.32,5.315-0.569,7.966c-0.353,3.776-0.76,7.548-1.217,11.308
			c-0.534,4.427-1.156,8.838-1.726,13.254c-0.042,0.311-0.007,0.632-0.007,1.019c5.205,2.024,10.416,3.751,15.829,5.188
			c0.118-0.375,0.234-0.607,0.261-0.852c0.065-0.594,0.068-1.192,0.128-1.79c0.394-3.906,0.805-7.811,1.186-11.716
			c0.212-2.189,0.368-4.377,0.561-6.57c0.197-2.25,0.454-4.5,0.606-6.755c0.201-2.991,0.306-5.988,0.5-8.976
			c0.31-4.72,0.691-9.427,0.968-14.147c0.207-3.478-0.627-6.605-3.391-8.993c-0.655-0.568-1.223-1.229-1.837-1.841
			c-0.726-0.725-1.178-1.602-1.492-2.567c-0.136-0.421-0.107-0.787,0.575-1.029c2.351,2.002,4.977,3.843,6.958,6.384
			c1.167,1.498,1.746,3.252,1.818,5.187c0.083,2.396-0.036,4.791-0.078,7.183c-0.023,1.063-0.132,2.125-0.207,3.19
			c-0.188,2.787-0.393,5.571-0.565,8.362c-0.176,2.86-0.299,5.721-0.492,8.577c-0.139,2.058-0.343,4.108-0.523,6.167
			c-0.205,2.321-0.421,4.641-0.621,6.959c-0.181,2.124-0.326,4.247-0.525,6.37c-0.213,2.249-0.469,4.499-0.693,6.744
			c-0.026,0.254,0.047,0.516,0.085,0.873c0.57,0.18,1.125,0.394,1.695,0.525c1.75,0.397,3.5,0.804,5.263,1.138
			c2.548,0.483,5.094,0.98,7.663,1.337c2.96,0.409,5.939,0.729,8.921,0.98c3.449,0.287,6.904,0.565,10.362,0.646
			c5.794,0.138,11.578-0.148,17.355-0.695c4.308-0.407,8.59-0.963,12.842-1.738c3.861-0.7,7.699-1.508,11.487-2.558
			c0.508-0.138,1.061-0.199,1.451-0.86c-0.019-0.458-0.013-1.056-0.08-1.641c-0.362-3.178-0.74-6.349-1.118-9.523
			c-0.172-1.453-0.372-2.908-0.533-4.358c-0.472-4.305-0.918-8.605-1.394-12.905c-0.339-3.113-0.742-6.215-1.059-9.328
			c-0.329-3.24-0.589-6.491-0.896-9.737c-0.141-1.53-0.231-3.063-0.515-4.561c-0.467-2.448-0.135-2.165-2.361-3.303
			c-0.234-0.123-0.5-0.21-0.702-0.37c-0.177-0.145-0.29-0.375-0.435-0.577c0.841-0.669,1.689-0.743,2.55-0.463
			c0.836,0.279,1.537,0.769,2.01,1.56c0.843,1.393,1.252,2.933,1.46,4.522c0.328,2.505,0.602,5.02,0.914,7.524
			c0.492,3.963,0.998,7.919,1.494,11.886c0.206,1.647,0.42,3.298,0.606,4.954c0.219,1.917,0.407,3.84,0.619,5.755
			c0.336,2.979,0.692,5.954,1.022,8.928c0.324,2.912,0.61,5.826,0.948,8.734c0.092,0.781,0.308,1.551,0.481,2.399
			c0.391-0.069,0.715-0.088,1.022-0.183c1.337-0.414,2.664-0.849,3.995-1.273c7.563-2.41,14.863-5.466,21.918-9.104
			c0.453-0.234,0.86-0.564,1.21-0.798c0.025-0.287,0.069-0.422,0.048-0.551c-0.977-5.09-1.962-10.187-2.938-15.28
			c-1.238-6.473-2.453-12.938-3.702-19.402c-1.229-6.33-2.469-12.655-3.762-18.969c-0.479-2.349-1.07-4.671-1.717-6.972
			c-0.633-2.255-1.567-4.399-2.826-6.377C156.298,76.063,155.376,74.752,154.034,73.924z M124.884,14.922
			c-0.058-0.251-0.054-0.33-0.09-0.379c-0.77-1.016-0.633-1.52,0.505-1.803c0.581-0.143,1.176-0.22,1.753-0.381
			c1.534-0.425,3.113-0.756,4.583-1.35c5.354-2.159,8.875-5.95,10.197-11.682c0.512-2.224,0.406-4.339-0.406-6.457
			c-0.649-1.695-1.76-3-3.331-3.848c-1.791-0.967-3.643-1.124-5.628,0.058c0.308,1.301-0.676,2.527-0.188,3.884
			c3.146-0.675,3.146-0.675,4.305-0.271c-0.288,0.538-0.798,0.653-1.288,0.783c-0.78,0.211-1.532,0.463-2.145,1.018
			c-0.738,0.668-0.879,1.517-0.297,2.312c0.353,0.48,0.793,0.894,1.206,1.334c1.607,1.729,1.849,3.854,0.572,5.828
			c-1.21,1.884-2.939,3.053-5.165,3.456c-0.13,0.022-0.275,0.056-0.394,0.02c-0.181-0.056-0.45-0.134-0.495-0.264
			c-0.069-0.223-0.096-0.603,0.034-0.716c0.589-0.535,1.238-1,1.867-1.489c0.581-0.446,1.219-0.831,1.725-1.347
			c0.928-0.943,1.166-2.322,0.677-3.316c-0.357-0.736-1.328-1.496-2.438-1.89c-0.188,0.416-0.358,0.849-0.573,1.254
			c-0.966,1.821-1.886,3.675-2.938,5.442c-0.725,1.212-1.743,2.179-3.136,2.67c-0.673,0.24-1.289,0.21-1.935-0.061
			c-0.934-0.388-1.522-1.067-1.777-2.021c-0.316-1.171-0.399-2.373-0.201-3.569c0.536-3.281,1.077-6.564,1.663-9.836
			c0.432-2.433,0.756-4.862,0.638-7.341c-0.145-3.017-1.044-5.75-2.939-8.119c-0.913-1.145-1.886-2.243-2.84-3.355
			c-1.646-1.92-3.314-3.83-4.39-6.163c-0.099-0.211-0.344-0.35-0.566-0.568c-0.501,0.362-0.936,0.657-1.353,0.978
			c-3.292,2.481-6.786,2.847-10.491,1.018c-0.655-0.327-1.274-0.719-1.92-1.063c-1.174-0.623-2.329-1.304-3.543-1.828
			c-1.302-0.563-2.653-0.715-4.093-0.382c-2.324,0.542-4.124,1.868-5.645,3.576c-1.147,1.292-2.143,2.717-3.144,4.129
			c-1.157,1.629-2.208,3.33-3.378,4.954c-1.946,2.707-4.348,4.855-7.586,5.922c-0.107,0.036-0.174,0.186-0.389,0.42
			c0.13,0.926,0.299,1.965,0.417,3.017c0.403,3.592,0.12,7.179-0.192,10.762c-0.279,3.185-0.615,6.361-0.678,9.563
			c-0.098,5.053,1.197,9.761,3.42,14.231c2.812,5.65,6.591,10.635,10.746,15.348c0.975,1.11,2.106,2.04,3.389,2.773
			c0.393,0.224,0.849,0.461,1.284,0.477c1.462,0.047,2.95,0.147,4.392-0.044c3.44-0.463,6.772-1.349,9.962-2.778
			c2.997-1.347,5.754-3.074,8.438-4.937c1.807-1.255,3.592-2.534,5.41-3.775c0.541-0.372,1.145-0.673,1.747-0.939
			c0.17-0.074,0.447,0.096,0.783,0.181c-0.44,1.161-1.266,1.858-1.989,2.605c-3.45,3.603-7.512,6.369-11.96,8.575
			c-4.093,2.03-8.392,3.35-12.977,3.665c-1.103,0.079-2.252-0.02-3.383,0.508c-0.032,0.605-0.088,1.196-0.092,1.788
			c-0.01,2.533,0.013,5.067-0.01,7.593c-0.035,4.069,0.226,8.12,0.627,12.165c0.109,1.102-0.085,2.14-0.651,3.07
			c-1.291,2.131-3.225,3.308-5.681,3.639c-0.32,0.045-0.666-0.008-0.979-0.087c-0.156-0.042-0.38-0.262-0.371-0.389
			c0.018-0.232,0.13-0.582,0.297-0.651c0.608-0.254,1.273-0.381,1.893-0.621c1.843-0.7,3.196-2.619,3.116-4.475
			c-0.063-1.46-0.201-2.92-0.331-4.379c-0.028-0.286-0.185-0.561-0.346-1.016c-0.367,0.386-0.606,0.606-0.807,0.857
			c-3.492,4.296-7.783,7.423-13.104,9.083c-0.343,0.107-0.638,0.36-1.029,0.592c0.259,0.315,0.403,0.537,0.596,0.71
			c2.024,1.831,4.006,3.72,6.104,5.465c2.929,2.438,6.103,4.521,9.67,5.928c4.889,1.921,9.821,2.146,14.804,0.325
			c4.064-1.48,7.645-3.779,10.881-6.585c3.216-2.792,6.305-5.735,9.409-8.661c1.301-1.229,2.49-2.574,3.792-3.93
			c-0.35-0.351-0.606-0.637-0.895-0.895c-0.886-0.802-1.787-1.599-2.686-2.391c-0.578-0.51-0.908-1.14-0.979-1.908
			c-0.061-0.662-0.132-1.323-0.17-1.99c-0.128-1.993-0.246-3.986-0.358-5.983c-0.047-0.93-0.069-1.861-0.099-2.791
			c-0.08-2.6-0.098-5.195-0.248-7.788c-0.249-4.207-0.039-8.372,0.968-12.476c-0.913-1.597-1.177-3.266-0.742-5.033
			c0.206-0.839,0.367-1.69,0.632-2.507C122.573,18.393,123.645,16.624,124.884,14.922z"/>
		<path fill="#7B98DB" d="M109.57-20.176c1.577,0.032,3.992,1.182,5.824,3.557c0.722,0.937,0.96,2.03,1.112,3.152
			c0.077,0.589-0.303,1.111-0.79,1.246c-0.512,0.139-0.924-0.079-1.229-0.459c-0.331-0.414-0.589-0.886-0.909-1.308
			c-0.6-0.794-1.15-1.644-1.848-2.344c-1.91-1.917-5.082-2.714-7.933-0.358c-0.708,0.586-1.27,1.351-1.878,2.053
			c-0.303,0.348-0.528,0.766-0.834,1.114c-0.289,0.327-0.735,0.448-1.074,0.197c-0.205-0.152-0.362-0.615-0.284-0.854
			c0.243-0.749,0.5-1.538,0.95-2.169C102.502-18.894,105-20.2,109.57-20.176z"/>
		<path fill="#7B98DB" d="M81.244-1.913c-0.024,1.34-0.218,2.579-0.709,3.753c-0.175,0.421-0.422,0.831-0.713,1.178
			c-0.546,0.656-1.568,0.643-2.074-0.036c-0.316-0.421-0.582-0.895-0.752-1.386c-0.885-2.536-0.836-5.062,0.209-7.544
			c0.286-0.675,0.653-1.347,1.524-1.384c0.99-0.045,1.336,0.713,1.682,1.44C81.026-4.612,81.218-3.243,81.244-1.913z"/>
		<path fill="#7B98DB" d="M110.326-1.425c-0.087,0.535-0.192,1.601-0.454,2.627c-0.161,0.624-0.512,1.231-0.89,1.763
			c-0.503,0.704-1.503,0.709-2.076,0.056c-0.26-0.295-0.476-0.651-0.619-1.014c-1.031-2.587-1.027-5.193-0.034-7.79
			c0.291-0.764,0.694-1.502,1.637-1.541c0.978-0.042,1.324,0.783,1.705,1.468C109.999-5.127,110.316-3.189,110.326-1.425z"/>
		<path fill="#7B98DB" d="M79.621-17.39c-1.277-0.121-2.371,0.468-3.283,1.411c-0.65,0.674-1.171,1.44-1.472,2.347
			c-0.142,0.435-0.323,0.874-0.555,1.27c-0.169,0.291-0.51,0.485-0.847,0.316c-0.201-0.104-0.425-0.367-0.449-0.581
			c-0.053-0.453-0.077-0.95,0.055-1.376c0.839-2.751,2.628-4.626,5.45-5.276c2.854-0.656,5.408,0.014,7.436,2.241
			c0.794,0.871,1.166,1.923,1.188,3.092c0.007,0.418-0.114,0.854-0.572,0.931c-0.287,0.047-0.667-0.063-0.906-0.235
			c-0.313-0.224-0.534-0.582-0.794-0.883c-0.518-0.604-0.984-1.262-1.568-1.801C82.124-17.018,80.929-17.468,79.621-17.39z"/>
		<path fill="#7B98DB" d="M88.6,15.648c-2.257-0.386-4.556-0.957-6.712-2.013c-0.405-0.196-0.619-0.497-0.482-0.953
			c0.135-0.44,0.512-0.646,0.912-0.621c0.79,0.051,1.592,0.117,2.349,0.322c1.652,0.454,3.287,0.982,4.913,1.53
			c0.638,0.214,0.875,0.593,0.764,0.978c-0.151,0.521-0.564,0.702-1.052,0.759C89.099,15.672,88.899,15.648,88.6,15.648z"/>
		<path fill="#7B98DB" d="M94.095,32.434c-0.512-0.067-1.105-0.125-1.688-0.223c-0.348-0.059-0.662-0.283-0.57-0.653
			c0.064-0.271,0.34-0.503,0.552-0.725c0.078-0.079,0.247-0.103,0.374-0.103c1.597,0.006,3.12-0.447,4.675-0.728
			c0.254-0.042,0.539-0.096,0.777-0.032c0.228,0.066,0.516,0.245,0.588,0.441c0.067,0.183-0.042,0.529-0.194,0.685
			c-0.621,0.618-1.423,0.95-2.271,1.106C95.627,32.339,94.898,32.358,94.095,32.434z"/>
	</g>
</g>
<g>
	<path fill="#FFFFFF" d="M211.046,19.896c-0.321-1.828-0.577-3.592-0.948-5.329c-1.268-5.929-3.893-11.228-7.728-15.904
		c-1.459-1.781-3.071-3.44-4.648-5.122c-0.98-1.041-2.118-1.886-3.507-2.302c-0.686-0.205-1.176-0.577-1.56-1.169
		c-0.66-1.009-1.563-1.774-2.529-2.489c-0.83-0.621-1.568-1.362-2.328-2.072c-3.04-2.826-6.417-5.099-10.52-6.045
		c-3.167-0.729-6.33-0.742-9.409,0.546c-3.197,1.342-5.347,3.686-6.7,6.824c-0.886,2.062-1.39,4.234-1.831,6.426
		c-0.531,2.621-1.148,5.22-2.253,7.687c-1.07,2.386-2.35,4.642-3.774,6.827c-1.706,2.619-3.479,5.196-5.156,7.833
		c-2.695,4.243-4.509,8.839-5.568,13.766c-1.031,4.76-1.472,9.562-1.246,14.404c0.192,4.151,0.664,8.289,1.453,12.384
		c1.377,7.173,3.456,14.139,6.111,20.936c0.245,0.622,0.486,1.25,0.792,1.841c0.275,0.525,0.826,0.683,1.325,0.466
		c0.554-0.237,0.864-0.667,0.765-1.217c-0.144-0.801-0.34-1.598-0.543-2.39c-0.974-3.817-1.96-7.633-2.936-11.452
		c-0.086-0.344-0.127-0.7-0.248-1.389c0.472,0.336,0.716,0.445,0.87,0.633c1.669,2.093,3.276,4.238,4.997,6.29
		c2.216,2.639,4.817,4.866,7.75,6.675c0.904,0.556,1.355,1.271,1.673,2.231c1.061,3.25,2.065,6.521,3.303,9.706
		c2.014,5.198,4.136,10.361,6.316,15.492c2.734,6.434,5.438,12.88,7.635,19.519c1.639,4.945,3.015,9.978,3.836,15.124
		c0.703,4.404,1.184,8.863,0.948,13.336c-0.263,4.984-0.984,9.89-2.644,14.649c-1.445,4.156-3.298,8.126-5.094,12.13
		c-1.454,3.262-2.87,6.537-3.874,9.974c-0.856,2.937-1.444,5.889-1.444,8.991c-0.004,3.8,0.843,7.373,2.22,10.854
		c0.435,1.106,1.002,2.159,1.498,3.237c0.274,0.599,0.522,1.199,0.865,1.992c-0.508,0.035-0.838,0.076-1.169,0.083
		c-3.058,0.078-6.106-0.195-9.12-0.603c-6.779-0.911-13.463-2.296-19.986-4.421c-5.46-1.773-10.79-3.868-15.931-6.409
		c-2.998-1.48-5.857-3.234-8.794-4.839c-0.883-0.485-1.458-1.175-1.948-2.058c-3.561-6.426-6.099-13.24-7.553-20.427
		c-1.009-4.957-1.559-9.994-1.471-15.061c0.045-2.822,0.361-5.631,0.715-8.438c1.018-8.136,3.909-15.692,7.021-23.185
		c2.254-5.425,4.521-10.842,6.718-16.285c1.896-4.7,3.391-9.531,4.446-14.487c0.463-2.177,0.766-4.395,1.049-6.606
		c0.624-4.877,0.803-9.789,0.686-14.698c-0.097-3.789-0.047-7.586-0.532-11.366c-0.312-2.431-0.363-4.893-0.581-7.336
		c-0.202-2.221-0.478-4.438-0.717-6.656c-0.196-1.773-0.449-3.545-0.576-5.322c-0.455-6.381-1.154-12.738-1.367-19.143
		c-0.144-4.333-0.018-8.643,0.371-12.922c0.77-8.402,2.512-16.608,6.105-24.316c3.635-7.787,8.899-14.225,16.023-19.079
		c4.429-3.02,9.301-5.042,14.589-5.839c6.032-0.914,11.856,0.021,17.379,2.661c4.604,2.196,8.409,5.32,11.17,9.646
		c0.201,0.316,0.401,0.638,0.66,0.899c0.38,0.384,0.838,0.62,1.411,0.463c0.283-0.083,0.566-0.17,0.855-0.241
		c3.717-0.954,7.055-0.002,10.169,2.038c2.206,1.443,4.041,3.293,5.657,5.348c4.158,5.293,6.972,11.218,8.186,17.872
		c0.55,3.008,0.866,6.029,0.878,9.087c0.005,0.446-0.004,0.892-0.039,1.34c-0.057,0.66-0.402,1.102-1.057,1.279
		c-0.145,0.04-0.287,0.091-0.433,0.114c-2.842,0.476-5.094,1.979-7.063,3.991c-0.363,0.367-0.773,0.691-1.171,1.022
		C211.444,19.929,211.346,19.896,211.046,19.896z"/>
	<path fill="#FFFFFF" d="M214.872,47.867c-0.231-1.725-0.435-3.261-0.65-4.796c-0.032-0.221-0.036-0.492-0.164-0.635
		c-0.229-0.25-0.551-0.593-0.821-0.583c-0.267,0.011-0.685,0.37-0.743,0.644c-0.238,1.085-0.421,2.191-0.526,3.301
		c-0.555,6.086-2.791,11.513-6.376,16.411c-4.627,6.328-10.48,11.144-17.774,14.1c-3.907,1.58-7.991,2.374-12.209,1.995
		c-3.817-0.343-7.399-1.526-10.741-3.442c-3.589-2.064-6.642-4.747-9.368-7.837c-3.453-3.925-6.264-8.314-9.111-12.674
		c-0.31-0.476-0.476-1.079-0.589-1.649c-0.788-3.947-1.109-7.955-1.133-11.962c-0.022-5.222,0.666-10.374,2.303-15.363
		c0.807-2.471,2.079-5.096,3.675-7.51c0.275,0.012,0.627,0.004,0.976,0.056c0.624,0.1,1.164-0.07,1.689-0.399
		c0.825-0.508,1.645-1.026,2.512-1.445c1.947-0.952,3.898-0.874,5.755,0.247c0.821,0.496,1.578,1.106,2.329,1.714
		c0.551,0.446,1.114,0.716,1.838,0.531c0.765-0.197,1.128-0.801,0.844-1.515c-0.453-1.129-1.184-2.066-2.114-2.836
		c-1.537-1.274-3.299-1.992-5.315-1.992c-1.411,0-2.83-0.101-4.189,0.427c-0.173,0.064-0.415-0.047-0.755-0.099
		c0.164-0.396,0.258-0.747,0.444-1.042c0.601-0.943,1.224-1.868,1.844-2.796c2.722-4.059,4.64-8.464,5.657-13.255
		c0.042-0.215,0.117-0.421,0.219-0.753c0.379-0.09,0.789-0.211,1.21-0.28c2.899-0.486,5.372-1.684,7.128-4.143
		c0.217-0.302,0.478-0.577,0.758-0.814c0.784-0.653,1.604-0.735,2.467-0.163c0.802,0.532,1.533,1.178,2.313,1.747
		c1.155,0.832,2.369,1.523,3.847,1.63c1.631,0.121,2.918-0.396,3.739-1.87c0.104-0.194,0.247-0.374,0.343-0.573
		c0.7-1.445,2.045-1.91,3.801-1.271c0.48,0.176,0.925,0.472,1.369,0.734c0.638,0.378,1.246,0.824,1.905,1.163
		c0.794,0.41,1.573,0.743,1.963,1.671c0.187,0.445,0.67,0.787,1.067,1.118c3.748,3.165,6.57,7.047,8.928,11.315
		c2.521,4.558,3.906,9.452,4.613,14.582c0.224,1.611,0.669,3.198,1.128,4.759c0.345,1.167,1.659,1.392,2.437,0.475
		c0.38-0.454,0.665-0.991,1.046-1.446c0.854-1.026,1.697-2.074,2.633-3.023c1.335-1.347,2.995-2.1,4.768-2.778
		c2.037-0.779,5.622,0.479,6.911,2.465c1.301,2.004,1.874,4.196,1.943,6.539c0.169,5.694-1.604,10.829-4.547,15.618
		c-1.14,1.856-2.492,3.523-4.335,4.735C218.322,47.879,216.746,48.409,214.872,47.867z M176.116,33.018
		c0.143-2.861-0.777-5.413-2.299-7.779c-0.156-0.239-0.38-0.47-0.623-0.608c-0.152-0.09-0.441-0.07-0.604,0.02
		c-0.167,0.097-0.388,0.36-0.354,0.506c0.123,0.576,0.312,1.141,0.521,1.69c0.567,1.463,0.977,2.97,1.018,4.543
		c0.074,2.827-0.673,5.444-2.199,7.823c-0.56,0.875-1.252,1.665-1.815,2.541c-0.782,1.21-1.341,2.518-0.969,3.999
		c0.603,2.447,2.197,4.001,4.563,4.757c0.377,0.121,0.869,0.014,1.271-0.114c0.438-0.134,0.609-0.753,0.368-1.116
		c-0.206-0.31-0.451-0.593-0.702-0.864c-0.453-0.492-0.943-0.955-1.389-1.451c-1.565-1.765-1.623-2.79-0.233-4.759
		c0.385-0.549,0.82-1.06,1.184-1.625C175.335,38.278,176.269,35.809,176.116,33.018z M222.082,23.041
		c-0.12-0.251-0.143-0.421-0.239-0.49c-1.109-0.804-2.182-0.321-3.083,0.32c-1.701,1.201-2.729,2.911-3.112,4.963
		c-0.335,1.808,0.306,3.199,1.911,4.121c0.257,0.147,0.537,0.265,0.783,0.425c1.733,1.133,1.737,1.773,1.503,3.574
		c-0.083,0.644-0.416,1.259-0.637,1.887c-0.197,0.559-0.468,1.1-0.592,1.673c-0.064,0.316,0.015,0.794,0.224,0.986
		c0.222,0.198,0.697,0.231,1.018,0.157c0.33-0.074,0.689-0.302,0.927-0.559c1.406-1.547,2.099-3.402,2.066-5.482
		c-0.026-1.492-0.646-2.728-2.003-3.5c-0.322-0.186-0.655-0.351-0.957-0.565c-1.398-0.982-1.835-2.06-1.385-3.648
		c0.4-1.396,1.147-2.569,2.477-3.281C221.353,23.425,221.719,23.233,222.082,23.041z M190.513,29.969
		c0,0.501-0.025,1.094,0.01,1.689c0.072,1.353,0.432,2.638,1.141,3.799c0.778,1.278,2.025,1.242,2.81-0.058
		c0.187-0.317,0.341-0.662,0.467-1.007c0.79-2.14,0.931-4.365,0.638-6.591c-0.17-1.31-0.49-2.639-1.266-3.771
		c-0.639-0.926-1.775-1-2.425-0.104c-0.385,0.529-0.66,1.159-0.901,1.773C190.467,27.042,190.449,28.458,190.513,29.969z
		 M161.157,29.421c-0.104-0.747-0.2-1.939-0.467-3.093c-0.173-0.78-0.509-1.557-0.92-2.248c-0.638-1.069-1.88-1.064-2.548-0.042
		c-0.28,0.431-0.506,0.913-0.671,1.402c-0.898,2.682-0.856,5.41-0.224,8.128c0.18,0.775,0.573,1.537,1.005,2.216
		c0.512,0.811,1.705,0.798,2.28,0.033c0.263-0.351,0.454-0.762,0.638-1.165C160.948,33.129,161.065,31.501,161.157,29.421z
		 M192.814,9.92c-3.116-0.281-5.964,1.25-7.472,3.031c-0.518,0.611-0.932,1.342-1.254,2.078c-0.283,0.646,0.394,1.405,1.093,1.269
		c0.418-0.083,0.852-0.273,1.201-0.52c0.479-0.339,0.886-0.79,1.336-1.178c2.154-1.886,4.518-2.053,7.023-0.817
		c0.729,0.363,1.403,0.841,2.096,1.275c0.649,0.407,1.318,0.663,2.104,0.437c0.738-0.21,1.133-0.841,0.816-1.53
		c-0.463-1.027-1.081-1.951-2.027-2.612C196.224,10.292,194.568,9.718,192.814,9.92z M175.815,62.42
		c0.764-0.141,1.716-0.293,2.656-0.504c2.424-0.544,4.324-1.913,5.879-3.802c0.141-0.167,0.249-0.372,0.346-0.571
		c0.394-0.773-0.053-1.482-0.952-1.545c-0.626-0.042-1.128,0.146-1.644,0.523c-1.019,0.743-2.057,1.481-3.18,2.046
		c-1.398,0.705-2.943,1.153-4.517,1.01c-1.853-0.168-3.663-0.636-5.193-1.819c-0.293-0.226-0.612-0.422-0.943-0.595
		c-0.651-0.34-1.215-0.248-1.615,0.226c-0.301,0.36-0.209,0.805,0.335,1.362C169.354,61.178,172.331,62.146,175.815,62.42z
		 M177.143,68.707c0.355-0.052,0.961-0.083,1.527-0.235c0.963-0.262,1.743-0.836,2.211-1.725c0.141-0.277,0.154-0.79-0.012-1.013
		c-0.169-0.233-0.64-0.337-0.975-0.329c-0.35,0.009-0.702,0.201-1.043,0.345c-1.546,0.657-3.115,0.913-4.744,0.309
		c-0.202-0.076-0.458-0.179-0.638-0.119c-0.324,0.114-0.682,0.287-0.869,0.545c-0.096,0.132,0.073,0.58,0.248,0.763
		C173.955,68.406,175.398,68.653,177.143,68.707z"/>
	<path fill="#FFFFFF" d="M205.289,101.966c-2.15,9.463-12.6,27.825-18.024,31.711c-0.157-0.341-0.359-0.646-0.433-0.979
		c-1.791-8.248-4.762-16.106-8.055-23.839c-3.269-7.658-6.701-15.244-10.038-22.875c-0.743-1.704-1.381-3.45-2.054-5.177
		c-0.155-0.406-0.246-0.839-0.426-1.446c0.484,0.038,0.823,0.021,1.149,0.097c1.66,0.384,3.304,0.852,4.973,1.184
		c5.416,1.074,10.637,0.127,15.761-1.642c2.398-0.826,4.666-1.942,6.846-3.233c0.497-0.297,1.017-0.562,1.677-0.919
		c0.297,0.839,0.171,1.568,0.157,2.273c-0.141,7.735,1.604,15.014,5.221,21.862C202.772,100.376,203.852,101.272,205.289,101.966z"
		/>
	<path fill="#FFFFFF" d="M231.43,108.387c-0.476-0.207-0.897-0.335-1.265-0.562c-3.32-2.057-6.972-3.315-10.693-4.393
		c-3.141-0.906-6.29-1.771-9.419-2.712c-1.279-0.383-2.502-0.939-3.765-1.379c-0.904-0.313-1.468-0.917-1.911-1.752
		c-1.994-3.771-3.517-7.705-4.147-11.938c-0.335-2.28-0.694-4.569-0.769-6.862c-0.062-1.99,0.2-4.004,0.463-5.989
		c0.062-0.491,0.621-0.98,1.058-1.347c2.465-2.067,4.657-4.377,6.635-6.912c2.921-3.741,5.089-7.852,6.375-12.425
		c0.101-0.354,0.23-0.702,0.325-1.018c0.172-0.103,0.289-0.232,0.422-0.241c0.35-0.032,0.701-0.013,1.119-0.013
		c0.191,1.227,0.334,2.32,0.536,3.403c0.897,4.813,2.855,9.228,5.243,13.454c1.906,3.37,3.959,6.65,5.92,9.982
		c2.312,3.919,4.397,7.933,5.528,12.385c0.48,1.889,0.738,3.783,0.798,5.725c0.124,3.988-0.459,7.852-1.887,11.582
		C231.87,107.702,231.646,107.998,231.43,108.387z"/>
	<path fill="#FFFFFF" d="M185.346-13.462c-1.573,0.65-2.783,1.6-3.751,2.861c-0.18,0.233-0.419,0.421-0.65,0.602
		c-0.45,0.353-0.979,0.44-1.448,0.129c-0.743-0.485-1.431-1.057-2.146-1.576c-0.716-0.515-1.396-1.114-2.182-1.504
		c-2.19-1.087-4.176-0.76-5.916,0.921c-0.696,0.667-1.285,1.443-1.97,2.113c-1.134,1.112-2.425,1.888-4.198,1.826
		c-0.02-0.341-0.097-0.638-0.037-0.9c0.472-1.948,1.021-3.862,2.19-5.546c1.808-2.617,4.198-4.044,7.452-4.102
		c3.24-0.056,6.096,1.096,8.881,2.522c1.184,0.606,2.298,1.352,3.434,2.051C185.113-13.999,185.146-13.824,185.346-13.462z"/>
	<g>
		<path fill="#7B98DB" d="M233.769,110.416c0.326,0.394,0.494,0.642,0.706,0.845c3.163,3.034,4.977,6.843,6.164,10.967
			c0.984,3.441,1.484,6.976,1.579,10.566c0.126,4.687,0.167,9.383,0.474,14.057c0.421,6.562,2.131,12.738,6.046,18.172
			c2.299,3.207,4.573,6.433,6.768,9.707c0.992,1.477,1.807,3.077,2.64,4.654c0.414,0.789,0.702,1.64,1.005,2.475
			c0.453,1.251,0.17,2.249-0.854,3.19c-3.226,2.983-6.517,5.891-10.022,8.537c-5.662,4.273-11.642,8.025-18.021,11.133
			c-0.396,0.192-0.801,0.359-1.336,0.593c-0.224-0.424-0.493-0.775-0.595-1.169c-1.035-4.047-1.729-8.152-1.815-12.333
			c-0.089-4.065,0.688-7.995,2.407-11.703c1.413-3.036,2.893-6.041,4.227-9.11c0.673-1.557,1.169-3.213,1.594-4.859
			c1.032-4.02,0.123-7.817-1.539-11.487c-1.394-3.081-3.515-5.681-5.613-8.3c-1.673-2.091-3.342-4.194-4.878-6.383
			c-1.722-2.46-2.991-5.138-3.388-8.168c-0.066-0.507-0.25-1.006-0.451-1.481c-0.062-0.141-0.385-0.271-0.559-0.241
			c-0.184,0.03-0.468,0.25-0.477,0.402c-0.057,0.811-0.117,1.636-0.039,2.441c0.263,2.87,1.176,5.551,2.726,7.956
			c1.611,2.497,3.368,4.91,5.133,7.301c1.638,2.214,3.363,4.364,4.647,6.816c0.76,1.458,1.323,2.976,1.726,4.573
			c0.654,2.626,0.362,5.171-0.389,7.699c-0.982,3.301-2.586,6.332-4.058,9.423c-1.346,2.824-2.617,5.681-3.269,8.758
			c-0.611,2.916-0.899,5.851-0.628,8.855c0.361,4.01,1.008,7.956,2.021,11.848c0.035,0.131-0.018,0.288-0.045,0.561
			c-0.239,0.146-0.527,0.357-0.852,0.512c-3.085,1.499-6.314,2.632-9.552,3.731c-5.078,1.718-10.266,3.013-15.52,4.012
			c-2.771,0.525-5.593,0.754-8.393,1.125c-6.377,0.85-12.785,0.451-19.181,0.372c-2.146-0.028-4.285-0.422-6.421-0.711
			c-2.28-0.311-4.557-0.665-6.824-1.056c-6.84-1.172-13.47-3.106-19.905-5.675c-3.79-1.519-7.508-3.253-11.178-5.058
			c-2.735-1.343-5.334-2.959-7.999-4.441c-0.812-0.448-1.341-1.122-1.799-1.92c-4.033-6.953-6.684-14.425-8.31-22.265
			c-1.183-5.706-1.454-11.503-1.283-17.318c0.229-7.962,1.921-15.628,4.775-23.032c2.14-5.551,4.433-11.047,6.719-16.542
			c2.145-5.151,4.254-10.313,5.792-15.683c1.154-4.009,1.912-8.096,2.442-12.243c0.958-7.499,0.729-15.007,0.463-22.521
			c-0.073-2.152-0.335-4.301-0.555-6.448c-0.416-4.068-0.885-8.134-1.283-12.208c-0.494-5.037-1.004-10.073-1.367-15.118
			c-0.271-3.784-0.503-7.591-0.416-11.379c0.119-4.977,0.311-9.958,1.092-14.904c1.071-6.801,2.832-13.384,5.715-19.64
			c4.398-9.542,10.985-17.107,20.234-22.233c3.598-1.995,7.409-3.384,11.483-4.157c10.979-2.085,22.021,2.046,28.818,9.127
			c0.922,0.963,1.772,2.011,2.546,3.1c0.563,0.783,1.21,0.962,2.11,0.875c1.175-0.113,2.373-0.211,3.547-0.119
			c4.128,0.327,7.462,2.381,10.445,5.076c2.28,2.056,4.145,4.477,5.823,7.036c3.57,5.439,5.691,11.445,6.6,17.853
			c0.394,2.79,0.651,5.625,0.463,8.465c-0.025,0.437-0.004,0.879-0.004,1.402c0.322,0.179,0.628,0.383,0.956,0.523
			c2.945,1.25,4.719,3.546,5.745,6.478c0.873,2.498,1.087,5.097,0.79,7.711c-0.581,5.101-2.19,9.848-4.966,14.202
			c-1.757,2.76-3.897,5.065-6.902,6.475c-0.197,0.094-0.367,0.246-0.625,0.422c-0.18,1.143-0.045,2.327,0.197,3.479
			c0.679,3.139,1.668,6.188,3.174,9.022c1.686,3.15,3.468,6.247,5.279,9.324c2.414,4.104,4.927,8.155,6.703,12.599
			c1.975,4.921,2.767,10.032,2.233,15.3c-0.303,2.959-0.943,5.869-2.162,8.62C234.098,109.332,233.969,109.83,233.769,110.416z
			 M211.046,19.896c0.306,0,0.401,0.034,0.446-0.007c0.396-0.331,0.806-0.655,1.167-1.021c1.971-2.013,4.225-3.516,7.061-3.993
			c0.149-0.022,0.289-0.073,0.434-0.114c0.655-0.176,0.999-0.619,1.057-1.278c0.037-0.446,0.047-0.894,0.041-1.341
			c-0.013-3.055-0.324-6.079-0.879-9.087c-1.215-6.656-4.028-12.579-8.187-17.872c-1.616-2.054-3.45-3.906-5.655-5.348
			c-3.116-2.039-6.452-2.99-10.169-2.037c-0.288,0.07-0.572,0.159-0.859,0.241c-0.571,0.157-1.029-0.079-1.409-0.463
			c-0.256-0.262-0.46-0.587-0.66-0.899c-2.759-4.328-6.566-7.45-11.17-9.646c-5.521-2.642-11.342-3.577-17.377-2.661
			c-5.29,0.798-10.161,2.822-14.588,5.839c-7.126,4.853-12.388,11.292-16.023,19.077c-3.593,7.71-5.337,15.916-6.105,24.318
			c-0.389,4.278-0.515,8.591-0.372,12.921c0.215,6.402,0.914,12.76,1.367,19.141c0.126,1.779,0.38,3.55,0.577,5.324
			c0.239,2.216,0.514,4.433,0.715,6.655c0.22,2.445,0.271,4.905,0.582,7.336c0.485,3.779,0.436,7.577,0.532,11.365
			c0.119,4.91-0.06,9.824-0.685,14.698c-0.285,2.214-0.587,4.431-1.05,6.607c-1.058,4.954-2.552,9.786-4.446,14.488
			c-2.197,5.444-4.464,10.858-6.719,16.282c-3.11,7.498-6.002,15.051-7.02,23.187c-0.354,2.807-0.67,5.616-0.716,8.438
			c-0.087,5.068,0.463,10.105,1.472,15.062c1.454,7.185,3.992,14.001,7.553,20.426c0.49,0.882,1.066,1.572,1.947,2.059
			c2.937,1.602,5.797,3.357,8.795,4.839c5.142,2.538,10.471,4.635,15.931,6.408c6.521,2.122,13.204,3.507,19.983,4.421
			c3.017,0.407,6.065,0.681,9.121,0.603c0.332-0.007,0.665-0.048,1.171-0.085c-0.342-0.793-0.589-1.395-0.865-1.989
			c-0.494-1.08-1.061-2.132-1.498-3.237c-1.376-3.482-2.223-7.056-2.22-10.855c0-3.102,0.591-6.054,1.447-8.992
			c1.004-3.435,2.42-6.711,3.872-9.974c1.798-4.002,3.647-7.973,5.092-12.13c1.659-4.759,2.38-9.667,2.645-14.648
			c0.232-4.474-0.242-8.932-0.948-13.336c-0.821-5.146-2.195-10.178-3.837-15.124c-2.194-6.639-4.898-13.085-7.634-19.519
			c-2.183-5.13-4.305-10.293-6.317-15.492c-1.238-3.184-2.24-6.457-3.305-9.706c-0.313-0.961-0.769-1.677-1.673-2.231
			c-2.931-1.812-5.534-4.04-7.748-6.675c-1.722-2.051-3.328-4.196-4.996-6.289c-0.152-0.188-0.398-0.298-0.87-0.633
			c0.123,0.688,0.16,1.044,0.248,1.389c0.976,3.818,1.961,7.633,2.937,11.451c0.202,0.792,0.399,1.588,0.542,2.391
			c0.101,0.548-0.211,0.979-0.765,1.216c-0.499,0.218-1.049,0.06-1.325-0.467c-0.306-0.593-0.546-1.22-0.792-1.841
			c-2.657-6.796-4.734-13.761-6.11-20.937c-0.792-4.095-1.261-8.231-1.453-12.383c-0.229-4.842,0.213-9.646,1.246-14.403
			c1.062-4.927,2.873-9.524,5.568-13.767c1.678-2.637,3.451-5.213,5.155-7.832c1.425-2.186,2.704-4.439,3.777-6.829
			c1.104-2.467,1.721-5.065,2.255-7.687c0.44-2.192,0.943-4.363,1.827-6.426c1.353-3.135,3.504-5.481,6.7-6.823
			c3.081-1.289,6.244-1.274,9.41-0.545c4.102,0.947,7.479,3.218,10.519,6.045c0.76,0.707,1.498,1.449,2.328,2.072
			c0.967,0.715,1.87,1.48,2.529,2.489c0.384,0.595,0.876,0.966,1.56,1.17c1.388,0.418,2.529,1.261,3.505,2.301
			c1.576,1.683,3.189,3.342,4.649,5.122c3.834,4.679,6.459,9.975,7.727,15.904C210.469,16.304,210.725,18.068,211.046,19.896z
			 M214.872,47.867c1.874,0.542,3.45,0.013,4.932-0.966c1.839-1.212,3.192-2.879,4.335-4.735c2.942-4.791,4.717-9.926,4.549-15.618
			c-0.071-2.343-0.644-4.533-1.945-6.539c-1.288-1.987-4.872-3.242-6.91-2.465c-1.776,0.678-3.434,1.433-4.769,2.778
			c-0.934,0.949-1.777,1.997-2.634,3.023c-0.38,0.455-0.663,0.992-1.044,1.446c-0.777,0.917-2.093,0.696-2.438-0.475
			c-0.458-1.561-0.903-3.148-1.126-4.759c-0.709-5.13-2.093-10.022-4.613-14.582c-2.362-4.266-5.182-8.15-8.93-11.315
			c-0.397-0.331-0.879-0.673-1.067-1.118c-0.389-0.929-1.169-1.261-1.961-1.671c-0.66-0.337-1.265-0.785-1.907-1.163
			c-0.443-0.263-0.89-0.559-1.369-0.734c-1.757-0.638-3.104-0.173-3.801,1.271c-0.097,0.199-0.238,0.378-0.343,0.573
			c-0.821,1.474-2.105,1.991-3.739,1.87c-1.477-0.109-2.69-0.798-3.846-1.63c-0.784-0.568-1.513-1.215-2.315-1.747
			c-0.861-0.572-1.681-0.49-2.465,0.163c-0.278,0.237-0.541,0.512-0.757,0.814c-1.755,2.458-4.228,3.656-7.13,4.143
			c-0.418,0.069-0.829,0.19-1.21,0.28c-0.1,0.331-0.174,0.539-0.218,0.753c-1.018,4.791-2.936,9.194-5.657,13.255
			c-0.619,0.929-1.245,1.853-1.843,2.796c-0.188,0.296-0.279,0.646-0.446,1.042c0.341,0.049,0.584,0.163,0.756,0.099
			c1.359-0.528,2.778-0.427,4.189-0.427c2.019,0,3.779,0.715,5.316,1.992c0.931,0.77,1.659,1.707,2.114,2.836
			c0.283,0.712-0.078,1.318-0.843,1.515c-0.726,0.185-1.29-0.085-1.84-0.531c-0.751-0.606-1.507-1.219-2.327-1.714
			c-1.856-1.121-3.81-1.199-5.755-0.247c-0.868,0.42-1.688,0.939-2.514,1.445c-0.523,0.327-1.066,0.499-1.69,0.399
			c-0.345-0.052-0.7-0.045-0.976-0.056c-1.594,2.414-2.865,5.039-3.673,7.51c-1.638,4.99-2.324,10.141-2.302,15.363
			c0.023,4.008,0.345,8.016,1.132,11.962c0.114,0.571,0.279,1.173,0.59,1.649c2.847,4.36,5.657,8.749,9.112,12.674
			c2.726,3.09,5.779,5.773,9.367,7.837c3.339,1.916,6.924,3.1,10.741,3.442c4.217,0.379,8.299-0.415,12.21-1.995
			c7.297-2.954,13.144-7.772,17.773-14.1c3.584-4.896,5.821-10.325,6.375-16.411c0.105-1.108,0.29-2.214,0.526-3.301
			c0.061-0.273,0.477-0.632,0.742-0.644c0.272-0.01,0.598,0.331,0.819,0.583c0.135,0.143,0.138,0.417,0.167,0.635
			C214.438,44.605,214.643,46.142,214.872,47.867z M205.289,101.966c-1.442-0.693-2.517-1.59-3.249-2.986
			c-3.616-6.851-5.358-14.127-5.22-21.862c0.013-0.704,0.142-1.435-0.157-2.273c-0.66,0.357-1.178,0.622-1.679,0.918
			c-2.182,1.291-4.443,2.407-6.846,3.235c-5.124,1.767-10.344,2.717-15.762,1.641c-1.668-0.333-3.308-0.8-4.972-1.185
			c-0.322-0.076-0.663-0.06-1.147-0.096c0.179,0.607,0.271,1.043,0.428,1.443c0.673,1.729,1.311,3.479,2.054,5.178
			c3.337,7.632,6.768,15.218,10.035,22.878c3.296,7.731,6.267,15.59,8.058,23.836c0.073,0.333,0.275,0.639,0.433,0.979
			C192.689,129.791,203.139,111.429,205.289,101.966z M231.43,108.387c0.22-0.389,0.44-0.685,0.569-1.015
			c1.43-3.728,2.008-7.593,1.887-11.581c-0.061-1.939-0.32-3.835-0.799-5.723c-1.132-4.453-3.215-8.471-5.524-12.388
			c-1.963-3.332-4.02-6.613-5.924-9.981c-2.387-4.227-4.343-8.64-5.242-13.455c-0.201-1.081-0.346-2.176-0.537-3.402
			c-0.416,0-0.77-0.02-1.118,0.012c-0.132,0.011-0.249,0.141-0.419,0.242c-0.101,0.315-0.23,0.663-0.328,1.018
			c-1.284,4.574-3.456,8.684-6.374,12.425c-1.979,2.535-4.171,4.844-6.636,6.912c-0.436,0.365-0.996,0.856-1.059,1.347
			c-0.26,1.985-0.522,3.998-0.463,5.992c0.074,2.291,0.432,4.582,0.771,6.859c0.627,4.236,2.154,8.167,4.146,11.941
			c0.441,0.835,1.005,1.439,1.909,1.75c1.263,0.439,2.485,0.996,3.769,1.378c3.125,0.941,6.279,1.805,9.418,2.712
			c3.721,1.075,7.372,2.335,10.69,4.394C230.527,108.049,230.954,108.18,231.43,108.387z M185.346-13.462
			c-0.2-0.362-0.232-0.537-0.342-0.604c-1.136-0.7-2.25-1.445-3.434-2.051c-2.785-1.426-5.638-2.579-8.881-2.522
			c-3.254,0.058-5.645,1.485-7.452,4.102c-1.163,1.686-1.719,3.598-2.19,5.546c-0.06,0.262,0.018,0.56,0.037,0.9
			c1.773,0.061,3.064-0.714,4.198-1.826c0.685-0.672,1.273-1.447,1.97-2.113c1.74-1.682,3.726-2.008,5.916-0.922
			c0.785,0.39,1.464,0.986,2.182,1.504c0.716,0.519,1.403,1.091,2.146,1.576c0.472,0.313,0.998,0.226,1.448-0.129
			c0.233-0.181,0.471-0.369,0.65-0.602C182.563-11.863,183.772-12.812,185.346-13.462z"/>
		<path fill="#7B98DB" d="M176.116,33.018c0.149,2.791-0.785,5.262-2.262,7.563c-0.363,0.564-0.798,1.074-1.184,1.625
			c-1.384,1.97-1.332,2.994,0.235,4.759c0.446,0.499,0.935,0.962,1.39,1.451c0.248,0.271,0.493,0.554,0.699,0.864
			c0.244,0.362,0.069,0.981-0.368,1.116c-0.402,0.128-0.893,0.233-1.27,0.114c-2.368-0.755-3.96-2.31-4.563-4.757
			c-0.371-1.481,0.188-2.789,0.972-3.999c0.563-0.876,1.254-1.666,1.813-2.541c1.529-2.379,2.276-4.996,2.201-7.823
			c-0.045-1.573-0.449-3.08-1.018-4.543c-0.214-0.55-0.402-1.115-0.523-1.69c-0.03-0.143,0.188-0.409,0.353-0.506
			c0.162-0.089,0.451-0.109,0.604-0.02c0.244,0.141,0.467,0.369,0.625,0.608C175.345,27.605,176.259,30.154,176.116,33.018z"/>
		<path fill="#7B98DB" d="M222.082,23.041c-0.363,0.192-0.729,0.384-1.098,0.581c-1.331,0.708-2.078,1.886-2.474,3.281
			c-0.45,1.588-0.013,2.664,1.385,3.648c0.302,0.214,0.631,0.379,0.957,0.565c1.352,0.774,1.973,2.009,2,3.5
			c0.036,2.08-0.66,3.935-2.066,5.482c-0.239,0.257-0.594,0.485-0.927,0.559c-0.322,0.071-0.798,0.041-1.018-0.157
			c-0.209-0.192-0.287-0.673-0.223-0.986c0.123-0.573,0.394-1.114,0.591-1.673c0.223-0.626,0.555-1.243,0.637-1.887
			c0.236-1.801,0.232-2.441-1.502-3.574c-0.245-0.161-0.524-0.278-0.782-0.425c-1.609-0.922-2.25-2.313-1.914-4.121
			c0.385-2.053,1.411-3.762,3.111-4.963c0.904-0.638,1.974-1.124,3.083-0.32C221.939,22.62,221.962,22.787,222.082,23.041z"/>
		<path fill="#7B98DB" d="M190.513,29.969c-0.063-1.514-0.046-2.929,0.472-4.269c0.24-0.614,0.513-1.244,0.899-1.773
			c0.65-0.895,1.786-0.822,2.424,0.104c0.779,1.131,1.095,2.461,1.266,3.771c0.292,2.226,0.152,4.452-0.638,6.591
			c-0.127,0.345-0.28,0.691-0.468,1.007c-0.782,1.3-2.029,1.338-2.809,0.058c-0.705-1.163-1.065-2.446-1.14-3.799
			C190.487,31.065,190.513,30.47,190.513,29.969z"/>
		<path fill="#7B98DB" d="M161.157,29.421c-0.092,2.08-0.209,3.708-0.901,5.231c-0.184,0.405-0.376,0.813-0.638,1.165
			c-0.577,0.767-1.77,0.779-2.282-0.033c-0.431-0.682-0.824-1.442-1.003-2.216c-0.633-2.718-0.68-5.447,0.223-8.128
			c0.166-0.489,0.389-0.971,0.669-1.402c0.668-1.022,1.908-1.026,2.546,0.042c0.415,0.691,0.747,1.468,0.922,2.248
			C160.957,27.482,161.054,28.675,161.157,29.421z"/>
		<path fill="#7B98DB" d="M192.814,9.92c1.754-0.205,3.405,0.372,4.916,1.434c0.944,0.662,1.564,1.586,2.027,2.612
			c0.316,0.689-0.078,1.32-0.816,1.531c-0.787,0.226-1.454-0.032-2.104-0.437c-0.692-0.434-1.361-0.912-2.096-1.274
			c-2.506-1.236-4.869-1.069-7.023,0.817c-0.45,0.391-0.856,0.838-1.336,1.178c-0.35,0.246-0.783,0.436-1.201,0.519
			c-0.699,0.136-1.376-0.621-1.093-1.268c0.322-0.736,0.733-1.466,1.254-2.079C186.851,11.171,189.702,9.639,192.814,9.92z"/>
		<path fill="#7B98DB" d="M175.815,62.42c-3.484-0.273-6.462-1.242-8.824-3.667c-0.546-0.557-0.637-1.001-0.336-1.361
			c0.397-0.474,0.961-0.566,1.612-0.226c0.331,0.17,0.65,0.369,0.943,0.594c1.535,1.181,3.341,1.649,5.193,1.818
			c1.573,0.142,3.122-0.305,4.519-1.009c1.123-0.566,2.163-1.304,3.181-2.047c0.513-0.377,1.018-0.565,1.641-0.523
			c0.899,0.063,1.347,0.774,0.952,1.545c-0.097,0.2-0.205,0.403-0.343,0.571c-1.554,1.889-3.456,3.258-5.88,3.801
			C177.53,62.127,176.576,62.279,175.815,62.42z"/>
		<path fill="#7B98DB" d="M177.143,68.707c-1.744-0.052-3.193-0.3-4.294-1.459c-0.175-0.183-0.343-0.63-0.246-0.763
			c0.188-0.259,0.547-0.431,0.872-0.545c0.176-0.061,0.435,0.042,0.635,0.119c1.632,0.606,3.199,0.349,4.744-0.309
			c0.339-0.144,0.696-0.336,1.046-0.345c0.33-0.008,0.801,0.099,0.975,0.329c0.166,0.226,0.152,0.736,0.008,1.013
			c-0.467,0.886-1.249,1.46-2.21,1.725C178.104,68.621,177.498,68.653,177.143,68.707z"/>
	</g>
</g>
</svg>
