<?xml version="1.0" encoding="utf-8"?>
<!-- Generator: Adobe Illustrator 16.0.0, SVG Export Plug-In . SVG Version: 6.00 Build 0)  -->
<!DOCTYPE svg PUBLIC "-//W3C//DTD SVG 1.1//EN" "http://www.w3.org/Graphics/SVG/1.1/DTD/svg11.dtd">
<svg version="1.1" id="Layer_1" xmlns="http://www.w3.org/2000/svg" xmlns:xlink="http://www.w3.org/1999/xlink" x="0px" y="0px"
	 width="300px" height="300px" viewBox="0 -75 300 300" enable-background="new 0 -75 300 300" xml:space="preserve">
<polygon fill="#C5EFF2" points="152.014,-66.338 196.051,22.894 294.521,37.203 223.269,106.66 240.091,204.73 152.014,158.431 
	63.937,204.73 80.757,106.66 9.502,37.203 107.974,22.894 "/>
<g>
	<path fill="#FFFFFF" d="M188.144,196.107c-0.049-1.044-0.038-1.863-0.137-2.67c-0.597-4.884-0.597-9.796-0.272-14.678
		c0.422-6.367,2.078-12.44,5.26-18.039c1.286-2.257,2.563-4.522,3.756-6.834c1.949-3.785,2.253-7.802,1.263-11.903
		c-0.49-2.013-1.107-4-1.785-5.958c-1.237-3.579-2.478-7.154-2.991-10.929c-0.142-1.025-0.772-1.552-1.733-1.771
		c-2.816-0.646-5.625-1.318-8.45-1.938c-4.434-0.975-8.939-1.478-13.451-1.771c-3.994-0.259-8.013-0.322-12.02,0.209
		c-2.352,0.31-4.712,0.547-7.051,0.958c-5.134,0.898-10.1,2.359-14.957,4.223c-6.346,2.43-12.266,5.668-17.903,9.44
		c-0.183,0.124-0.334,0.297-0.578,0.51c-0.213,1.259-0.078,2.579,0.035,3.909c0.282,3.4,0.541,6.807,0.817,10.209
		c0.23,2.889,0.467,5.775,0.708,8.659c0.185,2.217,0.42,4.434,0.554,6.657c0.232,3.853,0.629,7.69,0.597,11.566
		c-0.031,4.173-1.241,7.899-3.598,11.272c-0.974,1.392-2.145,2.652-3.234,3.969c-0.369,0.446-0.761,0.873-1.183,1.357
		c0.771,0.586,1.596,0.674,2.355,0.922c5.442,1.752,10.983,3.105,16.59,4.24c3.421,0.693,6.873,1.149,10.307,1.693
		c3.143,0.49,6.356,0.583,9.54,0.787c4.678,0.303,9.352,0.324,14.021-0.139c2.442-0.238,4.901-0.274,7.326-0.588
		c3.158-0.414,6.297-0.977,9.433-1.547c1.747-0.316,3.474-0.763,5.202-1.188C187.053,196.612,187.503,196.368,188.144,196.107z"/>
	<path fill="#FFFFFF" d="M121.697,24.865c3.667,2.7,7.83,1.662,9.671-1.914c0.506-0.985,0.942-2.022,1.29-3.075
		c0.794-2.403,1.062-4.926,1.45-7.416c0.539-3.456,1.222-6.875,2.562-10.126c2.17-5.271,5.859-8.87,11.473-10.322
		c0.29-0.078,0.565-0.183,0.851-0.268c2.788-0.832,5.526-1.763,7.714-3.813c0.48-0.455,1.065-0.468,1.668-0.408
		c1.183,0.119,2.366,0.261,3.55,0.337c3.536,0.23,6.632,1.588,9.313,3.827c3.388,2.831,5.379,6.666,7.209,10.583
		c0.025,0.055-0.005,0.136-0.009,0.205c-1.25-0.049-2.51-0.205-3.752-0.129c-2.783,0.172-5.195,1.214-7.023,3.39
		c-0.374,0.443-0.694,0.972-0.896,1.515c-0.105,0.285-0.009,0.822,0.202,1.001c0.297,0.252,0.825,0.457,1.179,0.371
		c0.477-0.119,0.863-0.541,1.302-0.814c1.13-0.706,2.221-1.495,3.414-2.072c2.213-1.074,4.497-0.987,6.641,0.167
		c1.099,0.59,2.142,1.361,3.029,2.231c1.606,1.569,3.242,3.057,5.276,4.053c0.189,0.093,0.33,0.282,0.583,0.5
		c-0.133,1.792-0.206,3.644-0.421,5.48c-0.354,3.019-0.796,6.031-1.209,9.044c-0.814,5.892-2.177,11.658-4.252,17.233
		c-1.903,5.114-4.375,9.93-8.089,14.004c-2.809,3.077-6.102,5.422-10.22,6.416c-2.838,0.686-5.659,0.843-8.598,0.386
		c-4.198-0.651-8.034-2.053-11.568-4.361c-3.452-2.258-6.387-5.078-9.041-8.218c-3.129-3.702-5.759-7.751-8.273-11.877
		c-0.968-1.586-1.875-3.209-2.864-4.781c-0.854-1.354-1.893-1.688-3.189-0.841c-0.733,0.481-1.333,0.436-2.079,0.308
		c-2.109-0.36-4.012-1.222-5.579-2.622c-5.45-4.863-7.315-11.022-6.108-18.111c0.41-2.421,1.798-4.419,3.984-5.669
		c1.794-1.028,3.685-1.533,5.708-0.356c-0.058,1.045,0.208,2.092-0.485,2.925c-1.013,0-1.906-0.056-2.788,0.013
		c-1.151,0.096-1.903,0.861-2.037,2.001c-0.054,0.468,0.078,0.889,0.66,0.953c2.191-1.583,2.382-1.572,4.361,0.153
		c0.531,1.916,1.025,3.687,1.545,5.557c-0.572,0.063-1.074,0.143-1.576,0.167c-1.216,0.051-2.108,0.654-2.775,1.621
		c-1.024,1.489-1.03,3.081-0.284,4.659c0.75,1.588,1.979,2.771,3.477,3.676c0.186,0.111,0.419,0.25,0.61,0.224
		c0.342-0.043,0.793-0.113,0.963-0.341c0.177-0.239,0.175-0.72,0.065-1.031c-0.113-0.323-0.442-0.578-0.691-0.845
		c-0.498-0.55-1.035-1.066-1.502-1.64c-0.597-0.734-0.73-1.602-0.584-2.524c0.166-1.035,0.566-1.473,1.58-1.54
		c0.808-0.056,1.621-0.015,2.242-0.015C120.271,23.565,120.924,24.295,121.697,24.865z M143.061,23.137
		c-1.173-0.16-2.331-0.424-3.497-0.631c-0.362-0.062-0.751-0.164-1.095-0.09c-0.325,0.068-0.713,0.278-0.88,0.541
		c-0.254,0.409-0.077,0.855,0.287,1.185c0.167,0.147,0.334,0.304,0.531,0.405c0.724,0.366,1.426,0.837,2.197,1.042
		c3.878,1.032,7.625,0.754,11.139-1.341c1.038-0.619,1.858-1.464,2.482-2.497c0.153-0.252,0.277-0.526,0.376-0.804
		c0.202-0.564-0.227-1.076-0.802-0.951c-0.286,0.063-0.56,0.181-0.842,0.276c-0.276,0.091-0.55,0.181-0.849,0.282
		c-1.512-0.763-2.337-2.047-2.992-3.492c-0.335-0.742-0.638-1.503-1.058-2.197c-0.151-0.25-0.629-0.483-0.904-0.434
		c-0.276,0.054-0.631,0.434-0.702,0.729c-0.326,1.359-0.067,2.672,0.642,3.855c0.601,1.007,1.319,1.944,2.134,3.128
		C147.187,23.125,145.165,23.427,143.061,23.137z M182.231,16.19c-0.299-0.675-0.623-1.345-0.998-1.981
		c-0.228-0.397-0.871-0.291-1.118,0.117c-0.454,0.765-0.427,1.605-0.189,2.378c0.266,0.836,0.695,1.636,1.131,2.403
		c0.324,0.574,0.783,1.069,1.213,1.639c-0.646,0.97-1.632,1.315-2.617,1.599c-1.37,0.393-2.762,0.584-4.171,0.111
		c-0.56-0.192-1.141-0.367-1.722-0.408c-0.404-0.026-0.885,0.101-1.224,0.315c-0.687,0.428-0.688,1.183-0.075,1.66
		c0.177,0.136,0.366,0.262,0.562,0.358c3.601,1.773,7.158,1.782,10.611-0.362c1.51-0.942,2.415-2.384,2.949-4.066
		c0.067-0.208,0.076-0.436,0.08-0.658c0.009-0.623-0.543-1.116-1.189-0.996c-0.423,0.082-0.825,0.292-1.377,0.494
		C183.124,18.064,182.657,17.15,182.231,16.19z M167.115,48.287c0.397-0.336,0.809-0.687,0.703-1.292
		c-0.076-0.428-0.796-0.681-1.543-0.517c-0.721,0.155-1.442,0.335-2.146,0.562c-4.342,1.388-8.169,0.391-11.603-2.469
		c-0.512-0.426-0.967-0.93-1.512-1.302c-0.348-0.235-0.802-0.379-1.223-0.414c-0.729-0.062-1.331,0.718-0.998,1.337
		c0.455,0.838,0.958,1.688,1.608,2.378c2.627,2.794,5.975,3.981,9.039,4.146C162.762,50.743,165.111,50.005,167.115,48.287z
		 M152.883,4.629c-3.692-2.731-7.72-3.169-11.95-1.451c-1.865,0.756-3.154,2.168-3.865,4.065c-0.16,0.422-0.208,0.876,0.138,1.253
		c0.405,0.444,0.938,0.438,1.438,0.278c0.341-0.107,0.646-0.348,0.944-0.564c0.778-0.567,1.512-1.197,2.32-1.719
		c1.188-0.763,2.444-1.352,3.902-1.472c2.2-0.181,4.066,0.562,5.747,1.897c0.636,0.506,1.196,1.117,1.861,1.576
		c0.328,0.227,0.821,0.298,1.237,0.289c0.228-0.004,0.447-0.315,0.679-0.496C154.992,6.684,154.092,5.52,152.883,4.629z
		 M168.299,28.483c0.257,0.615,0.644,1.177,0.888,1.794c0.242,0.612,0.472,1.257,0.552,1.907c0.299,2.542-1.141,4.318-3.685,4.583
		c-0.663,0.069-1.332,0.014-1.995,0.071c-0.178,0.015-0.446,0.225-0.482,0.379c-0.049,0.255-0.031,0.641,0.128,0.8
		c1.428,1.438,3.188,1.555,4.961,0.936c2.004-0.7,3.317-2.115,3.873-4.256c0.308-1.177,0.032-2.235-0.352-3.255
		c-0.642-1.705-1.771-3.057-3.846-4.038C168.311,27.965,168.206,28.266,168.299,28.483z M160.354,55.868
		c-0.663,0.036-1.328,0.198-1.985,0.167c-1.343-0.066-2.627-0.41-3.778-1.143c-0.663-0.416-1.354-0.584-2.104-0.228
		c-0.383,0.181-0.604,0.814-0.394,1.127c1.962,2.884,6.688,3.615,9.526,1.464c0.109-0.08,0.151-0.248,0.229-0.386
		C161.662,56.078,161.09,55.831,160.354,55.868z"/>
	<path fill="#FFFFFF" d="M121.559,94.091c-2.139,0.015-8.378,1.348-10.299,2.224c0.132,0.381,0.214,0.804,0.414,1.162
		c1.52,2.703,2.266,5.625,2.573,8.695c0.212,2.139,0.539,4.271,0.749,6.412c0.245,2.515,0.399,5.041,0.621,7.557
		c0.3,3.4,0.625,6.802,0.949,10.204c0.02,0.194,0.145,0.379,0.287,0.733c1.377-0.849,2.684-1.668,4.008-2.46
		c1.341-0.795,2.699-1.565,4.055-2.337c1.345-0.758,2.818-1.286,4.194-2.168c-2.137-9.981-4.881-19.693-7.189-29.509
		C121.875,94.411,121.672,94.251,121.559,94.091z"/>
	<path fill="#FFFFFF" d="M165.715,67.716c-0.543,0.052-0.853,0.034-1.126,0.116c-2.628,0.74-5.318,0.609-7.983,0.485
		c-3.44-0.166-6.716-1.156-9.877-2.501c-2.886-1.224-5.566-2.813-8.022-4.777c-0.521-0.412-1.071-0.792-1.58-1.168
		c-0.792,0.243-0.576,0.849-0.519,1.313c0.315,2.589,0.334,5.192,0.27,7.792c-0.022,0.819-0.086,1.634-0.108,2.451
		c-0.017,0.73-0.002,1.462-0.002,2.231c3.355,1.841,6.838,3.068,10.456,3.929c4.683,1.117,9.424,1.169,14.163,0.5
		c1.368-0.189,2.804-0.303,4.09-1.038C165.911,73.985,165.822,70.958,165.715,67.716z"/>
	<path fill="#FFFFFF" d="M194.182,101.052c-3.287-2.147-6.693-3.849-10.477-5.36c-0.08,0.738-0.215,1.225-0.175,1.701
		c0.583,6.732,0.386,13.493,0.615,20.24c0.008,0.215,0.086,0.43,0.149,0.729c1.146,0.842,2.619,0.847,3.924,1.306
		c1.24,0.441,2.499,0.846,3.626,1.221c0.661-0.368,0.563-0.842,0.56-1.263c-0.011-1.708-0.011-3.417-0.059-5.123
		c-0.124-4.268,0.507-8.428,1.692-12.514C194.1,101.779,194.107,101.555,194.182,101.052z"/>
	<path fill="#FFFFFF" d="M177.12,97.291c-0.424,0.044-0.855-0.008-1.213,0.135c-2.067,0.817-4.102,1.721-6.177,2.516
		c-2.695,1.038-5.442,1.897-8.311,2.395c-6.45,1.122-12.676,0.412-18.699-2.122c-2.738-1.154-5.367-2.521-7.899-4.085
		c-0.494-0.303-1.05-0.564-1.61-0.685c-0.268-0.057-0.688,0.196-0.899,0.432c-0.105,0.125,0.006,0.603,0.174,0.779
		c1.542,1.63,3.363,2.901,5.316,3.996c6.191,3.453,12.857,4.785,19.906,4.552c4.282-0.142,8.392-1.025,12.324-2.661
		c2.472-1.031,4.758-2.417,6.655-4.358c0.149-0.155,0.275-0.337,0.401-0.518C177.12,97.609,177.103,97.519,177.12,97.291z"/>
	<path fill="#FFFFFF" d="M110.576,188.667c2.857-2.261,4.639-5.082,5.538-8.459c0.384-1.448,0.539-2.907,0.52-4.4
		c-0.039-3.116-0.024-6.228-0.373-9.339c-0.331-2.943-0.419-5.916-0.627-8.874c-0.035-0.482,0.144-1.06-0.619-1.43
		c-0.647,2.694-0.713,5.413-1.129,8.074c-0.425,2.707-0.731,5.434-1.094,8.158c-0.36,2.716-0.72,5.434-1.09,8.151
		C111.333,183.257,110.949,185.96,110.576,188.667z"/>
	<g>
		<path fill="#7B98DB" d="M130.315,65.337c-2.278,0.201-4.337,0.96-6.11,2.439c-0.685,0.572-1.362,1.156-2.084,1.677
			c-2.277,1.646-4.75,2.131-7.35,0.91c-1.267-0.599-2.438-1.414-3.61-2.199c-1.543-1.033-3.01-2.177-4.571-3.182
			c-1.975-1.271-4.065-1.285-6.157-0.274c-0.868,0.421-1.708,0.911-2.559,1.367c-4.135,2.216-8.381,2.245-12.697,0.604
			c-3.84-1.455-6.716-4.057-8.802-7.543c-3.073-5.137-4.202-10.755-3.892-16.671c0.123-2.3,0.702-4.553,1.634-6.676
			c1.507-3.431,4.144-5.755,7.457-7.354c1.807-0.876,3.633-1.712,5.472-2.516c4.388-1.913,7.722-5.006,10.012-9.167
			c1.214-2.206,2.259-4.525,3.18-6.871c1.082-2.767,1.957-5.612,2.901-8.434c1.386-4.15,2.704-8.326,4.138-12.464
			c1.884-5.443,4.49-10.524,8.054-15.069c3.4-4.331,7.47-7.843,12.586-10.044c3.425-1.477,6.97-2.567,10.633-3.222
			c3.25-0.584,6.511-0.533,9.699,0.498c0.771,0.248,1.553,0.474,2.296,0.698c0.463-0.237,0.853-0.449,1.255-0.645
			c8.12-4.038,16.041-3.731,23.746,1.086c3.246,2.026,5.989,4.631,8.396,7.593c2.303,2.831,4.248,5.9,6.105,9.047
			c3.991,6.756,7.033,13.9,9.261,21.409c1.333,4.486,2.655,8.977,4.1,13.425c1.537,4.723,3.913,8.981,7.397,12.579
			c1.963,2.029,3.897,4.088,5.845,6.134c3.646,3.824,6.015,8.224,6.506,13.592c0.396,4.308-0.011,8.475-1.721,12.449
			c-1.294,3.007-3.215,5.499-6.359,6.855c-1.914,0.822-3.906,0.831-5.912,0.795c-1.561-0.026-3.124-0.086-4.678-0.193
			c-2.563-0.171-4.683,0.607-6.243,2.716c-0.137,0.179-0.301,0.332-0.446,0.502c-1.905,2.236-4.339,2.948-7.206,2.596
			c-2.266-0.276-4.293-1.125-6.247-2.234c-1.16-0.661-2.326-1.319-3.497-1.965c-2.614-1.438-5.488-1.777-8.394-1.95
			c-0.428-0.025-0.901-0.047-1.291,0.522c0.133,0.313,0.213,0.768,0.477,1.074c0.476,0.56,1.021,1.084,1.604,1.529
			c0.712,0.537,1.489,0.981,2.24,1.463c0.623,0.405,1.247,0.818,1.878,1.209c1.529,0.944,2.194,2.29,2.165,4.101
			c-0.051,4.316-0.018,8.629-0.013,12.945c0,0.804,0.033,1.616,0.05,2.514c1.083,0.494,2.091,0.945,3.096,1.408
			c3.101,1.438,6.24,2.8,9.29,4.339c3.32,1.676,6.449,3.681,9.276,6.131c3.257,2.83,5.417,6.335,6.274,10.54
			c0.64,3.12,1.059,6.307,1.059,9.51c-0.004,5.796,1.177,11.362,3.221,16.745c1.083,2.847,2.313,5.641,3.529,8.435
			c1.692,3.884,3.332,7.779,4.59,11.834c1.107,3.566,1.84,7.198,1.997,10.927c0.178,4.189-0.516,8.278-1.669,12.308
			c-0.291,1.019-0.781,1.723-1.634,2.257c-1.448,0.905-2.88,1.847-4.352,2.72c-4.936,2.923-10.076,5.44-15.445,7.449
			c-5.217,1.945-10.545,3.579-16.023,4.64c-3.641,0.704-7.289,1.42-10.969,1.857c-3.388,0.404-6.817,0.508-10.228,0.645
			c-7.739,0.303-15.453,0.059-23.127-1.062c-4.843-0.707-9.656-1.596-14.42-2.737c-5.929-1.414-11.784-3.099-17.521-5.153
			c-9.455-3.377-18.665-7.344-27.566-12.007c-2.435-1.275-4.856-2.579-7.3-3.842c-0.876-0.455-1.329-1.154-1.434-2.105
			c-0.049-0.444-0.09-0.891-0.099-1.333c-0.067-3.051-0.125-6.093,0.496-9.109c0.539-2.624,1.22-5.213,2.368-7.635
			c1.209-2.558,2.685-4.968,4.415-7.213c1.86-2.417,3.692-4.851,5.54-7.271c4.963-6.51,8.753-13.617,10.933-21.538
			c0.788-2.858,1.485-5.743,2.246-8.614c0.78-2.945,1.675-5.854,3.012-8.604c2.029-4.188,4.921-7.595,9.033-9.864
			c2.033-1.124,4.271-1.68,6.54-2.122c2.187-0.425,4.364-0.893,6.539-1.368c1.391-0.301,2.676-0.863,3.911-1.667
			c0.086-0.524,0.214-1.03,0.249-1.537c0.342-5.04,0.667-10.079,1-15.123c0.112-1.713,0.75-3.164,2.147-4.229
			c0.414-0.315,0.83-0.627,1.23-0.959c0.627-0.52,1.255-1.048,1.549-2.156C130.874,65.416,130.59,65.314,130.315,65.337z
			 M188.009,193.438c-0.594-4.884-0.594-9.796-0.271-14.678c0.423-6.367,2.077-12.44,5.261-18.039
			c1.284-2.257,2.561-4.522,3.752-6.834c1.951-3.785,2.257-7.802,1.268-11.903c-0.493-2.013-1.109-4-1.785-5.958
			c-1.238-3.579-2.48-7.154-2.994-10.929c-0.139-1.025-0.771-1.552-1.732-1.771c-2.819-0.646-5.624-1.318-8.451-1.938
			c-4.432-0.975-8.941-1.478-13.451-1.771c-3.996-0.259-8.013-0.322-12.018,0.209c-2.354,0.31-4.714,0.547-7.053,0.958
			c-5.134,0.898-10.1,2.359-14.957,4.223c-6.346,2.43-12.265,5.668-17.903,9.44c-0.183,0.124-0.333,0.297-0.578,0.51
			c-0.213,1.259-0.078,2.579,0.035,3.909c0.282,3.4,0.541,6.807,0.817,10.209c0.23,2.889,0.468,5.775,0.707,8.659
			c0.186,2.217,0.42,4.434,0.554,6.657c0.233,3.853,0.63,7.69,0.597,11.566c-0.032,4.173-1.241,7.899-3.598,11.272
			c-0.974,1.392-2.145,2.652-3.234,3.969c-0.368,0.446-0.761,0.873-1.183,1.357c0.771,0.586,1.596,0.674,2.356,0.922
			c5.442,1.752,10.982,3.105,16.59,4.24c3.421,0.693,6.873,1.149,10.307,1.693c3.144,0.49,6.356,0.583,9.542,0.787
			c4.678,0.303,9.352,0.324,14.021-0.139c2.438-0.238,4.899-0.274,7.324-0.588c3.158-0.414,6.298-0.977,9.433-1.547
			c1.749-0.316,3.472-0.763,5.202-1.188c0.488-0.122,0.938-0.366,1.574-0.623C188.095,195.063,188.107,194.244,188.009,193.438z
			 M117.141,22.757c-1.013,0.067-1.414,0.503-1.58,1.54c-0.148,0.922-0.015,1.792,0.584,2.524c0.467,0.574,1.004,1.09,1.502,1.641
			c0.249,0.266,0.578,0.519,0.69,0.844c0.11,0.311,0.112,0.79-0.065,1.031c-0.169,0.228-0.622,0.3-0.963,0.341
			c-0.191,0.028-0.425-0.113-0.61-0.224c-1.496-0.905-2.727-2.087-3.477-3.676c-0.747-1.578-0.74-3.17,0.284-4.659
			c0.667-0.968,1.557-1.57,2.775-1.621c0.504-0.023,1.006-0.104,1.576-0.167c-0.519-1.871-1.013-3.641-1.545-5.557
			c-1.979-1.728-2.169-1.738-4.361-0.154c-0.584-0.064-0.716-0.487-0.66-0.953c0.134-1.138,0.886-1.905,2.037-2
			c0.882-0.069,1.775-0.014,2.788-0.014c0.693-0.836,0.427-1.88,0.485-2.925c-2.022-1.177-3.915-0.673-5.708,0.356
			c-2.187,1.25-3.572,3.249-3.984,5.669c-1.208,7.089,0.658,13.25,6.107,18.112c1.567,1.397,3.472,2.261,5.58,2.621
			c0.746,0.129,1.346,0.173,2.078-0.308c1.296-0.85,2.335-0.513,3.188,0.841c0.99,1.572,1.897,3.193,2.866,4.781
			c2.514,4.126,5.143,8.175,8.271,11.877c2.654,3.139,5.59,5.96,9.042,8.218c3.534,2.308,7.37,3.711,11.568,4.361
			c2.939,0.457,5.76,0.302,8.598-0.386c4.118-0.994,7.411-3.339,10.22-6.416c3.714-4.074,6.186-8.891,8.089-14.003
			c2.076-5.576,3.438-11.343,4.253-17.234c0.41-3.014,0.854-6.025,1.208-9.044c0.217-1.836,0.291-3.689,0.421-5.48
			c-0.252-0.219-0.396-0.407-0.583-0.5c-2.031-0.996-3.669-2.483-5.275-4.053c-0.887-0.871-1.931-1.641-3.03-2.231
			c-2.143-1.155-4.427-1.241-6.64-0.167c-1.194,0.577-2.284,1.366-3.415,2.071c-0.438,0.274-0.825,0.696-1.301,0.815
			c-0.354,0.086-0.883-0.119-1.18-0.371c-0.21-0.179-0.307-0.716-0.202-1.001c0.202-0.543,0.522-1.071,0.897-1.515
			c1.827-2.178,4.24-3.217,7.023-3.39c1.242-0.076,2.501,0.078,3.751,0.127c0.005-0.064,0.034-0.146,0.009-0.203
			c-1.827-3.917-3.819-7.752-7.209-10.583c-2.682-2.238-5.778-3.596-9.313-3.827c-1.184-0.076-2.366-0.22-3.55-0.337
			c-0.603-0.058-1.189-0.045-1.667,0.408c-2.186,2.048-4.925,2.982-7.712,3.813c-0.287,0.084-0.563,0.189-0.852,0.268
			c-5.614,1.453-9.3,5.052-11.474,10.322c-1.337,3.251-2.022,6.672-2.561,10.126c-0.391,2.49-0.656,5.013-1.451,7.416
			c-0.347,1.053-0.783,2.089-1.29,3.075c-1.841,3.575-6.004,4.614-9.671,1.915c-0.771-0.571-1.427-1.3-2.316-2.122
			C118.762,22.742,117.947,22.701,117.141,22.757z M111.259,96.314c0.132,0.381,0.214,0.804,0.414,1.162
			c1.52,2.703,2.266,5.625,2.573,8.695c0.212,2.139,0.539,4.271,0.749,6.412c0.245,2.515,0.399,5.041,0.621,7.557
			c0.3,3.4,0.625,6.802,0.949,10.204c0.02,0.194,0.145,0.379,0.287,0.733c1.377-0.849,2.684-1.668,4.008-2.46
			c1.341-0.795,2.699-1.565,4.055-2.337c1.345-0.758,2.818-1.286,4.194-2.168c-2.137-9.981-4.881-19.693-7.189-29.509
			c-0.046-0.197-0.247-0.357-0.363-0.516C119.42,94.105,113.181,95.438,111.259,96.314z M164.589,67.83
			c-2.628,0.739-5.318,0.608-7.983,0.485c-3.44-0.167-6.716-1.156-9.877-2.501c-2.886-1.225-5.566-2.814-8.022-4.777
			c-0.521-0.412-1.071-0.792-1.58-1.168c-0.792,0.243-0.576,0.85-0.519,1.313c0.315,2.589,0.334,5.191,0.27,7.791
			c-0.022,0.82-0.086,1.635-0.108,2.452c-0.017,0.73-0.002,1.462-0.002,2.232c3.355,1.841,6.838,3.067,10.456,3.929
			c4.683,1.117,9.424,1.169,14.163,0.5c1.368-0.189,2.804-0.303,4.09-1.039c0.435-3.063,0.346-6.089,0.238-9.333
			C165.172,67.768,164.866,67.748,164.589,67.83z M183.705,95.691c-0.08,0.736-0.215,1.225-0.175,1.696
			c0.583,6.737,0.386,13.495,0.615,20.243c0.008,0.217,0.086,0.428,0.149,0.729c1.146,0.844,2.619,0.844,3.924,1.303
			c1.24,0.446,2.499,0.849,3.626,1.224c0.661-0.368,0.563-0.842,0.56-1.264c-0.011-1.707-0.011-3.417-0.059-5.122
			c-0.124-4.266,0.507-8.426,1.692-12.514c0.062-0.211,0.069-0.434,0.144-0.939C190.895,98.904,187.488,97.203,183.705,95.691z
			 M175.907,97.424c-2.067,0.816-4.102,1.72-6.177,2.516c-2.695,1.036-5.442,1.897-8.311,2.392
			c-6.45,1.125-12.676,0.415-18.699-2.12c-2.738-1.153-5.367-2.52-7.899-4.082c-0.494-0.305-1.05-0.568-1.61-0.687
			c-0.268-0.059-0.688,0.196-0.899,0.434c-0.105,0.122,0.006,0.603,0.174,0.779c1.542,1.63,3.363,2.901,5.316,3.994
			c6.191,3.455,12.857,4.785,19.906,4.55c4.282-0.14,8.392-1.023,12.324-2.659c2.472-1.029,4.758-2.417,6.655-4.36
			c0.149-0.151,0.275-0.337,0.401-0.514c0.036-0.055,0.018-0.146,0.036-0.375C176.696,97.333,176.265,97.283,175.907,97.424z
			 M116.112,180.208c0.384-1.448,0.539-2.907,0.52-4.4c-0.039-3.116-0.024-6.228-0.373-9.339c-0.331-2.943-0.419-5.916-0.627-8.874
			c-0.035-0.482,0.144-1.06-0.619-1.43c-0.647,2.694-0.714,5.413-1.129,8.074c-0.425,2.707-0.731,5.434-1.094,8.158
			c-0.36,2.716-0.72,5.434-1.091,8.151c-0.366,2.703-0.75,5.411-1.125,8.118C113.431,186.406,115.213,183.585,116.112,180.208z"/>
		<path fill="#7B98DB" d="M149.224,22.141c-2.037,0.983-4.059,1.286-6.164,0.996c-1.173-0.16-2.331-0.424-3.497-0.631
			c-0.362-0.062-0.751-0.164-1.095-0.09c-0.325,0.068-0.713,0.278-0.88,0.541c-0.254,0.409-0.077,0.855,0.287,1.185
			c0.167,0.147,0.334,0.304,0.531,0.405c0.724,0.366,1.426,0.837,2.197,1.042c3.878,1.032,7.625,0.754,11.139-1.341
			c1.038-0.619,1.858-1.464,2.482-2.497c0.153-0.252,0.277-0.526,0.376-0.804c0.202-0.564-0.227-1.076-0.802-0.951
			c-0.286,0.063-0.56,0.181-0.842,0.276c-0.276,0.091-0.55,0.181-0.849,0.282c-1.512-0.763-2.337-2.047-2.992-3.492
			c-0.335-0.742-0.638-1.503-1.058-2.197c-0.151-0.25-0.629-0.483-0.904-0.434c-0.276,0.054-0.631,0.434-0.702,0.729
			c-0.326,1.359-0.067,2.672,0.642,3.855C147.693,20.02,148.411,20.957,149.224,22.141z"/>
		<path fill="#7B98DB" d="M184.101,18.792c-0.977-0.729-1.448-1.644-1.869-2.602c-0.299-0.675-0.623-1.345-0.998-1.981
			c-0.228-0.397-0.871-0.291-1.118,0.117c-0.454,0.765-0.427,1.605-0.189,2.378c0.266,0.836,0.695,1.636,1.131,2.403
			c0.324,0.574,0.783,1.069,1.213,1.639c-0.646,0.97-1.632,1.315-2.617,1.599c-1.37,0.393-2.762,0.584-4.171,0.111
			c-0.56-0.192-1.141-0.367-1.722-0.408c-0.404-0.026-0.885,0.101-1.226,0.315c-0.685,0.428-0.687,1.183-0.073,1.66
			c0.177,0.136,0.366,0.262,0.562,0.358c3.601,1.773,7.158,1.782,10.611-0.362c1.51-0.942,2.415-2.384,2.949-4.066
			c0.067-0.208,0.076-0.436,0.08-0.658c0.009-0.623-0.543-1.116-1.189-0.996C185.053,18.381,184.652,18.59,184.101,18.792z"/>
		<path fill="#7B98DB" d="M159.441,50.715c3.32,0.028,5.67-0.709,7.674-2.428c0.397-0.336,0.809-0.687,0.703-1.292
			c-0.076-0.428-0.796-0.681-1.543-0.517c-0.721,0.155-1.442,0.335-2.146,0.562c-4.342,1.388-8.169,0.391-11.603-2.469
			c-0.512-0.426-0.967-0.93-1.512-1.302c-0.348-0.235-0.802-0.379-1.223-0.414c-0.729-0.062-1.332,0.718-0.998,1.337
			c0.455,0.838,0.958,1.688,1.608,2.378C153.03,49.363,156.378,50.551,159.441,50.715z"/>
		<path fill="#7B98DB" d="M155.334,8.285c-0.342-1.601-1.242-2.765-2.451-3.656c-3.692-2.731-7.72-3.169-11.95-1.451
			c-1.865,0.756-3.154,2.168-3.865,4.065c-0.16,0.422-0.208,0.876,0.138,1.253c0.405,0.444,0.938,0.438,1.438,0.278
			c0.341-0.107,0.646-0.348,0.944-0.564c0.778-0.567,1.512-1.197,2.32-1.719c1.188-0.763,2.444-1.352,3.902-1.472
			c2.2-0.181,4.066,0.562,5.747,1.897c0.636,0.506,1.196,1.117,1.861,1.576c0.328,0.227,0.821,0.298,1.237,0.289
			C154.883,8.778,155.103,8.466,155.334,8.285z"/>
		<path fill="#7B98DB" d="M168.341,27.405c-0.03,0.563-0.135,0.86-0.042,1.078c0.257,0.615,0.644,1.177,0.888,1.794
			c0.242,0.612,0.472,1.257,0.552,1.907c0.299,2.542-1.141,4.318-3.685,4.583c-0.663,0.069-1.332,0.014-1.995,0.071
			c-0.178,0.015-0.446,0.225-0.482,0.379c-0.049,0.255-0.031,0.641,0.128,0.8c1.428,1.438,3.188,1.555,4.961,0.936
			c2.004-0.7,3.317-2.115,3.873-4.256c0.308-1.177,0.032-2.235-0.352-3.255C171.545,29.738,170.416,28.387,168.341,27.405z"/>
		<path fill="#7B98DB" d="M161.852,56.87c-0.189-0.79-0.762-1.037-1.497-1.002c-0.663,0.036-1.328,0.198-1.985,0.167
			c-1.343-0.066-2.627-0.41-3.778-1.143c-0.663-0.416-1.354-0.584-2.104-0.228c-0.383,0.181-0.604,0.814-0.394,1.127
			c1.962,2.884,6.688,3.615,9.526,1.464C161.729,57.174,161.773,57.005,161.852,56.87z"/>
	</g>
</g>
</svg>
