<?xml version="1.0" encoding="utf-8"?>
<!-- Generator: Adobe Illustrator 16.0.0, SVG Export Plug-In . SVG Version: 6.00 Build 0)  -->
<!DOCTYPE svg PUBLIC "-//W3C//DTD SVG 1.1//EN" "http://www.w3.org/Graphics/SVG/1.1/DTD/svg11.dtd">
<svg version="1.1" id="Layer_1" xmlns="http://www.w3.org/2000/svg" xmlns:xlink="http://www.w3.org/1999/xlink" x="0px" y="0px"
	 width="30px" height="30px" viewBox="0 0 30 30" enable-background="new 0 0 30 30" xml:space="preserve">
<g>
	<path fill-rule="evenodd" clip-rule="evenodd" fill="#DB287B" d="M29.197,24.129c-0.129,1.999-1.046,3.494-2.851,4.418
		c-0.346-0.101-0.412-0.381-0.458-0.687c-0.191-1.315-0.391-2.629-0.692-3.927c-0.193-0.827-0.026-1.674,0.129-2.498
		c0.097-0.512,0.046-0.98-0.237-1.419c0.124-1.933-0.123-3.879,0.185-5.807c0.311-0.35,0.52-0.098,0.713,0.136
		c0.175,0.214,0.237,0.488,0.321,0.745c0.351,1.059,0.791,2.07,1.362,3.034C28.765,19.971,29.22,21.99,29.197,24.129z"/>
	<path fill-rule="evenodd" clip-rule="evenodd" fill="#D32784" d="M29.197,24.129c-0.467-2.271-0.875-4.549-2.198-6.542
		c-0.546-0.822-0.809-1.796-1.117-2.735c-0.09-0.274-0.118-0.591-0.406-0.765c-0.488-0.322-0.312-0.83-0.336-1.269
		c-0.02-0.361-0.048-0.733,0.093-1.083c0.288-0.428,0.537-0.211,0.753,0.066c0.215,0.275,0.283,0.627,0.404,0.949
		c0.308,0.82,0.774,1.537,1.331,2.205c0.65,0.776,1.29,1.561,1.588,2.555c0,2.017,0.002,4.032-0.007,6.046
		C29.3,23.744,29.233,23.936,29.197,24.129z"/>
	<path fill-rule="evenodd" clip-rule="evenodd" fill="#FECC60" d="M16.506,29.269c-0.496,0-0.992,0-1.489,0
		c-1.657-0.791-3.355-1.48-5.212-1.571c-1.499-0.074-2.943,0.3-4.347,0.805c-0.348,0.125-0.702,0.237-1.042,0.383
		c-0.376-0.099-0.733-0.237-1.028-0.501c-0.211-0.479,0.134-0.7,0.46-0.857c2.052-0.985,4.163-1.6,6.496-1.259
		c0.996,0.145,2.004,0.188,2.967,0.509c0.831,0.368,1.656,0.75,2.383,1.3C16.088,28.371,16.604,28.623,16.506,29.269z"/>
	<path fill-rule="evenodd" clip-rule="evenodd" fill="#9F2EB6" d="M28.499,3.473c0.264,0.368,0.441,0.772,0.512,1.221
		c-0.36,0.386-0.787,0.193-1.188,0.124c-1.955-0.34-3.916-0.554-5.9-0.305c-0.099,0.012-0.192,0.041-0.287,0.07
		c-1.179-0.102-2.291-0.507-3.432-0.777c-0.244-0.058-0.445-0.223-0.417-0.531c0.264-0.454,0.759-0.341,1.139-0.394
		c2.702-0.379,5.405-0.513,8.1,0.124C27.532,3.124,28.026,3.261,28.499,3.473z"/>
	<path fill-rule="evenodd" clip-rule="evenodd" fill="#B32BAD" d="M29.278,6.473c0.008,0.55,0.018,1.1,0.03,1.649
		c-0.278,0.231-0.56,0.114-0.835,0.004c-1.334-0.53-2.698-0.928-4.143-0.986c-0.905-0.54-1.633-1.323-2.541-1.861
		c-0.103-0.062-0.132-0.201-0.096-0.333c0.086-0.147,0.211-0.25,0.361-0.325c0.461-0.149,0.941-0.142,1.393-0.061
		c1.769,0.313,3.543,0.614,5.21,1.329C28.942,6.01,29.188,6.155,29.278,6.473z"/>
	<path fill-rule="evenodd" clip-rule="evenodd" fill="#7935B3" d="M0.729,8.416C0.717,7.559,0.622,6.697,0.833,5.85
		c0.37,0.625,0.82,0.58,1.456,0.332c2.947-1.149,5.959-2.105,9.023-2.902c0.239-0.002,0.479-0.007,0.717,0.009
		c0.291,0.111,0.669,0.068,0.8,0.458c-0.112,0.4-0.455,0.487-0.792,0.549c-0.372,0.067-0.693,0.222-0.984,0.452
		c-0.314,0.153-0.648,0.217-0.995,0.25C9.04,5.094,8.088,5.392,7.237,5.975c-0.244,0.167-0.503,0.31-0.795,0.377
		C5.776,6.329,5.218,6.676,4.63,6.902C3.642,7.282,2.687,7.74,1.766,8.267C1.448,8.449,1.114,8.646,0.729,8.416z"/>
	<path fill-rule="evenodd" clip-rule="evenodd" fill="#D12692" d="M29.309,17.51c-1.22-1.739-2.901-3.183-3.438-5.361
		c-0.061-0.243-0.175-0.463-0.406-0.597c-0.338-0.234-0.332-0.563-0.252-0.914c0.178-0.42,0.52-0.434,0.771-0.169
		c1.057,1.112,2.396,1.925,3.324,3.17C29.309,14.929,29.309,16.22,29.309,17.51z"/>
	<path fill-rule="evenodd" clip-rule="evenodd" fill="#9330C0" d="M28.499,3.473c-0.34,0.213-0.678,0.062-1.008-0.021
		c-3.134-0.785-6.288-0.683-9.448-0.212c-0.068,0.01-0.129,0.072-0.191,0.11c-0.256,0.298-0.543,0.291-0.851,0.092
		c-0.151-0.57,0.348-0.584,0.644-0.66c0.978-0.25,1.961-0.483,2.955-0.662c1.38-0.25,2.76-0.498,4.096-0.938
		c0.304-0.023,0.615,0.032,0.913-0.079C26.916,1.475,27.857,2.291,28.499,3.473z"/>
	<path fill-rule="evenodd" clip-rule="evenodd" fill="#C9279B" d="M29.307,13.639c-1.057-0.596-1.897-1.462-2.791-2.261
		c-0.336-0.3-0.488-0.862-1.086-0.823c-0.708-0.602-0.581-1.415-0.562-2.203c0.222-0.318,0.525-0.256,0.789-0.114
		c1.082,0.59,2.156,1.192,3.204,1.838c0.224,0.135,0.336,0.355,0.445,0.577C29.307,11.648,29.307,12.643,29.307,13.639z"/>
	<path fill-rule="evenodd" clip-rule="evenodd" fill="#8535A9" d="M0.729,8.416c1.58-0.749,3.085-1.664,4.776-2.168
		c0.276-0.083,0.55-0.258,0.849-0.066c0.108,0.138,0.09,0.301,0.008,0.419C5.941,7.208,5.663,7.913,5.115,8.432
		c-1.218,0.37-2.122,1.229-3.102,1.973c-0.372,0.282-0.694,0.75-1.284,0.546C0.729,10.106,0.729,9.26,0.729,8.416z"/>
	<path fill-rule="evenodd" clip-rule="evenodd" fill="#4B5ED4" d="M2.628,2.132C3.664,1.069,5.009,0.75,6.402,0.708
		c2.173-0.065,4.349-0.017,6.523-0.017c-0.067,0.793-0.745,0.688-1.244,0.85c-1.82,0.495-3.697,0.643-5.559,0.862
		C5.167,2.515,4.206,2.595,3.245,2.667C2.896,2.693,2.596,2.583,2.628,2.132z"/>
	<path fill-rule="evenodd" clip-rule="evenodd" fill="#7135BB" d="M11.288,3.499C8.158,4.38,5.095,5.462,2.053,6.606
		c-1.171,0.44-1.168,0.45-1.22-0.757c-0.005-0.298-0.031-0.6,0.142-0.868c0.469-0.451,1.09-0.447,1.667-0.512
		c2.479-0.28,4.922-0.773,7.376-1.203c0.415-0.019,0.829-0.296,1.243,0C11.329,3.337,11.338,3.415,11.288,3.499z"/>
	<path fill-rule="evenodd" clip-rule="evenodd" fill="#BF29A6" d="M29.307,10.653c-1.214-0.697-2.429-1.392-3.638-2.096
		c-0.215-0.124-0.418-0.259-0.674-0.284c-0.634-0.237-0.818-0.716-0.718-1.347c1.813-0.175,3.409,0.558,5.031,1.196
		C29.309,8.965,29.309,9.81,29.307,10.653z"/>
	<path fill-rule="evenodd" clip-rule="evenodd" fill="#FEBA47" d="M2.629,27.832c-0.241-0.158-0.455-0.35-0.589-0.611
		c-0.21-0.416,0.1-0.604,0.371-0.759c1.427-0.813,2.913-1.477,4.584-1.57c0.52-0.026,1.06,0.306,1.559-0.097
		c1.282,0.072,2.546,0.342,3.835,0.357c0.276,0.075,0.481,0.294,0.756,0.368c0.604,0.218,1.199,0.459,1.767,0.761
		c0.311,0.163,0.707,0.322,0.551,0.82c-0.635,0.271-1.147-0.185-1.719-0.285c-2.987-0.66-5.966-1.137-8.942,0.087
		C4.071,27.205,3.436,27.722,2.629,27.832z"/>
	<path fill-rule="evenodd" clip-rule="evenodd" fill="#E12E68" d="M25.341,20.049c0.552,0.624,0.27,1.368,0.203,2.03
		c-0.076,0.771-0.128,1.521,0.07,2.267c0.328,1.241,0.479,2.509,0.602,3.778c0.015,0.143,0.087,0.281,0.131,0.423
		c-0.304,0.247-0.659,0.365-1.04,0.424c-0.253-0.185-0.39-0.44-0.435-0.744c-0.199-1.317-0.488-2.607-1.014-3.836
		c-0.118-0.276-0.127-0.573-0.116-0.871c-0.002-0.483,0.361-0.791,0.567-1.177c0.253-0.479,0.397-1,0.549-1.518
		C24.947,20.523,24.991,20.191,25.341,20.049z"/>
	<path fill-rule="evenodd" clip-rule="evenodd" fill="#FED56E" d="M4.416,28.885c0.152-0.516,0.644-0.598,1.039-0.74
		c3.084-1.119,6.1-1.026,9.015,0.575c0.237,0.133,0.509,0.223,0.548,0.549c-0.597,0-1.195,0-1.792,0
		c-2.471-0.847-4.956-0.853-7.452-0.116C5.294,29.19,4.847,29.081,4.416,28.885z"/>
	<path fill-rule="evenodd" clip-rule="evenodd" fill="#AA3090" d="M0.729,14.831c0-0.595,0-1.192,0-1.788
		c0.766-1.24,1.986-1.976,3.131-2.788c0.444-0.314,0.854-0.222,1.013,0.382c0.016,0.672,0.104,1.349-0.074,2.015
		c-0.9,1.124-2.254,1.558-3.447,2.234C1.157,14.998,0.922,15.012,0.729,14.831z"/>
	<path fill-rule="evenodd" clip-rule="evenodd" fill="#AA2DB5" d="M29.278,6.473c-2.334-0.914-4.712-1.627-7.25-1.633
		c-0.332,0.034-0.52-0.078-0.453-0.448c0.356-0.271,0.772-0.281,1.197-0.3c2.11-0.099,4.178,0.205,6.238,0.602
		C29.212,5.27,29.288,5.865,29.278,6.473z"/>
	<path fill-rule="evenodd" clip-rule="evenodd" fill="#6643C3" d="M10.097,3.498c-2.724,0.747-5.535,0.988-8.31,1.445
		C1.521,4.985,1.245,4.969,0.975,4.981C1.003,4.493,1.17,4.055,1.45,3.656c2.377-0.366,4.771-0.59,7.156-0.894
		c0.715,0.173,1.432-0.065,2.147,0.009c0.255,0.238,0.087,0.372-0.122,0.499C10.463,3.371,10.267,3.401,10.097,3.498z"/>
	<path fill-rule="evenodd" clip-rule="evenodd" fill="#99329C" d="M4.606,10.557C4.451,10.041,4.193,10.382,4,10.504
		c-0.944,0.598-1.76,1.363-2.613,2.081c-0.206,0.174-0.358,0.42-0.658,0.458c0-0.698,0-1.395,0-2.092
		c1.006-0.741,2.008-1.487,3.019-2.22C4.13,8.454,4.54,8.228,5.04,8.273C5.36,8.939,5.133,10.136,4.606,10.557z"/>
	<path fill-rule="evenodd" clip-rule="evenodd" fill="#FEC352" d="M2.629,27.832c0.229-0.469,0.711-0.589,1.121-0.805
		c2.11-1.103,4.337-1.394,6.688-1.06c0.852,0.116,1.714,0.179,2.563,0.34c0.292,0.059,0.585,0.104,0.824,0.302
		c0.08,0.38-0.208,0.388-0.447,0.448c-1.152-0.296-2.326-0.482-3.507-0.562c-2.211-0.154-4.258,0.465-6.204,1.473
		c-0.166,0.087-0.252,0.233-0.279,0.415C3.083,28.271,2.83,28.088,2.629,27.832z"/>
	<path fill-rule="evenodd" clip-rule="evenodd" fill="#7449C8" d="M10.097,3.498c0.205-0.253,0.595-0.272,0.746-0.594
		c0.193-0.344,0.544-0.391,0.877-0.472c2.389-0.584,4.757-1.257,7.196-1.614c0.148-0.022,0.289-0.063,0.422-0.127
		c1.34,0.007,2.678,0.013,4.018,0.02c-0.346,0.683-1.084,0.551-1.623,0.655c-2.957,0.574-5.887,1.291-8.841,1.885
		c-0.527,0.106-1.06,0.173-1.6,0.101C10.893,3.4,10.495,3.449,10.097,3.498z"/>
	<path fill-rule="evenodd" clip-rule="evenodd" fill="#FDAE39" d="M8.455,24.994c-0.032,0.553-0.467,0.273-0.661,0.251
		c-2.125-0.231-3.868,0.757-5.62,1.718c-0.07,0.041-0.091,0.169-0.134,0.258c-0.277-0.254-0.475-0.558-0.59-0.915
		c-0.058-0.521,0.313-0.763,0.682-0.96c1.313-0.694,2.628-1.41,4.198-1.268c0.157,0.015,0.289-0.046,0.427-0.099
		C7.468,24.072,8.032,24.414,8.455,24.994z"/>
	<path fill-rule="evenodd" clip-rule="evenodd" fill="#6A4FC8" d="M19.338,0.69c-0.412,0.475-1.029,0.464-1.561,0.602
		c-2.179,0.563-4.374,1.068-6.564,1.59c-0.119,0.028-0.246,0.015-0.37,0.021c-0.741,0.116-1.485,0.189-2.237,0.149
		C8.561,2.729,8.822,2.725,9.021,2.65c0.643-0.244,1.301-0.445,1.941-0.695c1.708-0.587,3.472-0.944,5.246-1.265
		C17.25,0.69,18.296,0.69,19.338,0.69z"/>
	<path fill-rule="evenodd" clip-rule="evenodd" fill="#FA9929" d="M6.812,24.123C6.565,24.556,6.15,24.324,5.81,24.37
		c-1.646,0.213-3.125,0.797-4.36,1.936c-0.339-0.438-0.422-0.976-0.57-1.489c0.117-0.285,0.302-0.507,0.605-0.604
		c1.435-0.465,2.796-1.245,4.39-1.036C6.417,23.264,6.782,23.527,6.812,24.123z"/>
	<path fill-rule="evenodd" clip-rule="evenodd" fill="#EC6E34" d="M0.829,24.091C0.6,22.95,0.727,21.797,0.729,20.646
		c0.788-0.936,1.824-1.495,2.942-1.919c0.352-0.135,0.727-0.182,1.044,0.12c0.289,0.453,0.411,0.928,0.179,1.444
		c-0.154,0.258-0.423,0.32-0.682,0.395c-0.891,0.262-1.64,0.776-2.372,1.322c-0.435,0.323-0.74,0.718-0.688,1.303
		c0.021,0.228-0.058,0.439-0.147,0.645C0.963,24.021,0.903,24.064,0.829,24.091z"/>
	<path fill-rule="evenodd" clip-rule="evenodd" fill="#F88B1F" d="M5.939,23.29c-0.125,0.139-0.288,0.188-0.468,0.185
		c-1.673-0.038-3.083,0.821-4.592,1.342c-0.017-0.241-0.034-0.484-0.05-0.726l0.049-0.036c0.704-1.149,1.813-1.772,2.997-2.279
		c0.418-0.182,0.873-0.099,1.303,0.046C5.651,22.197,6.046,22.616,5.939,23.29z"/>
	<path fill-rule="evenodd" clip-rule="evenodd" fill="#E46144" d="M4.586,18.858c-1.104,0.064-1.973,0.659-2.836,1.263
		c-0.317,0.224-0.592,0.525-1.021,0.525c0-0.547,0-1.093,0-1.64c0.852-1.082,2.083-1.531,3.319-1.959
		c0.265-0.093,0.541-0.006,0.718,0.257C4.918,17.849,5.064,18.39,4.586,18.858z"/>
	<path fill-rule="evenodd" clip-rule="evenodd" fill="#5555CE" d="M2.628,2.132c0.135,0.248,0.337,0.326,0.619,0.29
		c2.222-0.287,4.446-0.559,6.667-0.85c0.61-0.079,1.215-0.205,1.822-0.309c0.063,0.77-0.635,0.717-1.05,0.971
		C8.93,2.756,7.138,3.032,5.306,3.083C4.495,3.105,3.69,3.279,2.872,3.215C2.519,3.187,2.17,3.166,2.036,2.75
		C2.17,2.483,2.382,2.291,2.628,2.132z"/>
	<path fill-rule="evenodd" clip-rule="evenodd" fill="#803CC5" d="M11.292,3.351c3.209-0.696,6.417-1.398,9.627-2.086
		c0.813-0.174,1.598-0.49,2.437-0.554c0.772,0.002,1.537,0.06,2.253,0.392c-0.163,0.32-0.458,0.313-0.752,0.311
		c-3.862,0.641-7.725,1.289-11.568,2.036c-0.412,0.08-0.835,0.011-1.251,0.049c-0.25,0-0.499,0.001-0.748,0.001
		C11.29,3.45,11.291,3.401,11.292,3.351z"/>
	<path fill-rule="evenodd" clip-rule="evenodd" fill="#D85256" d="M4.563,17.219c-1.047,0.161-1.906,0.742-2.804,1.239
		c-0.341,0.187-0.623,0.484-1.03,0.549c0-0.499,0-0.998,0-1.497c0.127-0.306,0.346-0.519,0.631-0.688
		c0.758-0.455,1.546-0.851,2.349-1.217c0.354-0.161,0.737-0.343,1.061,0.083C4.911,16.226,5.076,16.767,4.563,17.219z"/>
	<path fill-rule="evenodd" clip-rule="evenodd" fill="#E63D5B" d="M23.953,23.449c0.324,1.365,0.985,2.639,1.133,4.058
		c0.052,0.49,0.146,0.976,0.221,1.464c-0.382,0.157-0.776,0.226-1.187,0.195c-0.169-0.085-0.266-0.233-0.284-0.41
		c-0.135-1.425-0.549-2.786-0.931-4.156c-0.026-0.093-0.03-0.195-0.026-0.292C23.044,23.778,23.336,23.408,23.953,23.449z"/>
	<path fill-rule="evenodd" clip-rule="evenodd" fill="#574CCD" d="M2.036,2.75c0.693,0.285,1.421,0.175,2.126,0.125
		c2.235-0.157,4.478-0.258,6.681-0.719c0.05-0.06,0.099-0.06,0.148,0.002c-0.74,0.443-1.62,0.516-2.385,0.894
		c-1.75,0.226-3.499,0.451-5.248,0.679C2.898,3.792,2.438,3.862,1.977,3.924C1.742,3.957,1.528,3.939,1.45,3.656
		C1.562,3.301,1.755,2.998,2.036,2.75z"/>
	<path fill-rule="evenodd" clip-rule="evenodd" fill="#EC4A4D" d="M23.072,24.239c0.561,1.596,1.072,3.205,1.048,4.927
		c-0.389,0.159-0.791,0.116-1.191,0.097c-0.34-1.281-0.609-2.583-1.136-3.809c-0.089-0.205-0.115-0.428-0.021-0.647
		C22.118,24.418,22.475,24.053,23.072,24.239z"/>
	<path fill-rule="evenodd" clip-rule="evenodd" fill="#FDDB79" d="M5.772,29.152c0.095-0.189,0.256-0.309,0.449-0.368
		c2.271-0.708,4.523-0.767,6.734,0.235c0.105,0.05,0.18,0.167,0.27,0.249c-2.268,0-4.535,0.004-6.802-0.004
		C6.205,29.263,5.989,29.19,5.772,29.152z"/>
	<path fill-rule="evenodd" clip-rule="evenodd" fill="#F15A3F" d="M21.877,24.867c0.497,1.104,0.875,2.249,1.125,3.434
		c0.066,0.314,0.261,0.666-0.073,0.962c-0.249,0.002-0.501,0.002-0.75,0.006c-0.368-0.795-0.807-1.549-1.251-2.306
		c-0.083-0.285-0.282-0.492-0.465-0.72c-0.241-0.304-0.609-0.602-0.358-1.084C20.662,24.867,21.211,24.507,21.877,24.867z"/>
	<path fill-rule="evenodd" clip-rule="evenodd" fill="#FDAE4B" d="M15.464,27.058c-0.628-0.744-1.582-0.909-2.384-1.34
		c0.104-0.167,0.265-0.217,0.446-0.195c1.704,0.21,3.347,0.573,4.611,1.869c0.106,0.104,0.241,0.167,0.378,0.226
		c0.497,0.44,1.103,0.826,0.824,1.651c-0.448,0-0.895,0-1.342,0c-0.83-0.505-1.496-1.215-2.283-1.778
		C15.573,27.392,15.463,27.251,15.464,27.058z"/>
	<path fill-rule="evenodd" clip-rule="evenodd" fill="#BF387B" d="M0.729,14.831c1.058-0.482,2.093-1.007,3.063-1.653
		c0.245-0.164,0.463-0.38,0.77-0.436c0.495,0.389,0.321,0.897,0.256,1.387c-0.184,0.375-0.518,0.597-0.872,0.768
		c-0.757,0.364-1.521,0.708-2.256,1.118c-0.301,0.169-0.639,0.304-0.962,0.012C0.729,15.627,0.729,15.229,0.729,14.831z"/>
	<path fill-rule="evenodd" clip-rule="evenodd" fill="#CC4669" d="M0.729,16.026c1.35-0.444,2.546-1.216,3.833-1.792
		c0.455,0.447,0.455,0.895,0,1.343c-1.352,0.497-2.561,1.279-3.833,1.932C0.729,17.018,0.729,16.52,0.729,16.026z"/>
	<path fill-rule="evenodd" clip-rule="evenodd" fill="#FEBC58" d="M15.464,27.058c0.961,0.604,1.955,1.171,2.534,2.211
		c-0.496,0-0.995,0-1.492,0c-0.667-0.928-1.673-1.39-2.63-1.919c-0.168-0.093-0.332-0.195-0.498-0.292
		c0.149-0.148,0.298-0.298,0.447-0.448C14.426,26.561,14.911,26.931,15.464,27.058z"/>
	<path fill-rule="evenodd" clip-rule="evenodd" fill="#F57642" d="M21.129,26.909c0.46,0.738,1.255,1.325,1.05,2.359
		c-0.398,0-0.799,0-1.199,0.002c-0.378-0.296-0.617-0.688-0.799-1.124c-0.074-0.294-0.271-0.505-0.446-0.74
		c-0.223-0.298-0.511-0.624-0.201-1.043C20.215,26.106,20.716,26.378,21.129,26.909z"/>
	<path fill-rule="evenodd" clip-rule="evenodd" fill="#5959CF" d="M10.991,2.158c-0.05-0.001-0.099-0.001-0.148-0.002
		c0.313-0.283,0.678-0.513,0.894-0.893c0.387-0.209,0.914-0.13,1.189-0.573c1.093,0,2.188,0,3.282,0
		c-0.125,0.212-0.339,0.278-0.555,0.332C14.099,1.402,12.545,1.78,10.991,2.158z"/>
	<path fill-rule="evenodd" clip-rule="evenodd" fill="#F99148" d="M20.382,28.102c0.298,0.34,0.594,0.678,0.598,1.169
		c-0.545,0-1.092-0.002-1.64-0.002c-0.13-0.59-0.575-0.989-0.895-1.467c-0.199-0.289-0.634-0.467-0.451-0.938
		c0.884-0.192,1.423,0.445,2.046,0.863C20.171,27.816,20.264,27.981,20.382,28.102z"/>
	<path fill-rule="evenodd" clip-rule="evenodd" fill="#FEFEFE" d="M4.562,15.578c0-0.448,0-0.896,0-1.343c0-0.498,0-0.996,0-1.493
		c0.015-0.728,0.029-1.457,0.044-2.186c0.145-0.76,0.289-1.522,0.434-2.283c0.323-0.77,0.817-1.431,1.313-2.092
		C7.695,5.059,9.294,4.667,10.99,4.55c1.108-0.412,2.255-0.366,3.405-0.287c1.314-0.025,2.627-0.059,3.941-0.047
		c0.922,0.008,1.831,0.103,2.723,0.34c0.268,0.072,0.521,0.169,0.657,0.439c0.996,0.456,1.875,1.066,2.562,1.931
		c0.239,0.449,0.479,0.898,0.718,1.347c0.145,0.761,0.29,1.521,0.435,2.282c0.012,0.333,0.022,0.665,0.034,0.997
		c0.004,0.845,0.008,1.689,0.012,2.535c-0.068,1.988,0.041,3.979-0.135,5.962c-0.175,1.249-0.605,2.396-1.388,3.4
		c-0.294,0.261-0.588,0.524-0.881,0.79c-0.398,0.209-0.797,0.419-1.195,0.628c-0.596,0.146-1.188,0.289-1.784,0.433
		c-0.372,0.454-0.881,0.467-1.393,0.402c-0.342-0.04-0.672-0.072-1.002,0.038c-0.653,0.078-1.299-0.186-1.955-0.047
		c-1.096,0.073-2.174-0.088-3.252-0.253c-1.354-0.066-2.714-0.08-4.036-0.446c-0.633-0.127-1.098-0.576-1.643-0.871
		c-0.291-0.278-0.582-0.554-0.873-0.833c-0.256-0.433-0.513-0.867-0.77-1.3c-0.607-0.567-0.711-0.941-0.454-1.642
		c-0.043-0.497-0.086-0.991-0.129-1.49c-0.008-0.548-0.016-1.095-0.024-1.64C4.562,16.67,4.562,16.123,4.562,15.578z"/>
	<path fill-rule="evenodd" clip-rule="evenodd" fill="#972BAA" d="M21.716,4.995c-2.401-0.617-4.86-0.386-7.295-0.475
		c-0.194-0.36,0.019-0.571,0.309-0.677c0.66-0.24,1.299-0.561,2.018-0.606c0.078,0.019,0.149,0.057,0.209,0.112
		c0.298,0,0.598,0.001,0.896,0.001c1.241,0.347,2.482,0.695,3.724,1.042c0.104,0.195,0.254,0.347,0.453,0.448
		C21.923,4.892,21.82,4.943,21.716,4.995z"/>
	<path fill-rule="evenodd" clip-rule="evenodd" fill="#873CBD" d="M16.956,3.349c-0.05,0.001-0.101,0.002-0.152,0.003
		c-1.077,0.203-2.122,0.562-3.219,0.662c-0.303,0.027-0.591,0.057-0.804-0.217c-0.248-0.1-0.496-0.2-0.744-0.3
		c1.394-0.529,2.876-0.671,4.323-0.957C19.165,1.985,22,1.605,24.856,1.413c-2.114,0.497-4.227,0.993-6.341,1.492
		C17.988,3.028,17.445,3.091,16.956,3.349z"/>
	<path fill-rule="evenodd" clip-rule="evenodd" fill="#872FAB" d="M12.78,3.797c1.341-0.148,2.682-0.296,4.023-0.445
		c-0.568,0.198-1.139,0.394-1.707,0.594c-0.298,0.104-0.614,0.191-0.676,0.574c-1.144,0.011-2.287,0.021-3.431,0.03
		C11.477,4.039,12.174,4.025,12.78,3.797z"/>
	<path fill-rule="evenodd" clip-rule="evenodd" fill="#FDA43B" d="M12.491,25.44c1.092,0,2.184,0,3.275,0
		c0.596,0.226,1.255,0.304,1.774,0.716c0.241,0.193,0.581,0.334,0.463,0.751c0.171,0.289,0.412,0.539,0.442,0.895
		c-0.562-0.171-0.909-0.657-1.404-0.933c-1.238-0.69-2.579-0.986-3.96-1.151C12.854,25.688,12.655,25.604,12.491,25.44z"/>
	<path fill-rule="evenodd" clip-rule="evenodd" fill="#F27A27" d="M4.715,20.349c0.151,0.547,0.303,1.093,0.454,1.642
		c-1.529-0.251-2.495,0.791-3.567,1.573c-0.236,0.173-0.442,0.386-0.724,0.491c0.042-0.64-0.284-1.362,0.322-1.884
		C2.226,21.292,3.25,20.391,4.715,20.349z"/>
	<path fill-rule="evenodd" clip-rule="evenodd" fill="#F87131" d="M17.709,25.438c0.794-0.044,1.589-0.093,2.384-0.139
		c0.358,0.529,0.897,0.939,1.036,1.609c-0.523-0.229-1.07-0.374-1.636-0.447C18.666,26.587,17.884,26.139,17.709,25.438z"/>
	<path fill-rule="evenodd" clip-rule="evenodd" fill="#FA8F3B" d="M17.709,25.438c0.492,0.519,1.199,0.666,1.784,1.023
		c0.226,0.586,0.774,0.992,0.889,1.64c-0.792-0.398-1.587-0.796-2.379-1.192c-0.443-0.537-1.093-0.738-1.668-1.059
		c-0.206-0.112-0.502-0.104-0.569-0.41C16.413,25.44,17.063,25.438,17.709,25.438z"/>
	<path fill-rule="evenodd" clip-rule="evenodd" fill="#BD2D8F" d="M6.539,11.258c-0.02-0.417-0.065-0.834,0.109-1.233
		c0.074,0.015,0.142,0.045,0.204,0.088c0.267,0.194,0.396-0.065,0.571-0.173c2.667-1.677,5.527-2.781,8.714-2.872
		c0.99-0.028,1.984-0.04,2.968,0.146c0.3,0.057,0.582,0.115,0.81,0.331c0.201,0.2,0.267,0.442,0.219,0.718
		c-0.078,0.336-0.29,0.529-0.628,0.585c-3.384-0.344-6.578,0.313-9.609,1.826c-0.797,0.397-1.598,0.788-2.404,1.167
		C6.987,11.954,6.729,11.663,6.539,11.258z"/>
	<path fill-rule="evenodd" clip-rule="evenodd" fill="#F9721F" d="M17.254,23.469c-0.794,0-1.59,0-2.386,0
		c-1.586-2.295-3.93-2.72-6.487-2.655c-0.557,0.012-0.794,0.569-1.295,0.64c-0.3-0.463-0.469-0.962-0.436-1.517
		c0.035-0.545,0.478-0.569,0.852-0.63c1.455-0.233,2.907-0.319,4.335,0.177c0.161,0.057,0.345,0.038,0.518,0.032
		c0.56-0.006,1.05,0.216,1.531,0.469c0.298,0.298,0.621,0.518,1.051,0.64c0.872,0.248,1.601,0.771,2.212,1.433
		C17.646,22.594,17.652,22.962,17.254,23.469z"/>
	<path fill-rule="evenodd" clip-rule="evenodd" fill="#B12994" d="M19.789,7.674c-2.207-0.448-4.43-0.532-6.595,0.111
		c-2.151,0.638-4.312,1.304-6.097,2.788c-0.505,0.42-0.382-0.117-0.408-0.368c1.011-2.313,2.958-3.208,5.303-3.5
		c0.512-0.063,1.041-0.013,1.532-0.217c2.19-0.014,4.381-0.158,6.564,0.141C20.416,7.1,20.33,7.452,19.789,7.674z"/>
	<path fill-rule="evenodd" clip-rule="evenodd" fill="#E0266F" d="M23.511,13.79c0.064,1.342,0.05,2.684-0.006,4.027
		c-0.224,0.37-0.146,0.818-0.324,1.207c-0.302,0.657-0.819,0.864-1.348,0.392c-0.736-0.659-1.656-1.239-1.6-2.442
		c0.008-0.195-0.159-0.356-0.219-0.546c0.106-1.111-0.047-2.213-0.129-3.316c0.042-0.113,0.108-0.207,0.211-0.271
		c0.438-0.125,0.615,0.215,0.814,0.482c0.28,0.374,0.543,0.756,0.894,1.075c0.348,0.319,0.619,0.321,0.896-0.102
		C22.881,14.021,23.002,13.569,23.511,13.79z"/>
	<path fill-rule="evenodd" clip-rule="evenodd" fill="#D42982" d="M23.511,13.79c-0.354,0.07-0.4,0.403-0.543,0.649
		c-0.427,0.734-0.729,0.765-1.376,0.191c-0.563-0.499-0.865-1.192-1.354-1.74c-0.555-0.721-0.217-1.476-0.086-2.223
		c0.589-0.321,1.141-0.693,1.655-1.123c0.547,0.089,0.964,0.609,1.577,0.482C23.631,11.273,23.53,12.533,23.511,13.79z"/>
	<path fill-rule="evenodd" clip-rule="evenodd" fill="#C72C7D" d="M6.539,11.258c0.292,0.147,0.584,0.293,0.876,0.44
		c1.163-0.155,2.101-0.847,3.121-1.334c1.623-0.778,3.289-1.356,5.109-1.35c1.038,0.005,2.044,0.353,3.092,0.324
		c0.233-0.007,0.495,0.111,0.487,0.446c-0.266,0.407-0.674,0.453-1.099,0.412c-0.271-0.026-0.533-0.062-0.79,0.044
		c-0.354,0.089-0.681-0.041-1.014-0.126c-2.229-0.572-4.449,0.354-5.655,2.337c-0.213,0.35-0.355,0.776-0.797,0.937
		c-0.82,0.324-1.674,0.419-2.547,0.414c-0.311-0.002-0.592-0.06-0.799-0.314C6.529,12.745,6.533,12.002,6.539,11.258z"/>
	<path fill-rule="evenodd" clip-rule="evenodd" fill="#FA7D16" d="M7.085,21.453c0.271-0.732,0.809-0.938,1.563-0.974
		c2.086-0.101,3.932,0.497,5.64,1.659c0.509,0.345,0.631,0.779,0.579,1.33c-0.249,0-0.497,0-0.745,0
		c-1.127-1.129-2.604-1.171-4.048-1.261c-0.364-0.022-0.786,0.076-1.023,0.479c-0.099,0.169-0.264,0.296-0.496,0.223
		C7.863,22.626,7.38,22.133,7.085,21.453z"/>
	<path fill-rule="evenodd" clip-rule="evenodd" fill="#F36B2C" d="M12.477,19.755c-0.661-0.08-1.32-0.175-1.983-0.237
		c-1.309-0.126-2.607-0.124-3.845,0.419c-0.193-0.497-0.125-1.014-0.114-1.525c0.219-0.361,0.535-0.535,0.958-0.617
		c0.985-0.193,1.958-0.209,2.934,0.016C11.297,18.261,12.048,18.838,12.477,19.755z"/>
	<path fill-rule="evenodd" clip-rule="evenodd" fill="#F65D2C" d="M17.254,23.469c0.366-0.847-0.521-1.484-1.515-2.166
		c-0.607-0.415-1.436-0.431-1.916-1.068c0.094-0.173,0.264-0.235,0.437-0.218c0.719,0.074,1.424-0.074,2.134-0.106
		c1.42,0.453,2.291,1.553,3.088,2.712c0.315,0.459,0.167,0.672-0.433,0.831C18.449,23.459,17.852,23.465,17.254,23.469z"/>
	<path fill-rule="evenodd" clip-rule="evenodd" fill="#FB8B1E" d="M8.556,22.909c0.458-1.062,1.294-1.126,2.302-0.976
		c0.903,0.14,1.798,0.244,2.637,0.632c0.396,0.184,0.639,0.449,0.627,0.903c-1.57,0.028-3.143,0.125-4.695-0.201
		C9.124,23.203,8.801,23.139,8.556,22.909z"/>
	<path fill-rule="evenodd" clip-rule="evenodd" fill="#EB5940" d="M10.518,17.965c-0.156,0.083-0.312,0.133-0.497,0.097
		c-1.197-0.243-2.354-0.064-3.485,0.35c-0.004-0.647-0.008-1.293-0.012-1.939c0.316-0.519,0.872-0.529,1.369-0.583
		c0.607-0.066,1.23-0.109,1.829,0.103C10.326,16.512,10.64,17.152,10.518,17.965z"/>
	<path fill-rule="evenodd" clip-rule="evenodd" fill="#EF4649" d="M22.336,22.29c-0.34,0.463-0.825,0.706-1.36,0.857
		c-0.594-0.197-0.778-0.791-1.156-1.199c-0.533-0.573-0.978-1.231-1.62-1.704c-0.219-0.161-0.402-0.368-0.437-0.66
		c0.222-0.604,0.605-1.021,1.277-1.104c0.944,0.618,1.577,1.535,2.27,2.391C21.676,21.32,22.126,21.723,22.336,22.29z"/>
	<path fill-rule="evenodd" clip-rule="evenodd" fill="#B72189" d="M23.384,10.026c-0.036,0.358-0.173,0.608-0.545,0.313
		c-0.324-0.256-0.905-0.188-0.982-0.759c-0.137-0.063-0.273-0.139-0.331-0.279c-0.228-0.533-0.632-0.788-1.203-0.813
		c-0.147-0.007-0.29-0.058-0.379-0.196c-0.052-0.206-0.104-0.412-0.154-0.619c0.175-0.327,0.34-0.657,0.3-1.046
		C21.985,6.801,23.245,8.099,23.384,10.026z"/>
	<path fill-rule="evenodd" clip-rule="evenodd" fill="#9F2E90" d="M13.525,6.487c-0.359,0.377-0.868,0.346-1.313,0.415
		c-2.165,0.338-4.019,1.165-5.229,3.101c-0.058,0.092-0.194,0.136-0.294,0.202c-0.014-0.059-0.028-0.12-0.042-0.18
		c0.135-1.826,1.245-3.071,3.042-3.394C10.96,6.403,12.244,6.459,13.525,6.487z"/>
	<path fill-rule="evenodd" clip-rule="evenodd" fill="#F3543A" d="M17.838,19.597c1.315,0.945,2.325,2.162,3.138,3.551
		c-0.63,0.198-1.261,0.357-1.927,0.306c0.227-0.137,0.537-0.248,0.27-0.6c-0.793-1.042-1.602-2.072-2.822-2.66
		C16.787,19.561,17.153,19.397,17.838,19.597z"/>
	<path fill-rule="evenodd" clip-rule="evenodd" fill="#EA3758" d="M22.336,22.29c-0.239-0.022-0.421-0.151-0.556-0.334
		c-0.792-1.074-1.636-2.104-2.585-3.044c-0.08-0.078-0.101-0.219-0.146-0.33c-0.161-0.503,0.135-0.716,0.545-0.854
		c0.099,0.002,0.201,0.012,0.283,0.072c1.328,0.954,2.433,2.101,3.104,3.617C22.851,21.769,22.657,22.079,22.336,22.29z"/>
	<path fill-rule="evenodd" clip-rule="evenodd" fill="#E22861" d="M22.981,21.417c-0.594-0.294-0.789-0.936-1.183-1.4
		c-0.67-0.797-1.459-1.46-2.165-2.217c-0.209-0.613-0.03-1.065,0.563-1.343c0.097,0.141,0.279,0.281,0.275,0.423
		c-0.024,1.109,0.855,1.62,1.497,2.278c0.45,0.46,0.689,0.374,0.991-0.231c0.184-0.37,0.149-0.848,0.544-1.11
		C23.355,19.019,23.609,20.282,22.981,21.417z"/>
	<path fill-rule="evenodd" clip-rule="evenodd" fill="#E04755" d="M9.764,16.174c-1.093-0.039-2.178,0.01-3.241,0.298
		c-0.002-0.546-0.004-1.093-0.006-1.641c0.319-0.412,0.812-0.335,1.231-0.383c0.645-0.074,1.305-0.294,1.953,0.013
		C10.055,15.018,10.129,15.589,9.764,16.174z"/>
	<path fill-rule="evenodd" clip-rule="evenodd" fill="#D53967" d="M9.632,14.533c-1.034,0.145-2.064,0.318-3.114,0.298
		c0.002-0.448,0.003-0.894,0.006-1.342c1.15,0.085,2.271-0.159,3.401-0.3C10.281,13.736,10.143,14.175,9.632,14.533z"/>
	<path fill-rule="evenodd" clip-rule="evenodd" fill="#C52B8C" d="M19.189,9.762c-2.944-0.455-5.881-0.939-8.598,0.897
		c-0.632,0.427-1.353,0.729-2.045,1.06c-0.365,0.175-0.758,0.233-1.131-0.02c1.239-0.948,2.676-1.518,4.122-2.025
		c2.25-0.79,4.562-1.347,6.98-1.257c0.352,0.012,0.698,0.012,0.97,0.285c0.239,0.364,0.207,0.709-0.066,1.042
		C19.349,9.8,19.27,9.806,19.189,9.762z"/>
	<path fill-rule="evenodd" clip-rule="evenodd" fill="#FEFDFD" d="M19.306,9.763c-0.016-0.367,0.021-0.725,0.182-1.061
		c0.15-0.136,0.304-0.273,0.456-0.409c1.191-0.248,1.656,0.066,1.913,1.287c-0.239,0.805-0.764,1.194-1.615,1.112
		C19.493,10.756,19.25,10.513,19.306,9.763z"/>
	<path fill-rule="evenodd" clip-rule="evenodd" fill="#FEFEFE" d="M9.632,14.533c0.098-0.447,0.196-0.897,0.293-1.345
		c1.539-3.196,3.814-4.164,7.321-3.111c1.368,0.127,2.788,1.634,2.826,2.994c0.292,1.121,0.463,2.244,0.125,3.386
		c-0.188,0.447-0.376,0.896-0.563,1.343c-0.195,0.262-0.39,0.521-0.585,0.782c-0.404,0.339-0.809,0.677-1.211,1.015
		c-0.447,0.201-0.894,0.398-1.342,0.597c-0.889,0.149-1.779,0.24-2.673,0.041c-0.449-0.161-0.897-0.32-1.346-0.479
		c-0.751-0.488-1.42-1.067-1.959-1.79c-0.302-0.575-0.592-1.155-0.754-1.791C9.72,15.626,9.676,15.081,9.632,14.533z"/>
	<path fill-rule="evenodd" clip-rule="evenodd" fill="#C8277B" d="M20.072,13.071c-0.607-1.313-1.498-2.358-2.826-2.994
		c0.611-0.324,1.315-0.079,1.943-0.316c0.038,0.001,0.076,0.001,0.116,0.001c0.165,0.456,0.481,0.764,0.936,0.929
		c0.113,0.118,0.306,0.217,0.199,0.417c-0.308,0.57-0.175,1.184-0.203,1.78C20.184,12.95,20.129,13.011,20.072,13.071z"/>
	<path fill-rule="evenodd" clip-rule="evenodd" fill="#D72774" d="M14.112,11.669c0.603-0.224,1.207-0.224,1.81,0
		c0.359,0.343,0.823,0.538,1.193,0.869c0.37,0.33,0.592,0.721,0.664,1.204c0.148,0.998-0.533,1.556-1.49,1.206
		c-0.815-0.299-1.667-0.438-2.511-0.61c-0.533-0.109-1.047-0.252-1.169-0.854c-0.118-0.587,0.293-0.954,0.694-1.301
		C13.547,11.969,13.87,11.884,14.112,11.669z"/>
	<path fill-rule="evenodd" clip-rule="evenodd" fill="#E23560" d="M18.151,16.318c0.004,0.33-0.189,0.556-0.402,0.771
		c-0.429,0.143-0.835,0.057-1.229-0.123c-1.246-0.57-2.54-1-3.855-1.371c-0.413-0.116-0.804-0.26-1.078-0.616
		c-0.032-0.311-0.063-0.624,0.118-0.908c0.276-0.247,0.597-0.375,0.953-0.239c1.354,0.513,2.808,0.712,4.135,1.314
		C17.362,15.404,17.904,15.689,18.151,16.318z"/>
	<path fill-rule="evenodd" clip-rule="evenodd" fill="#E9434F" d="M11.587,14.98c1.589,0.379,3.139,0.875,4.648,1.503
		c0.502,0.207,1.007,0.405,1.514,0.606c-0.237,0.372-0.543,0.666-0.951,0.845c-1.337,0.099-2.531-0.404-3.743-0.861
		c-0.449-0.171-0.757-0.536-1.185-0.719C11.593,15.934,11.528,15.469,11.587,14.98z"/>
	<path fill-rule="evenodd" clip-rule="evenodd" fill="#DA2466" d="M18.151,16.318c-0.934-0.586-1.88-1.148-2.922-1.533
		c-1.14-0.42-2.289-0.773-3.524-0.713c0.245-1.188,1.22-2.162,2.407-2.403c-0.288,0.463-0.847,0.66-1.095,1.179
		c-0.325,0.683-0.179,1.063,0.595,1.214c0.993,0.194,1.977,0.415,2.949,0.7c0.659,0.194,1.042-0.193,0.947-0.88
		c-0.099-0.706-0.461-1.24-1.022-1.649c-0.22-0.16-0.467-0.284-0.563-0.563c1.875,0.723,2.682,1.895,2.545,3.686
		C18.439,15.705,18.368,16.034,18.151,16.318z"/>
	<path fill-rule="evenodd" clip-rule="evenodd" fill="#EE4939" d="M11.87,16.354c0.116-0.133,0.252-0.141,0.397-0.059
		c1.302,0.737,2.677,1.249,4.178,1.399c0.123,0.012,0.235,0.157,0.353,0.239c-1.792,0.892-3.403,0.586-4.569-0.869
		C12.059,16.854,11.889,16.643,11.87,16.354z"/>
</g>
</svg>
